<?xml version="1.0" standalone="no"?>
<!DOCTYPE svg PUBLIC "-//W3C//DTD SVG 1.1//EN" "http://www.w3.org/Graphics/SVG/1.1/DTD/svg11.dtd" >
<svg xmlns="http://www.w3.org/2000/svg">
<metadata>
This is a custom SVG webfont generated by Font Squirrel.
Copyright   :  1989 1992 1994 1996 1998 1999 2000 2001 Adobe Systems Incorporated All rights reserved Protected by US Patents D318290
Designer    : Robert Slimbach
Foundry URL : httpwwwadobecomtype
</metadata>
<defs>
<font id="AdobeGaramondProSemibold" horiz-adv-x="1044" >
<font-face units-per-em="2048" ascent="1485" descent="-563" />
<missing-glyph horiz-adv-x="501" />
<glyph unicode=" "  horiz-adv-x="501" />
<glyph unicode="&#x09;" horiz-adv-x="501" />
<glyph unicode="&#xa0;" horiz-adv-x="501" />
<glyph unicode="!" horiz-adv-x="573" d="M154 102q0 53 37.5 90t95 37t94.5 -36.5t37 -90.5q0 -57 -37 -94t-94.5 -37t-95 37t-37.5 94zM158 1241q0 82 129 82t129 -82q0 -41 -13 -135l-86 -686q-17 -13 -32.5 -13t-28.5 13l-86 686q-12 94 -12 135z" />
<glyph unicode="&#x22;" horiz-adv-x="897" d="M180 1376q0 57 104.5 57.5t104.5 -57.5q0 -31 -12 -102l-62 -332q-15 -12 -30 -12l-31 12l-61 332q-13 71 -13 102zM508 1376q0 57 104.5 57.5t104.5 -57.5q0 -31 -12 -102l-62 -332q-15 -12 -31 -12l-30 12l-62 332q-12 71 -12 102z" />
<glyph unicode="#" d="M27 389l26 111h219l86 323h-219l29 111h221l92 344h107l-92 -344h215l92 344h106l-92 -344h203l-23 -111h-211l-86 -323h197l-27 -111h-200l-103 -383h-104l102 383h-217l-102 -383h-105l103 383h-217zM379 500h215l86 323h-215z" />
<glyph unicode="$" d="M86 354q6 12 26.5 14.5t28.5 -8.5q37 -92 110 -169.5t187 -100.5l54 492q-158 57 -248 143t-90 221q0 147 108.5 241.5t302.5 98.5l17 156q10 16 41.5 16t40.5 -16l-17 -158q41 -2 78 -8t81 -16.5t66 -14.5q35 -87 36 -216q0 -14 -1 -28q-8 -8 -26.5 -10t-28.5 4 q-53 172 -213 205l-47 -430l31 -12q158 -63 248 -151.5t90 -233.5q-2 -164 -122 -263.5t-327 -107.5l-20 -190q-8 -14 -41 -14.5t-41 14.5l20 192q-31 0 -59.5 4t-54 10.5l-45 11.5t-41.5 14l-31 13q-10 4 -27.5 13.5t-19.5 9.5q-29 41 -49 120q-18 71 -17 140v14zM344 1006 q0 -121 170 -201l43 399q-104 -4 -158.5 -61t-54.5 -137zM520 84q231 10 232 225q0 156 -183 238z" />
<glyph unicode="%" horiz-adv-x="1777" d="M104 913q0 94 31 180.5t106.5 152t184.5 65.5t184.5 -65.5t106.5 -151.5t31 -181q0 -92 -31 -179t-106.5 -152.5t-184.5 -65.5t-184.5 65.5t-106.5 152.5t-31 179zM276 913.5q0 -49.5 6.5 -97.5t20.5 -104.5t46 -91t77 -34.5t77 34.5t46 91t20 104.5t6 97.5t-6 97.5 t-20 104t-46 91t-77 35t-77 -35t-46 -91t-20.5 -104t-6.5 -97.5zM428 -37l827 1372q4 1 9 1q15 0 34 -10q25 -13 33 -32l-831 -1376h-8q-47 0 -64 45zM1030 369q0 94 31 180t106.5 151.5t184 65.5t184.5 -65.5t106.5 -151.5t30.5 -180q0 -92 -30.5 -179.5t-106.5 -153 t-184.5 -65.5t-184 65.5t-106.5 153t-31 179.5zM1202 368.5q0 -49.5 6 -97.5t20.5 -104t46.5 -91t77 -35t76.5 35t46 91t20.5 104t6 97.5t-6 97.5t-20.5 104.5t-46 91t-76.5 34.5t-77 -34.5t-46.5 -91t-20.5 -104.5t-6 -97.5z" />
<glyph unicode="&#x26;" horiz-adv-x="1708" d="M143 338q0 250 314 414q-2 0 -13.5 10t-17.5 16t-19.5 18.5t-22.5 23.5l-22 28q-12 16 -19 32.5t-14 36t-11.5 42t-4.5 45.5q0 135 94.5 221t225.5 86q133 0 215 -77t82 -187q0 -37 -11.5 -70t-21.5 -52.5t-39 -42.5l-38 -31q-9 -7 -46 -28l-37 -20q113 -74 185.5 -153 t158.5 -212q88 117 197 359q28 55 28 77q0 23 -42 31l-60 10q-14 14 -12 33t18 25h113q203 0 344 12q15 -7 15 -31q0 -16 -11 -26l-94 -21q-74 -16 -118 -59t-101 -141q-70 -117 -213 -322q-16 -27 4 -59q70 -109 145.5 -164t180.5 -55q88 0 165 55q16 -2 24.5 -15.5 t4.5 -27.5q-70 -76 -166 -112t-184 -36q-74 0 -142.5 18.5t-97.5 47.5q-39 39 -98 135q-199 -201 -424 -201q-203 0 -308.5 113t-105.5 254zM356 416q0 -127 93.5 -210t228.5 -83q133 0 237 94q24 21 24 36q0 14 -17 42q-80 125 -166 221q-43 49 -97.5 93t-89 65.5 t-41.5 21.5q-14 0 -47 -24q-53 -37 -89 -108.5t-36 -147.5zM494 1079q0 -113 139 -213q27 -18 33 -18l20 10q68 74 68 197q0 80 -36 131t-93 51q-55 0 -93 -44t-38 -114z" />
<glyph unicode="'" horiz-adv-x="507" d="M150 1376q0 57 104 57.5t104 -57.5q0 -31 -12 -102l-61 -332q-15 -12 -31 -12l-31 12l-61 332q-12 71 -12 102z" />
<glyph unicode="(" horiz-adv-x="655" d="M150 553q0 266 108.5 513t314.5 374h4q10 0 19 -10q10 -12 8 -25q-152 -135 -225.5 -372.5t-73.5 -479.5t74 -479.5t225 -372.5q2 -12 -8 -25q-9 -11 -19 -10h-4q-207 127 -315 374t-108 513z" />
<glyph unicode=")" horiz-adv-x="655" d="M51 -299q152 135 225.5 372.5t73.5 479.5t-73.5 479.5t-225.5 372.5q-2 13 8 25q9 11 19 10h4q207 -127 315.5 -374t108.5 -513t-108.5 -513t-315.5 -374h-4q-10 0 -19 10q-10 13 -8 25z" />
<glyph unicode="*" horiz-adv-x="860" d="M98 1188q-3 6 -2 13q0 9 4 19q8 17 23 19l254 -123l24 260q8 8 28 8t30 -8l24 -260l254 123q14 -2 23 -19q5 -10 4 -19q0 -7 -2 -13l-232 -164l230 -160q3 -6 2 -13q0 -9 -4 -21q-8 -19 -27 -21l-248 129l-24 -260q-8 -8 -28.5 -8t-29.5 8l-24 260l-248 -129 q-18 2 -27 21q-5 11 -4 21q0 7 2 13l230 160z" />
<glyph unicode="+" d="M129 356v129h317v322h154v-322h318v-129h-318v-356h-154v356h-317z" />
<glyph unicode="," horiz-adv-x="522" d="M109 -193q176 55 176 183q0 25 -10.5 45t-27 33.5t-30.5 21.5t-31.5 15.5t-19.5 7.5q-47 23 -47 75q0 47 34.5 78t92.5 31q66 0 119 -58.5t53 -164.5q0 -125 -81 -208t-206 -120q-31 11 -31 34q1 12 9 27z" />
<glyph unicode="-" horiz-adv-x="655" d="M66 399q0 37 18 68l487 45q18 -18 19 -68q0 -41 -19 -65l-487 -45q-18 18 -18 65z" />
<glyph unicode="." horiz-adv-x="522" d="M127 106.5q0 57.5 39 96.5t96 39t95 -39t38 -96.5t-38 -96.5t-95 -39t-96 39t-39 96.5z" />
<glyph unicode="/" horiz-adv-x="710" d="M61 -33l428 1417h160l-428 -1417h-160z" />
<glyph unicode="0" d="M82 641q0 166 42 312.5t145.5 252t253 105.5t253 -105.5t145.5 -252t42 -312.5q0 -172 -42 -317.5t-145.5 -249t-253 -103.5t-253 103.5t-145.5 249t-42 317.5zM324 641q0 -92 7 -176t25.5 -186.5t60.5 -164t105.5 -61.5t105.5 61.5t60.5 164t25.5 186.5t7 176t-7 176 t-25.5 186.5t-60.5 164t-105.5 61.5t-105.5 -61.5t-60.5 -164t-25.5 -186.5t-7 -176z" />
<glyph unicode="1" d="M228 1162q0 14 8 20q254 49 397 129q20 -4 22 -19q-6 -63 -6 -248v-765q0 -145 18.5 -174t112.5 -44l56 -8q10 -8 10 -31.5t-15 -27.5q-143 6 -282 6q-150 0 -297 -6q-14 4 -14 27.5t10 31.5l55 8q94 14 112.5 43t18.5 175v649q0 111 -16.5 148.5t-81.5 45.5l-98 11 q-10 9 -10 29z" />
<glyph unicode="2" d="M45 31q184 164 307 293q297 305 297 573q0 125 -66.5 204t-176.5 79q-145 0 -252 -181q-8 -1 -16 -1q-33 0 -38 32q55 133 169 207t259 74q162 0 259.5 -96.5t97.5 -243.5q0 -102 -54.5 -209t-187.5 -248l-168 -176q-96 -100 -96 -133q0 -29 63 -29h240q111 0 155 22.5 t91 106.5q10 6 27.5 3t23.5 -15q-41 -221 -100 -299q-121 6 -258 6h-338q-160 0 -226 -6q-15 10 -14 25q0 6 2 12z" />
<glyph unicode="3" d="M68 18q0 41 27.5 69t68.5 28q51 0 112 -76q53 -66 113 -66q90 0 197.5 113t107.5 281q0 135 -67.5 223t-192.5 88q-106 0 -198 -84q-25 4 -40.5 30.5t-5.5 53.5q16 6 75 30.5t91.5 40t85 46t81 60.5t51 75t22.5 94q0 82 -45 128t-115 46q-141 0 -252 -170q-14 -8 -27.5 3 t-17.5 30q51 113 155.5 181.5t229.5 68.5q139 0 222 -65.5t83 -166.5q0 -74 -45 -135t-174 -125q-23 -27 25 -31q127 -12 212 -95t85 -226q0 -158 -101.5 -295t-253 -212t-307.5 -75q-80 0 -141 35t-61 98z" />
<glyph unicode="4" d="M27 444l682 975q18 25 45 27h55q36 0 36 -16q0 -9 -11 -23l-637 -883q-18 -25 -1 -35t66 -10h256q41 0 49 7.5t8 48.5v337q0 41 25 56q18 10 78.5 30.5t81.5 20.5q14 0 21 -8t8.5 -19.5t1.5 -36.5v-387q0 -37 6 -43t45 -6h127q16 -12 16 -46t-16 -46h-127q-37 0 -44 -8 t-7 -43v-92q0 -113 13 -145.5t64 -39.5l52 -6q10 -8 9 -30.5t-14 -28.5q-137 6 -237 6q-145 0 -275 -6q-12 6 -13 27.5t9 31.5l99 13q51 6 64 37.5t13 140.5v86q0 43 -7 50t-42 7h-469q-16 4 -25 23q-6 13 -7 24z" />
<glyph unicode="5" d="M116 -108q-1 6 -2 11q0 15 11 27q242 29 412 148t170 315q0 102 -48.5 176t-131.5 111t-165.5 53.5t-179.5 18.5q-33 2 -39 12t4 51l111 399q12 51 53 56l533 69q18 -4 18 -18q-23 -102 -80 -168l-424 -55q-43 -6 -53 -14.5t-20 -43.5l-21 -73q-4 -16 4 -25.5t37 -13.5 l144 -25q459 -82 458 -436q0 -106 -48 -202.5t-127 -166t-179 -124t-206.5 -82t-207.5 -31.5q-18 9 -23 31z" />
<glyph unicode="6" d="M80 494q0 369 272 636q137 135 311.5 204t317.5 85q14 -8 14 -34q0 -12 -6 -21q-307 -104 -444 -256q-109 -119 -161 -275.5t-56 -308.5q0 -12 -1 -24q0 -183 60 -311q63 -136 180 -136q96 0 144.5 75t48.5 185q0 156 -63.5 264.5t-172.5 108.5q-33 0 -67 -12 q-27 8 -15 41q90 78 217 78q147 0 239 -109q87 -104 87 -266v-15q-4 -193 -128 -312.5t-314 -119.5q-219 0 -341 147t-122 376z" />
<glyph unicode="7" d="M55 1026q29 92 70 262q61 -6 217 -6h387q244 0 268 6q14 -6 15 -24q-102 -162 -201 -355l-532 -1036q-7 -1 -14 -1l-44 10q-29 13 -31 38l525 995q68 129 67 170q0 20 -47 21h-416q-86 0 -134 -18.5t-79 -75.5q-10 -8 -28.5 -4t-22.5 18z" />
<glyph unicode="8" d="M98 301q0 109 71 185.5t200 148.5q-94 49 -164 132t-70 187q0 158 113.5 257.5t292.5 99.5q158 0 261 -82t103 -228q0 -33 -6 -62.5t-23 -55.5l-30 -44q-12 -17 -41 -41t-40 -32t-47 -31.5t-40 -27.5q268 -147 268 -381q0 -170 -126 -262.5t-306 -92.5q-170 0 -293 83 t-123 247zM295 309q0 -115 64.5 -185.5t164.5 -70.5q86 0 144.5 55.5t58.5 145.5q0 113 -73.5 194.5t-213.5 149.5q-145 -115 -145 -289zM338 1020q0 -49 22.5 -91t72.5 -78t79 -52.5t94 -48.5q117 94 117 251q0 92 -53.5 160t-143.5 68q-88 0 -138 -60.5t-50 -148.5z" />
<glyph unicode="9" d="M82 895q6 186 130 301t296 115q209 0 334 -160q113 -139 106 -393q-12 -403 -327 -656q-213 -172 -498 -225q-14 6 -19.5 27.5t5.5 34.5q164 53 290 149q291 225 301 705q4 188 -49 312t-162 124q-72 0 -125 -67.5t-57 -190.5q-4 -129 55.5 -236.5t151.5 -107.5 q35 0 68 8q29 -10 16 -47q-80 -55 -195 -56q-137 0 -231 98.5t-90 264.5z" />
<glyph unicode=":" horiz-adv-x="522" d="M127 106.5q0 57.5 39 96.5t96 39t95 -39t38 -96.5t-38 -96.5t-95 -39t-96 39t-39 96.5zM127 671.5q0 57.5 39 96.5t96 39t95 -39t38 -96.5t-38 -96t-95 -38.5t-96 38.5t-39 96z" />
<glyph unicode=";" horiz-adv-x="522" d="M109 -193q176 55 176 183q0 25 -10.5 45t-27 33.5t-30.5 21.5t-31.5 15.5t-19.5 7.5q-47 23 -47 75q0 47 34.5 78t92.5 31q66 0 119 -58.5t53 -164.5q0 -125 -81 -208t-206 -120q-31 11 -31 34q1 12 9 27zM127 671.5q0 57.5 39 96.5t96 39t95 -39t38 -96.5t-38 -96 t-95 -38.5t-96 38.5t-39 96z" />
<glyph unicode="&#x3c;" d="M125 377v92l797 379v-154l-609 -268v-4l609 -270v-152z" />
<glyph unicode="=" d="M129 203v129h789v-129h-789zM129 510v129h789v-129h-789z" />
<glyph unicode="&#x3e;" d="M125 0v152l608 270v4l-608 268v154l797 -379v-92z" />
<glyph unicode="?" horiz-adv-x="675" d="M92 1221q0 45 32 73.5t83 28.5q154 0 266.5 -140.5t112.5 -287.5q0 -158 -131 -219l-111 -53q-96 -45 -96 -103q0 -53 18 -102q-8 -14 -25.5 -18.5t-31.5 6.5q-88 127 -88 225q0 109 141 172l115 51q100 45 100 119q0 80 -74.5 111.5t-214.5 31.5q-29 0 -62.5 28 t-33.5 77zM125 106.5q0 57.5 39 96.5t96 39t95 -39t38 -96.5t-38 -96.5t-95 -39t-96 39t-39 96.5z" />
<glyph unicode="@" horiz-adv-x="1599" d="M106 362q0 231 116 411.5t299.5 273t396.5 92.5q279 0 439.5 -161t160.5 -392q0 -205 -140.5 -338t-373.5 -133q-150 0 -150 57q0 25 14 68l50 110l-5 2q-92 -96 -208.5 -166.5t-180.5 -70.5q-43 0 -66.5 26.5t-23.5 63.5q0 41 39 130t119 187q207 256 414 256 q57 0 73 -45l49 105q17 6 34 5q40 0 81 -30q-12 -31 -116.5 -274.5t-119 -280.5t-7 -51t39.5 -19q16 -2 32 -1q125 0 231 102q119 115 118 289q0 219 -143 350t-360 131q-283 0 -461 -211t-178 -498q0 -98 27.5 -188t89 -176t180 -138.5t278.5 -52.5q158 0 324 68 q27 -14 18 -45q-172 -94 -399 -94q-133 0 -255 39.5t-220.5 115.5t-157 200.5t-58.5 282.5zM612 242q0 -29 13 -29q51 0 163 100q70 63 146 172t94 162q-18 55 -84 55q-57 0 -123 -57q-80 -72 -144.5 -198.5t-64.5 -204.5z" />
<glyph unicode="A" horiz-adv-x="1284" d="M-61 24q0 16 10 29l61 10q45 8 67.5 27t45.5 68q20 43 100 250l281 729q45 119 39 149q31 6 65.5 30.5t55.5 47.5l22 20q23 0 35 -16q16 -45 46 -139l46 -142l295 -858q35 -104 59.5 -129.5t102.5 -40.5l30 -6q12 -10 12.5 -30.5t-9.5 -28.5q-127 6 -267 6q-35 0 -250 -6 q-12 8 -14 29.5t8 29.5l45 6q55 8 66 26q3 5 3 16q0 22 -15 67l-97 278q-12 41 -25.5 48.5t-58.5 7.5h-272q-39 0 -47 -6.5t-23 -49.5l-84 -245q-24 -74 -23 -100q0 -5 1 -9q6 -18 65 -29l60 -10q10 -10 9 -31.5t-13 -27.5q-23 2 -217 6q-96 0 -203 -6q-12 9 -12 30z M417 601q5 -7 42 -7h213q45 0 53 8q3 3 3 11q0 12 -7 34l-86 246q-53 156 -57 162h-5q-8 -14 -61 -162l-86 -240q-11 -33 -11 -46q1 -4 2 -6z" />
<glyph unicode="B" horiz-adv-x="1284" d="M75 25q0 19 9 28l45 6q55 6 74.5 19.5t30 59.5t10.5 157v749q0 152 -14.5 188t-84.5 44l-53 6q-10 10 -10 29.5t12 27.5q207 18 467 19q281 0 402 -70q143 -84 143 -266q0 -90 -62 -156.5t-170 -103.5q-12 -4 -12 -12q0 -6 17 -13q135 -20 232 -108t97 -248 q0 -172 -125 -272q-137 -115 -465 -115q-47 0 -132 3t-121 3q-141 0 -277 -6q-13 6 -13 31zM481 338q0 -152 36 -207t163 -55q113 0 189.5 71.5t76.5 202.5q0 158 -99 247t-272 89q-63 0 -78.5 -10t-15.5 -43v-295zM481 819q0 -39 13.5 -47t74.5 -8q145 0 213 61.5t68 198.5 q0 125 -77 188.5t-183 63.5q-78 0 -93.5 -12.5t-15.5 -73.5v-371z" />
<glyph unicode="C" horiz-adv-x="1421" d="M86 668q0 344 258 542q229 174 565 174q178 0 355 -45q14 -4 33.5 -8t23.5 -4q27 -301 29 -319q-10 -12 -33 -13.5t-33 9.5q-80 299 -397 299q-215 0 -368.5 -155t-153.5 -450q0 -307 159.5 -478t376.5 -171q297 0 428 305q14 12 33.5 9t28.5 -17q-10 -94 -41 -185 t-58 -126q-10 -2 -71 -19q-154 -49 -320 -49q-313 0 -524 137q-291 191 -291 564z" />
<glyph unicode="D" horiz-adv-x="1605" d="M75 25q0 19 9 28l45 6q55 6 74.5 19.5t30 59.5t10.5 157v749q0 154 -14.5 191t-84.5 43l-43 4q-10 8 -10 28.5t12 28.5q221 18 512 19q289 0 484 -70q190 -70 305 -229.5t115 -382.5q0 -180 -92.5 -339t-274.5 -251q-195 -98 -508 -98q-68 0 -166 6t-131 6 q-125 0 -260 -6q-13 6 -13 31zM481 1096v-721q0 -170 41 -237.5t191 -67.5q262 0 395 165.5t133 438.5q0 295 -155.5 448.5t-421.5 153.5q-133 0 -166 -29q-17 -14 -17 -151z" />
<glyph unicode="E" horiz-adv-x="1187" d="M44 25q0 19 9 28l76 8q55 6 74.5 18.5t30 58.5t10.5 157v762q0 111 -10.5 157t-30 60t-74.5 20l-33 4q-10 10 -9 32t13 28q117 -6 265 -6h391q236 0 276 6q4 -18 15.5 -132t17.5 -153q-6 -12 -29.5 -15t-36.5 7q-25 90 -52 131t-77 55q-72 18 -163 19h-138 q-66 0 -77 -16.5t-11 -104.5v-346q0 -39 7.5 -47t41.5 -8h99q139 0 176 13t51 77l14 69q12 10 35 10.5t31 -12.5q-6 -166 -6 -205q0 -18 6 -215q-8 -10 -30.5 -11t-35.5 9l-14 82q-10 61 -49 75.5t-178 14.5h-99q-35 0 -42 -8t-7 -47v-260q0 -174 35 -213q20 -23 65.5 -33 t166.5 -12q129 0 199.5 22.5t103 64.5t73.5 134q14 10 36 6t30 -18q-10 -66 -38 -161t-48 -136q-135 6 -506 6h-233q-168 0 -308 -6q-13 6 -13 31z" />
<glyph unicode="F" horiz-adv-x="1091" d="M75 25q0 19 9 28l45 6q55 6 74.5 19.5t30 59.5t10.5 157v762q0 111 -10.5 157t-30 59t-74.5 21l-27 4q-10 10 -9 32t13 28q106 -6 254 -6h388q223 0 288 6q0 -199 4 -295q-6 -12 -28.5 -15.5t-36.5 7.5q-16 92 -45 138t-86 60q-63 16 -172 17h-105q-63 0 -74.5 -16.5 t-11.5 -102.5v-367q0 -39 7.5 -47t41.5 -8h121q139 0 177 13.5t53 76.5l16 70q8 10 30.5 10t30.5 -12q-6 -160 -6 -205q0 -23 6 -213q-8 -12 -30.5 -12t-30.5 10l-16 80q-14 61 -52 75.5t-178 14.5h-121q-35 0 -42 -8t-7 -47v-287q0 -111 10.5 -156t30 -57t74.5 -19l86 -10 q10 -10 9 -31.5t-13 -27.5q-197 6 -313 6q-135 0 -277 -6q-13 6 -13 31z" />
<glyph unicode="G" horiz-adv-x="1521" d="M86 662q0 287 188 481q229 242 654 241q119 0 272 -30q84 -18 131 -19q0 -29 10.5 -135t16.5 -190q-8 -14 -33 -16.5t-33 12.5q-33 147 -135 222t-258 75q-260 0 -397 -168t-137 -441q0 -297 147 -471q76 -90 183.5 -132t211.5 -42q145 0 183 47q18 27 18 129v74 q0 111 -19.5 137.5t-119.5 42.5l-74 13q-10 10 -10 30.5t12 28.5q119 -6 320 -6q119 0 249 6q17 -10 17 -34q0 -17 -13 -25l-36 -7q-57 -10 -72.5 -35.5t-15.5 -117.5v-119q0 -121 49 -143q4 -6 4 -16.5t-6 -14.5q-20 0 -99 -16q-229 -55 -397 -56q-414 0 -631 226 q-180 186 -180 469z" />
<glyph unicode="H" horiz-adv-x="1662" d="M88 1358q135 -6 277 -6q143 0 262 6q12 -6 13 -28.5t-9 -31.5l-35 -6q-78 -12 -96.5 -46t-18.5 -189v-248q0 -43 16.5 -52t94.5 -9h479q78 0 94.5 9t16.5 52v248q0 111 -10.5 157t-30 59t-74.5 19l-45 6q-10 8 -9 31t13 29q141 -6 277 -6q141 0 264 6q12 -6 13 -28.5 t-9 -31.5l-37 -6q-78 -12 -96.5 -46t-18.5 -189v-762q0 -111 10.5 -157t30 -59t74.5 -20l45 -6q9 -9 9 -28v-3q-1 -22 -13 -28q-135 6 -272 6q-141 0 -277 -6q-12 6 -13 27.5t9 31.5l45 6q55 6 74.5 19.5t30 59.5t10.5 157v301q0 41 -16.5 50t-94.5 9h-479q-78 0 -94.5 -9 t-16.5 -50v-301q0 -111 10.5 -156t30 -58t74.5 -20l61 -8q10 -10 9.5 -31.5t-13.5 -27.5q-160 6 -288 6q-143 0 -261 -6q-12 6 -13 27.5t9 31.5l29 4q55 8 74.5 21.5t30 59.5t10.5 157v762q0 111 -10.5 157t-30 59t-74.5 19l-45 6q-9 7 -9 27q0 26 13 33z" />
<glyph unicode="I" horiz-adv-x="724" d="M75 25q0 19 9 28l45 6q55 6 74.5 19.5t30 59.5t10.5 157v762q0 111 -10.5 157t-30 59t-74.5 19l-45 6q-9 9 -9 28v4q1 22 13 28q135 -6 277 -6q137 0 272 6q12 -6 13 -28v-4q0 -19 -9 -28l-45 -6q-55 -6 -74.5 -19t-30 -59.5t-10.5 -156.5v-762q0 -111 10.5 -157t30 -59 t74.5 -20l45 -6q9 -9 9 -28v-3q-1 -22 -13 -28q-135 6 -272 6q-141 0 -277 -6q-13 6 -13 31z" />
<glyph unicode="J" horiz-adv-x="724" d="M-88 -344q0 37 26.5 80t67.5 43q31 0 92 -39q57 -37 88 -37q55 0 72 162q18 156 18 401v787q0 111 -10 156.5t-29.5 59t-76.5 21.5l-60 8q-10 8 -9 31t13 29q160 -6 291 -6q141 0 254 6q13 -7 14 -33q0 -19 -10 -27l-28 -4q-51 -6 -70.5 -20t-30 -62.5t-10.5 -158.5v-772 q0 -283 -45 -396q-53 -131 -168 -214t-281 -83q-108 0 -108 68z" />
<glyph unicode="K" horiz-adv-x="1400" d="M94 1358q127 -6 270.5 -6t262.5 6q12 -6 13 -28.5t-9 -31.5l-35 -6q-78 -12 -96.5 -46t-18.5 -189v-228q0 -49 6.5 -70.5t28.5 -21.5q43 0 154 121l209 225q61 61 110 127q28 36 28 54q0 12 -13 16l-64 18q-13 12 -13 27q0 16 17 33q129 -6 230 -6q4 0 225 6 q16 -4 19 -27.5t-13 -32.5q-133 -18 -201.5 -59t-185.5 -154l-250 -251q-18 -18 -18 -37q0 -15 12 -31q274 -360 504 -629q55 -66 151 -78l49 -6q9 -7 10 -27v-4q-1 -24 -14 -28q-106 6 -262 6q-147 0 -282 -6q-16 6 -17.5 28.5t12.5 30.5l56 8q31 4 30 22q0 13 -16 34 l-187 244q-173 226 -218 272q-31 31 -50 31q-23 0 -34 -15.5t-12 -31t-1 -50.5v-12v-260q0 -111 10.5 -157t30 -59t74.5 -20l51 -6q10 -8 9 -30.5t-13 -28.5q-143 6 -278 6q-150 0 -261 -6q-12 6 -13 28.5t9 30.5l29 4q55 8 74.5 21.5t30 59.5t10.5 157v762q0 111 -10.5 157 t-30 58t-74.5 20l-39 6q-9 9 -9 28q0 25 13 32z" />
<glyph unicode="L" horiz-adv-x="1146" d="M57 29q0 18 11 24l61 10q78 12 96.5 46t18.5 186v762q0 109 -10.5 153.5t-30 58t-74.5 21.5l-57 8q-10 8 -10.5 31t14.5 29q154 -6 289 -6q137 0 272 6q14 -6 15 -28.5t-11 -31.5l-45 -8q-55 -10 -74.5 -22.5t-30 -57.5t-10.5 -153v-719q0 -172 35 -211q20 -25 63.5 -35 t157.5 -10q174 0 229.5 32.5t125.5 188.5q14 8 34.5 4t28.5 -16q-35 -180 -86 -297q-129 6 -491 6h-213q-164 0 -293 -6q-15 7 -15 35z" />
<glyph unicode="M" horiz-adv-x="1886" d="M51 30q0 16 8 23l35 4q72 8 94.5 40t32.5 128q14 125 31 475q20 348 20 435q0 72 -25.5 106.5t-84.5 44.5l-70 12q-10 10 -7 33t15 27q92 -6 193 -6q143 0 219 6q8 -123 113 -340l225 -473q39 -84 96 -185q20 37 107 213l192 394l38 75q30 59 41 84l32 71q20 46 32.5 84 t22.5 77q84 -6 168 -6q129 0 215 6q16 -6 18 -28q0 -3 1 -5q0 -18 -13 -27l-67 -10q-68 -10 -89.5 -42t-21.5 -113q0 -520 18 -910q4 -98 22.5 -124.5t72.5 -35.5l59 -10q16 -6 14 -29.5t-18 -29.5q-131 6 -250 6q-139 0 -274 -6q-12 6 -15.5 27.5t11.5 31.5l55 10 q61 10 74.5 37t13.5 131v838h-4l-123 -256l-176 -360q-141 -293 -209 -467q-6 -6 -24.5 -6t-28.5 6q-45 139 -170 413l-183 394q-72 156 -118 276h-4q-2 -43 -6.5 -171t-6.5 -175q-8 -250 -8 -475q0 -109 13.5 -139.5t76.5 -42.5l68 -13q10 -8 10 -30.5t-12 -28.5 q-115 6 -215.5 6t-218.5 -6q-15 9 -15 36z" />
<glyph unicode="N" horiz-adv-x="1597" d="M43 1358q59 -6 242 -6q68 0 141 6q23 -57 134.5 -195.5t195.5 -228.5l205 -221l104 -117l132 -145q52 -55 60 -62q6 6 7 49v400q0 338 -39 403q-25 41 -103 51l-47 6q-14 10 -12 33t16 27q121 -6 236 -6q104 0 215 6q12 -8 14 -29v-5q0 -16 -10 -26l-47 -10 q-74 -16 -88 -47q-29 -63 -29 -403v-490q0 -313 6 -360q-22 -29 -60 -29h-9q-45 57 -240 281l-479 546q-190 219 -234 258q-6 0 -6 -131v-399q0 -338 37 -403q25 -41 104 -52l46 -6q14 -10 12 -32.5t-17 -26.5q-113 6 -233 6q-104 0 -213 -6q-12 8 -14 28.5t10 30.5l45 10 q76 16 90 48q27 63 27 403v485q0 131 -9.5 170t-58.5 82q-29 25 -108 41l-31 6q-10 7 -10 23q0 32 18 37z" />
<glyph unicode="O" horiz-adv-x="1622" d="M86 657q0 315 206 521t527 206q338 0 527.5 -207.5t189.5 -504.5q0 -303 -206 -504t-515 -201q-334 0 -531.5 201.5t-197.5 488.5zM365 717q0 -113 25.5 -224.5t77.5 -214t147.5 -166t220.5 -63.5q186 0 303.5 146.5t117.5 439.5q0 121 -27.5 235.5t-81.5 213t-146.5 159 t-208.5 60.5q-176 0 -302 -142.5t-126 -443.5z" />
<glyph unicode="P" horiz-adv-x="1204" d="M74 1312.5q0 20.5 12 26.5q162 18 453 19q287 0 428 -82q174 -104 174 -307q0 -111 -48.5 -193t-122 -124t-147 -61.5t-141.5 -19.5q-35 0 -51 2q-10 8 -12.5 25.5t6.5 26.5q254 51 254 340q0 131 -79 221t-214 90q-76 0 -90.5 -12.5t-14.5 -73.5v-895q0 -111 10.5 -157 t30 -58t74.5 -19l76 -8q10 -10 8 -31.5t-12 -27.5q-180 6 -303 6q-141 0 -265 -6q-12 6 -13 27.5t9 31.5l33 4q55 6 74.5 20.5t30 60.5t10.5 157v749q0 147 -13.5 184.5t-74.5 45.5l-72 8q-10 10 -10 30.5z" />
<glyph unicode="Q" horiz-adv-x="1622" d="M86 657q0 315 206 521t527 206q172 0 311.5 -59t226.5 -159.5t133 -226.5t46 -267q0 -236 -128 -416t-335 -246q-18 -12 19 -43l140 -121q52 -43 147.5 -105.5t164.5 -82.5q78 -23 148 -23q49 0 102 21q8 -4 12 -18q2 -7 2 -13t-2 -10q-82 -63 -256 -64 q-199 0 -399.5 104.5t-357.5 272.5q-43 43 -76 45q-276 23 -453.5 220.5t-177.5 463.5zM365 717q0 -113 25.5 -224.5t77.5 -214t147.5 -166t220.5 -63.5q186 0 303.5 146.5t117.5 439.5q0 121 -27.5 235.5t-81.5 213t-146.5 159t-208.5 60.5q-176 0 -302 -142.5t-126 -443.5 z" />
<glyph unicode="R" horiz-adv-x="1343" d="M73 27q0 17 11 26l45 6q55 6 74.5 19.5t30 59.5t10.5 157v749q0 152 -14.5 188t-84.5 44l-53 6q-10 10 -10 29.5t12 27.5q193 18 471 19q262 0 389 -70q180 -96 181 -299q0 -223 -246 -323q-16 -8 0 -35l150 -252q46 -76 106.5 -158t105.5 -121q68 -57 142 -63 q8 -6 8 -19.5t-4 -21.5q-49 -12 -135 -12q-143 0 -237.5 61t-190.5 209q-31 47 -86 145l-76 133q-27 45 -50.5 57.5t-76.5 12.5q-45 0 -54.5 -6t-9.5 -39v-262q0 -111 10.5 -157t30 -59t74.5 -20l45 -6q10 -10 9 -31.5t-13 -27.5q-135 6 -272 6q-135 0 -277 -6q-15 7 -15 33 zM481 1176v-426q0 -49 13.5 -59.5t85.5 -10.5q293 0 292 293q0 127 -76.5 215t-205.5 88q-78 0 -93.5 -14t-15.5 -86z" />
<glyph unicode="S" horiz-adv-x="1032" d="M76 365q8 14 29.5 16t33.5 -8q16 -47 43 -96.5t69 -103.5t104.5 -89t131.5 -35q115 0 179.5 61.5t64.5 157.5q0 180 -209 297l-88 49q-289 162 -289 396q0 160 118 267t333 107q37 0 77 -4t65.5 -9t69.5 -15t69 -15q16 -33 29.5 -117.5t13.5 -158.5q-8 -14 -30 -15t-36 9 q-70 244 -276 244q-115 0 -173.5 -62.5t-58.5 -153.5q0 -147 195 -249l127 -68q281 -147 280 -403q0 -178 -128 -289t-347 -111q-193 0 -336 86q-27 33 -45 124q-17 82 -16 168v20z" />
<glyph unicode="T" horiz-adv-x="1396" d="M31 1096q49 158 80 309q6 8 22 8q14 0 21 -8q8 -37 37.5 -45t140.5 -8h835q78 0 108 9t48 44q16 8 25 8q20 0 26 -10q-14 -63 -24 -170q-7 -76 -8 -123q0 -19 2 -33q-8 -12 -29 -14t-35 8q-20 123 -71.5 161t-213.5 38h-116q-39 0 -47.5 -12.5t-8.5 -77.5v-885 q0 -111 10.5 -157t30 -58t74.5 -19l74 -8q10 -10 9 -31.5t-13 -27.5q-178 6 -301 6q-121 0 -318 -6q-12 6 -13 28.5t9 30.5l86 10q55 6 74.5 18.5t30 57.5t10.5 156v885q0 66 -8.5 78t-47.5 12h-114q-145 0 -204.5 -34t-115.5 -155q-10 -10 -34.5 -4.5t-30.5 19.5z" />
<glyph unicode="U" horiz-adv-x="1523" d="M86 1358q123 -6 264 -6q139 0 275 6q12 -6 13 -26.5t-9 -31.5l-45 -6q-55 -6 -75 -20t-30 -60.5t-10 -156.5v-469q0 -520 371 -520q379 0 379 514v256q0 340 -39 403q-25 41 -103 53l-41 6q-14 10 -12 32t16 26q104 -6 228 -6q104 0 217 6q12 -8 14 -28v-5q0 -16 -10 -25 l-45 -10q-76 -16 -90 -49q-29 -61 -29 -403v-244q0 -328 -135 -473q-143 -154 -402 -154q-285 0 -421 131q-135 129 -136 439v520q0 111 -10 157t-29.5 58t-74.5 22l-35 6q-9 9 -9 28q0 23 13 30z" />
<glyph unicode="V" horiz-adv-x="1331" d="M-20 1358q119 -6 247 -6q109 0 271 6q14 -10 15 -29.5t-13 -30.5l-51 -12q-61 -14 -61.5 -36.5t99.5 -272.5l148 -365q4 -12 113 -260q252 586 342 819q20 49 19 73q0 6 -1 9q-6 20 -53 31l-60 14q-10 12 -9 32t13 28q127 -6 220 -6q113 0 198 6q12 -8 12.5 -27.5 t-8.5 -32.5l-51 -10q-90 -18 -127 -84q-35 -57 -209 -442l-114 -254q-139 -309 -213 -531q-6 -10 -35 -10q-23 0 -39 10q-49 162 -94 269l-359 862q-45 106 -71.5 138t-85.5 44l-50 10q-11 9 -10 26q0 27 17 32z" />
<glyph unicode="W" horiz-adv-x="1982" d="M-33 1358q111 -6 248 -6q102 0 250 6q12 -8 14 -28.5t-8 -29.5l-51 -12q-47 -10 -47 -33q0 -27 49 -137l244 -528q115 -250 143 -295q49 92 137 285q29 61 29 77q0 23 -19 62l-215 455q-29 59 -52 81.5t-66 32.5l-60 12q-10 10 -9 30t15 28q127 -6 222 -6q121 0 243 6 q12 -6 13.5 -27.5t-9.5 -30.5l-55 -12q-35 -6 -35 -28q0 -25 19 -68q84 -190 139 -299q35 70 100 221q45 104 45 141q0 23 -41 31l-57 14q-10 12 -8 32t14 26q82 -6 191 -6q88 0 186 6q14 -8 15 -29.5t-11 -30.5l-51 -10q-55 -10 -83 -38.5t-79 -121.5l-141 -284 q-20 -45 -21 -58q0 -10 17 -49l88 -190l43 -95l45 -101q18 -42 26 -56l324 774q63 154 64 191q0 4 -4.5 7t-11.5 6l-14 6q-7 3 -20.5 6t-19.5 5l-35 10q-14 10 -13 30t15 28q113 -6 209 -6q100 0 197 6q12 -8 14 -26v-5q0 -14 -8 -27l-49 -10q-70 -14 -106 -58t-95 -173 l-110 -243l-110 -243l-91 -207l-93 -221q-14 -35 -34.5 -92t-30.5 -78q-12 -8 -35 -8q-27 0 -37 8q-27 78 -254 568q-168 -340 -260 -568q-12 -8 -35 -8q-27 0 -36 8q-37 104 -144 328l-395 838q-35 74 -61.5 102.5t-86.5 42.5l-57 14q-9 7 -9 26q0 23 15 32z" />
<glyph unicode="X" horiz-adv-x="1327" d="M-31 53l56 10q68 12 112.5 41t102.5 103l282 373q31 41 31 59t-23 51l-305 455q-47 68 -83 98.5t-83 40.5l-65 14q-12 12 -10 33t16 27q139 -6 266 -6q170 0 256 6q14 -6 14.5 -27.5t-10.5 -32.5l-39 -4q-68 -6 -67 -26q0 -23 51 -103q190 -289 234 -344q41 47 270 387 q25 35 26 54q-4 12 -61 26l-45 10q-14 10 -13 31t17 29q121 -6 215 -6q88 0 199 6q14 -8 15 -26.5t-9 -33.5l-59 -12q-59 -12 -97.5 -42t-107.5 -116q-158 -193 -250 -333q-31 -45 -31 -60q0 -18 33 -69q279 -406 344 -490q43 -57 82 -80.5t100 -34.5l51 -8 q10 -8 10.5 -29.5t-14.5 -29.5q-147 6 -288 6q-137 0 -291 -6q-12 6 -14.5 27.5t10.5 31.5l73 15q43 10 43 26q0 25 -59 113l-35 51l-198 293q-143 -190 -279 -406q-27 -41 -27 -59q0 -16 54 -25l53 -8q12 -10 11 -32.5t-15 -26.5q-104 6 -238 6q-104 0 -203 -6 q-18 14 -17 32q-1 12 9 27z" />
<glyph unicode="Y" horiz-adv-x="1208" d="M-16 1358q131 -6 258 -6q193 0 262 6q12 -6 14 -27.5t-10 -32.5l-62 -10q-43 -8 -43 -26q0 -25 37 -107q152 -336 238 -491l240 452q55 111 55 137q0 25 -47 31l-62 14q-12 10 -10 31t16 29q135 -6 215 -6q96 0 195 6q14 -8 14 -27.5t-10 -32.5l-59 -12q-66 -12 -103 -53 t-121 -182q-57 -96 -194 -344q-47 -82 -61.5 -134.5t-14.5 -154.5v-123q0 -111 10.5 -157t31 -58t77.5 -19l78 -8q10 -10 9 -31.5t-13 -27.5q-190 6 -310 6q-131 0 -297 -6q-12 6 -13 27.5t9 31.5l66 8q55 6 74.5 19.5t30 58.5t10.5 156v121q0 84 -11.5 127t-54.5 127 l-246 485q-35 70 -61.5 93.5t-91.5 37.5l-54 12q-8 8 -7 23q0 32 16 37z" />
<glyph unicode="Z" horiz-adv-x="1306" d="M53 25q141 178 234 317l450 680q141 215 142 233q0 14 -70 15h-248q-233 0 -303 -70q-53 -53 -94 -156q-16 -10 -38 -6t-28 21l88 344q6 6 17.5 6t17.5 -6q10 -35 49 -43t166 -8h541q166 0 231 8q23 -6 19 -33q-55 -53 -314 -442l-331 -500q-6 -10 -29 -44l-43 -66 l-43 -67q-23 -36 -36 -60.5t-13 -30.5q0 -27 65 -31q82 -4 238 -4q272 0 354 47q86 51 150 217q14 10 37.5 4t27.5 -20q-14 -100 -42.5 -198.5t-55.5 -137.5q-168 6 -379 6h-532q-160 0 -215 -6q-15 6 -15 19q0 6 2 12z" />
<glyph unicode="[" horiz-adv-x="655" d="M207 -311v1720q57 2 149 2q176 0 242 -8q8 -10 8 -25.5t-8 -23.5l-182 -23q-55 -6 -66.5 -51t-11.5 -287v-889q0 -242 11 -286.5t67 -50.5l182 -23q8 -8 8 -23.5t-8 -25.5q-66 -8 -242 -8q-92 0 -149 2z" />
<glyph unicode="\" horiz-adv-x="673" d="M61 1384h160l391 -1417h-159z" />
<glyph unicode="]" horiz-adv-x="655" d="M49 -279.5q0 15.5 8 23.5l183 23q55 6 66 51t11 286v889q0 242 -11 287t-66 51l-183 23q-8 8 -8 23.5t8 25.5q66 8 242 8q92 0 150 -2v-1720q-57 -2 -150 -2q-176 0 -242 8q-8 10 -8 25.5z" />
<glyph unicode="^" d="M113 500l350 782h123l348 -782h-156l-254 592l-254 -592h-157z" />
<glyph unicode="_" horiz-adv-x="1024" d="M0 -154h1024v-102h-1024v102z" />
<glyph unicode="`" horiz-adv-x="778" d="M100 1305q0 33 64 65q66 25 80 25q39 0 65 -66l154 -377q-7 -28 -40 -27q-6 0 -13 1l-267 299q-43 60 -43 80z" />
<glyph unicode="a" horiz-adv-x="860" d="M66 170q0 63 35.5 109.5t134.5 80.5l225 82q47 16 47 54l2 53v22q0 173 -125 172q-96 0 -109 -90q-6 -53 -38 -73q-57 -37 -132 -37q-39 0 -38 32q0 55 79 132q51 47 146.5 88t169.5 41q254 0 254 -234v-22l-15 -320q-1 -16 0 -30q0 -150 99 -150q14 0 30.5 5t26.5 11 t12 6q8 0 16 -14q5 -9 4 -17q0 -5 -1 -10q-29 -41 -90.5 -65.5t-114.5 -24.5q-96 0 -147 58q-25 25 -33 24.5t-55 -28.5q-84 -53 -175 -54q-98 0 -153 58.5t-55 140.5zM285 203q0 -45 30.5 -82t83.5 -37q94 0 99 98l4 148q0 35 -17 35q-27 0 -90 -25q-53 -18 -81.5 -48 t-28.5 -89z" />
<glyph unicode="b" d="M57 1343.5q0 18.5 11 22.5q63 18 268 98q3 1 6 1q15 0 23 -17q-6 -123 -7 -297v-344q0 -37 17 -37q111 66 215 66q176 0 283.5 -116t107.5 -290q0 -211 -138 -335t-347 -124q-68 0 -129.5 14.5t-99.5 28t-44 13.5q-23 0 -51 -33q-4 -2 -14 -2q-20 0 -21 14q0 2 1 35t3 79 t2 79v923q0 102 -7 129t-40 49l-28 19q-11 6 -11 24.5zM358 328q0 -145 45 -205q51 -70 138 -70q100 0 156.5 84t56.5 219q0 172 -79 270.5t-194 98.5q-66 0 -100 -27q-23 -14 -23 -108v-262z" />
<glyph unicode="c" horiz-adv-x="819" d="M63 377q0 190 134.5 324.5t369.5 134.5q96 0 176 -29q41 -37 41 -105q0 -43 -17 -69.5t-34 -26.5q-20 0 -39 23q-94 125 -186 125q-94 0 -166 -85t-72 -223q0 -131 80 -227t213 -96q90 0 137.5 27.5t83.5 80.5q14 2 27.5 -8t15.5 -28q-51 -115 -150 -169.5t-210 -54.5 q-170 0 -285 111q-119 115 -119 295z" />
<glyph unicode="d" horiz-adv-x="1050" d="M63 365q0 213 145.5 342t346.5 129q72 0 119 -15q12 2 12 33v268q0 102 -7 129t-40 49l-29 19q-10 6 -10 24.5t10 22.5q76 23 269 98q3 1 6 1q15 0 22 -17q-6 -123 -6 -297v-817q0 -250 49 -250q41 0 86 18q13 -11 14 -40q0 -24 -16 -33q-190 -18 -323 -78q-18 4 -25 22 l4 31q6 39 -2 57l-10 2q-125 -92 -236 -92q-170 0 -274.5 117t-104.5 277zM295 444q0 -156 72.5 -253t183.5 -97q35 0 70.5 14.5t50.5 30.5q14 14 14 58v389q0 61 -27 98q-51 70 -137 70q-102 0 -164.5 -88.5t-62.5 -221.5z" />
<glyph unicode="e" horiz-adv-x="837" d="M63 381q0 184 118 319.5t315 135.5q123 0 215 -75t92 -202q0 -27 -10 -47q-18 -27 -142 -27h-354q-29 0 -36 -4t-7 -22q0 -139 87 -235.5t222 -96.5q133 0 197 102q14 4 28.5 -7t16.5 -25q-49 -115 -145.5 -170.5t-200.5 -55.5q-176 0 -286 116t-110 294zM270 582 q0 -14 29 -15h186q76 0 101 15q20 14 20 43q0 57 -35.5 95t-99.5 38q-90 0 -145.5 -64.5t-55.5 -111.5z" />
<glyph unicode="f" horiz-adv-x="616" d="M48 25q0 19 9 28l45 6q51 8 64.5 39t13.5 146v405q0 43 -5 52.5t-32 9.5h-73q-12 6 -14.5 21.5t7.5 25.5l89 45q29 16 28 45v37q0 164 43 293q41 127 142.5 206.5t240.5 79.5q104 0 169 -42t65 -107q0 -41 -31 -69.5t-70 -28.5t-59 28q-94 135 -160 135q-55 0 -90 -112.5 t-35 -333.5v-62q0 -47 6.5 -56t38.5 -9h215q12 -8 13 -33q0 -45 -29 -63h-201q-31 0 -37 -9.5t-6 -54.5v-403q0 -115 13.5 -145.5t66.5 -37.5l80 -8q10 -10 9 -31.5t-13 -27.5q-137 6 -268 6q-94 0 -222 -6q-13 6 -13 31z" />
<glyph unicode="g" horiz-adv-x="950" d="M51 -309q0 51 29 88q10 10 61.5 45t65.5 47q14 10 19 24.5t-7 20.5q-57 18 -96 65.5t-39 104.5q0 33 33 51q37 18 84 54t47 54.5t-8 22.5q-61 25 -106.5 88.5t-45.5 155.5q0 139 105.5 231.5t269.5 92.5q121 0 207 -43q63 -31 90 -31h201q16 -12 16 -37q0 -61 -33 -70 h-149q10 -35 10 -88q0 -141 -95.5 -239.5t-279.5 -98.5q-25 0 -78 9q-63 -33 -63 -80q0 -80 112 -80q27 0 103 2t123 2q66 0 116 -8t104 -32t84 -76t30 -132q0 -74 -40 -143.5t-90 -106.5q-166 -135 -397 -135q-197 0 -290 74t-93 168zM250 -240q0 -92 74.5 -149t193.5 -57 q129 0 201 50t72 140q0 76 -61.5 116t-162.5 40h-116q-106 0 -140 -25q-61 -47 -61 -115zM315 549q0 -113 45.5 -177.5t106.5 -64.5t98 53.5t37 157.5q0 106 -42 173t-109 67q-57 0 -96.5 -54.5t-39.5 -154.5z" />
<glyph unicode="h" horiz-adv-x="1069" d="M26 25q0 19 9 28l45 6q51 8 64.5 39t13.5 146v878q0 102 -7.5 129t-39.5 49l-29 19q-10 6 -10 24.5t10 22.5q59 16 268 98q3 1 7 1q15 0 22 -17q-6 -123 -6 -297v-379q0 -35 18 -35q133 98 262 98.5t195.5 -76.5t66.5 -210v-305q0 -115 13.5 -146.5t64.5 -38.5l47 -6 q13 -9 13 -26v-5q-2 -22 -17 -28q-129 6 -231 6q-100 0 -209 -6q-12 6 -13 27.5t9 31.5l31 4q51 8 64 40t13 147v288q0 180 -163 181q-84 0 -140 -60q-25 -27 -24 -135v-274q0 -115 13 -146.5t65 -40.5l30 -4q10 -10 9 -31.5t-13 -27.5q-109 6 -217 6q-92 0 -221 -6 q-13 6 -13 31z" />
<glyph unicode="i" horiz-adv-x="548" d="M56 25q0 19 10 28l36 6q51 8 64.5 39t13.5 146v301q0 76 -7 100.5t-44 46.5l-25 15q-4 6 -4 22t6 25q160 47 267 110q20 -4 28 -16q-6 -102 -6 -250v-354q0 -115 13.5 -145.5t64.5 -39.5l37 -6q9 -9 9 -28v-3q-1 -22 -13 -28q-113 6 -221 6q-98 0 -215 -6q-14 6 -14 31z M162 1147q0 53 34.5 88t90 35t90.5 -35t35 -88t-35 -88t-90.5 -35t-90 35t-34.5 88z" />
<glyph unicode="j" horiz-adv-x="530" d="M-39 -494q92 49 133 111q84 127 84 449v479q0 76 -7 100.5t-44 46.5l-25 15q-4 6 -4 22t6 25q160 47 267 110q20 -4 28 -16q-6 -102 -6 -250v-489q0 -221 -47 -330q-90 -209 -358 -330q-16 2 -25 20q-5 10 -5 20q0 8 3 17zM158 1147q0 53 34.5 88t90 35t90.5 -35t35 -88 t-35 -88t-90.5 -35t-90 35t-34.5 88z" />
<glyph unicode="k" horiz-adv-x="991" d="M26 25q0 19 9 28l43 6q51 8 64.5 39t13.5 146v878q0 104 -7.5 131t-46.5 52l-22 14q-10 6 -10 24.5t10 22.5q63 18 268 98q3 1 7 1q15 0 22 -17q-6 -123 -6 -297v-649q0 -18 8 -23.5t37 -5.5q59 0 133 78l80 88q59 66 59 80q0 18 -33 20l-55 6q-14 10 -13 32t17 30h60 q174 0 319 16q14 -6 14 -27.5t-10 -33.5l-37 -6q-88 -16 -149 -70q-154 -137 -174 -158q-16 -20 0 -41q219 -307 293 -376q51 -47 116 -56l21 -2q9 -10 8 -26v-7q-2 -20 -14 -26q-100 6 -228 6q-94 0 -221 -6q-14 8 -16 28.5t12 30.5l20 2q39 8 39 24.5t-24 49.5l-168 236 q-29 41 -64 41q-18 0 -24 -11.5t-6 -52.5v-98q0 -115 13 -145.5t65 -39.5l45 -6q10 -10 9 -31.5t-14 -27.5q-129 6 -231 6q-94 0 -219 -6q-13 6 -13 31z" />
<glyph unicode="l" horiz-adv-x="528" d="M30 25q0 19 9 28l43 6q51 8 64.5 39t13.5 146v878q0 104 -7.5 131t-46.5 52l-22 14q-10 6 -10 24.5t10 22.5q76 23 268 98q3 1 7 1q15 0 22 -17q-6 -123 -6 -297v-907q0 -115 13 -145.5t65 -39.5l45 -6q9 -9 9 -28v-3q-1 -22 -13 -28q-125 6 -230 6q-96 0 -221 -6 q-13 6 -13 31z" />
<glyph unicode="m" horiz-adv-x="1634" d="M56 25q0 19 10 28l36 6q51 8 64.5 39t13.5 146v301q0 76 -7 100.5t-44 46.5l-25 15q-4 6 -4 22t6 25q135 37 267 110q18 0 26 -16q-4 -39 -4 -94q0 -16 19 -21q12 6 64 36t70.5 38t63.5 18.5t95 10.5q121 0 184 -86q20 -31 33 -31q10 0 45 20q156 96 262 97 q125 0 187.5 -75t62.5 -200v-317q0 -115 13 -145.5t65 -39.5l45 -6q11 -11 10 -26v-5q-2 -19 -10 -28q-133 6 -233.5 6t-211.5 -6q-12 6 -13 27.5t9 31.5l33 6q51 8 64.5 39t13.5 146v278q0 190 -166 191q-88 0 -137 -62q-25 -29 -25 -106v-301q0 -115 13.5 -146.5 t64.5 -40.5l31 -4q10 -10 9 -31.5t-14 -27.5q-109 6 -215 6q-102 0 -204 -6q-12 6 -13.5 27.5t8.5 31.5l27 4q51 8 64.5 40t13.5 147v278q0 190 -156 191q-98 0 -145 -64q-18 -25 -22.5 -47t-4.5 -84v-274q0 -115 13.5 -146.5t64.5 -40.5l31 -4q10 -10 9 -31.5t-13 -27.5 q-106 6 -217 6q-96 0 -213 -6q-14 6 -14 31z" />
<glyph unicode="n" horiz-adv-x="1091" d="M48 25q0 19 9 28l45 6q51 8 64.5 39t13.5 146v301q0 76 -7 100.5t-44 46.5l-25 15q-4 6 -4 22t6 25q137 39 267 110q18 0 26 -16q-4 -39 -4 -94q0 -16 19 -21q16 8 52 29.5t53.5 30t48 21.5t60 17.5t66.5 4.5q121 0 182.5 -75t61.5 -200v-317q0 -115 13.5 -146.5 t64.5 -38.5l47 -6q9 -9 9 -28v-3q-1 -22 -13 -28q-129 6 -231.5 6t-209.5 -6q-12 6 -13 27.5t9 31.5l31 4q51 8 64.5 40t13.5 147v282q0 186 -164 187q-92 0 -135 -64q-18 -27 -23.5 -49t-5.5 -82v-274q0 -115 13.5 -146.5t64.5 -40.5l31 -4q10 -10 9 -31.5t-13 -27.5 q-106 6 -217 6q-92 0 -222 -6q-13 6 -13 31z" />
<glyph unicode="o" horiz-adv-x="1007" d="M63 389q0 201 131.5 324t317.5 123q180 0 306 -115t126 -307q0 -209 -128 -326t-320 -117q-184 0 -308.5 111.5t-124.5 306.5zM305 420q0 -152 55.5 -259.5t159.5 -107.5q96 0 139 94.5t43 231.5q0 147 -53 261t-157 114q-82 0 -134.5 -85t-52.5 -249z" />
<glyph unicode="p" horiz-adv-x="1056" d="M15 -497q0 19 10 28l53 6q51 6 64.5 38t13.5 146v824q0 76 -7.5 98.5t-44.5 46.5l-24 17q-6 8 -6 23t8 24q59 16 139 53t127 67q27 0 33 -20q-10 -61 -10 -80q0 -23 16 -26l35 18l63.5 31.5t73.5 26t82 12.5q162 0 257 -107.5t95 -271.5q0 -215 -138 -350.5t-363 -135.5 q-53 0 -91 9q-31 -6 -30 -58v-201q0 -115 13 -145.5t67 -36.5l73 -8q10 -10 9 -31.5t-13 -27.5q-160 6 -262 6q-106 0 -229 -6q-14 6 -14 31zM371 225q0 -76 65 -131q49 -41 109 -41q102 0 160.5 94.5t58.5 242t-70.5 237.5t-189.5 90q-70 0 -111 -41q-23 -25 -22 -139v-312 z" />
<glyph unicode="q" horiz-adv-x="1030" d="M63 373q0 207 147.5 335t360.5 128q98 0 177 -25q43 -14 73 -14q27 0 62 30q27 4 35 -16q-16 -55 -17 -248v-829q0 -117 13.5 -152t64.5 -43l74 -12q9 -7 9 -25q0 -24 -13 -30q-168 6 -258.5 6t-229.5 -6q-12 6 -13 26.5t9 28.5l51 10q51 10 64.5 45t13.5 152v200 q0 86 -22 89q-31 -20 -84.5 -36t-92.5 -16q-119 0 -205.5 41t-132 105.5t-66 129.5t-20.5 126zM303 440q0 -166 85 -263t210 -97q55 0 82 26q6 8 6 29v377q0 119 -37 172q-43 70 -127 70q-88 0 -153.5 -82t-65.5 -232z" />
<glyph unicode="r" horiz-adv-x="714" d="M58 25q0 19 10 28l36 6q51 8 64.5 39t13.5 146v301q0 76 -7 100.5t-44 46.5l-25 15q-4 6 -4 22t7 25q162 53 258 110q23 0 28 -18q-4 -78 -4 -92q0 -25 21 -25q10 8 36.5 27.5t42 30t38 23.5t43 19.5t40.5 6.5q51 0 82 -30t31 -71q0 -55 -35 -87t-80 -32q-29 0 -55 17 q-57 39 -98 39q-35 0 -47.5 -35t-12.5 -113v-280q0 -115 13.5 -145.5t66.5 -37.5l80 -8q10 -10 9 -31.5t-13 -27.5q-184 6 -268 6q-96 0 -213 -6q-14 6 -14 31z" />
<glyph unicode="s" horiz-adv-x="708" d="M72 268q8 12 27.5 13.5t29.5 -9.5q31 -96 88 -159.5t133 -63.5q49 0 82 31t33 84q0 92 -139 160q-217 104 -218 263q0 113 87 180q88 69 219 69q119 0 190 -41q31 -66 31 -199q-4 -12 -24.5 -16.5t-30.5 6.5q-25 74 -72 123t-105 49q-49 0 -81.5 -31t-32.5 -76 q0 -74 137 -139q106 -51 166.5 -113.5t60.5 -171.5q0 -125 -93 -190.5t-226 -65.5q-145 0 -234 66q-30 57 -30 175z" />
<glyph unicode="t" horiz-adv-x="657" d="M45 748q0 15 12 24q92 35 162 86q76 55 113 127q10 6 22 6q5 0 10 -1q17 -3 25 -15v-123q0 -27 5 -33t34 -6h203q16 -8 16 -43q-4 -39 -26 -53h-195q-27 0 -33 -10.5t-6 -59.5v-315q0 -115 29.5 -179.5t120.5 -64.5q45 0 98 37q28 -3 27 -30v-11q-33 -47 -103 -80 t-158 -33q-135 0 -182 66.5t-47 189.5v416q0 53 -6 63.5t-31 10.5h-72q-18 9 -18 31z" />
<glyph unicode="u" horiz-adv-x="1064" d="M70 799q193 4 284 37q18 -4 21 -19q-6 -37 -6 -174v-315q0 -109 34.5 -171.5t133.5 -62.5q80 0 135 51q25 25 24 115v309q0 94 -14 120t-76 44l-33 10q-10 8 -10 29t12 27q256 4 322 37q18 -4 21 -19q-6 -59 -7 -174v-342q0 -109 9.5 -163t42.5 -54q37 0 88 14 q13 -6 13 -28v-3q-1 -26 -20 -38q-223 -25 -335 -78q-14 2 -19 20q7 41 7 65q0 6 -1 11q-2 23 -20 23q-166 -98 -279 -99q-133 0 -188 69t-55 204v319q0 106 -10.5 135t-49.5 39l-28 8q-9 7 -10 26q1 24 14 28z" />
<glyph unicode="v" horiz-adv-x="888" d="M-8 813q106 -6 215 -6q117 0 225 6q14 -6 16.5 -27.5t-12.5 -31.5l-37 -6q-51 -8 -51 -23q0 -25 17 -66q98 -260 163 -391q33 68 152 357q29 72 29 92t-43 26l-50 11q-12 12 -10 32.5t19 26.5q92 -6 172 -6q82 0 149 6q14 -6 16 -28v-3q0 -19 -12 -28l-41 -9 q-51 -10 -79.5 -38.5t-73.5 -126.5l-162 -357q-57 -127 -96 -239q-12 -12 -35 -13q-20 0 -37 13q-35 96 -78 190l-196 444q-31 68 -55.5 93.5t-69.5 33.5l-39 9q-9 9 -10 27q1 23 14 32z" />
<glyph unicode="w" horiz-adv-x="1400" d="M-12 813q111 -6 217 -6q119 0 203 6q12 -6 13 -28.5t-9 -30.5l-35 -11q-49 -12 -49 -28q0 -10 22 -66l53 -133q4 -8 103 -244l74 164l57 135q22 53 22 92q0 9 -2 17q-12 31 -30.5 42t-59.5 21l-39 11q-12 8 -10 30.5t17 28.5q80 -6 198.5 -6t220.5 6q14 -6 16.5 -28.5 t-12.5 -30.5l-36 -9q-51 -12 -52 -26q0 -16 13 -49q16 -47 172 -398q57 115 143 355q23 66 23 86t-39 26l-70 15q-12 10 -10 31.5t14 27.5q104 -6 168 -6t162 6q14 -6 15 -27v-3q0 -18 -9 -29l-39 -11q-43 -12 -63.5 -33.5t-51.5 -93.5l-125 -284q-74 -170 -139 -348 q-12 -12 -35 -13q-20 0 -36 13q-86 209 -244 557q-190 -408 -242 -557q-12 -12 -35 -13q-20 0 -37 13q-43 115 -102 247l-192 441q-16 33 -35 48t-60 25l-34 9q-9 10 -9 26q0 26 15 33z" />
<glyph unicode="x" horiz-adv-x="899" d="M-8 813q117 -6 215 -6q117 0 217 6q14 -4 16 -27.5t-10 -31.5l-39 -11q-39 -8 -39 -18q0 -14 17 -39q55 -82 112 -158q98 145 109 164q12 16 12 33q0 10 -35 20l-41 9q-14 10 -12 31.5t16 27.5q92 -6 185 -6q96 0 166 6q14 -8 16 -28.5t-12 -30.5l-56 -11 q-61 -10 -92.5 -30.5t-74.5 -73.5l-97 -121q-31 -41 -30 -49q0 -12 26 -49l160 -225q61 -88 92 -108.5t113 -33.5q7 -15 7 -30v-4q-1 -17 -11 -25q-102 6 -232 6q-135 0 -233 -6q-14 6 -16.5 27.5t10.5 31.5l49 10q47 8 47 21q0 14 -23 47q-109 158 -123 176 q-45 -61 -114 -174q-20 -35 -21 -51q0 -14 37 -21l47 -8q12 -12 10 -32.5t-14 -26.5q-154 6 -186 6q-94 0 -166 -6q-14 8 -16.5 29.5t12.5 29.5q76 10 112.5 22.5t61.5 43.5q106 125 158 205q33 47 32 55q0 12 -37 59l-165 221q-37 51 -66 67.5t-98 27.5q-11 8 -12 27 q1 25 16 32z" />
<glyph unicode="y" horiz-adv-x="917" d="M-6 813q100 -6 227 -6q113 0 217 6q12 -6 13.5 -27.5t-9.5 -31.5l-61 -13q-35 -8 -38 -24v-4q0 -19 24 -80l90 -236q57 -152 69 -155q10 2 66 127l61 137q74 166 74 199q0 27 -39 34l-70 15q-10 12 -9 31.5t14 27.5q111 -6 194 -6q80 0 164 6q14 -4 16 -27q0 -3 1 -6 q0 -18 -11 -26q-96 -25 -117 -45q-43 -43 -125 -207l-104 -209q-252 -504 -338 -692q-49 -111 -156 -111q-55 0 -83.5 30.5t-28.5 78.5q0 88 104 92l45 2q59 4 86 41q100 143 101 256q0 63 -35 151l-166 430q-39 100 -62.5 131t-78.5 43l-41 9q-11 11 -12 29q1 23 18 30z " />
<glyph unicode="z" horiz-adv-x="798" d="M37 588q33 180 67 256q6 4 18.5 4t18.5 -4q6 -27 29 -32t106 -5h338q78 0 125 6q14 -6 15 -25q-70 -96 -148 -231l-227 -397q-29 -49 -29 -63.5t80 -14.5h68q117 0 174 49q43 39 82 123q10 10 30.5 6t24.5 -16q-8 -61 -31.5 -140t-44.5 -110q-111 6 -235 6h-185 q-162 0 -247 -6q-20 8 -15 26q78 106 182 291l197 346q27 45 27 58q0 10 -45 10h-101q-104 0 -137 -29q-25 -20 -82 -123q-14 -7 -25 -6q-20 0 -30 21z" />
<glyph unicode="{" horiz-adv-x="655" d="M119 548.5q0 16.5 10 24.5q117 8 148.5 42t31.5 116q0 68 -16.5 212t-16.5 216q0 262 310 262q13 -11 13 -24q0 -11 -9 -23q-172 -31 -172 -190q0 -68 19.5 -208t19.5 -212q0 -172 -154 -211v-8q154 -39 154 -211q0 -72 -19.5 -212t-19.5 -208q0 -160 172 -190 q9 -12 9 -23q0 -13 -13 -25q-309 0 -310 263q0 72 16.5 216t16.5 212q0 82 -31.5 115.5t-148.5 41.5q-10 8 -10 24.5z" />
<glyph unicode="|" horiz-adv-x="522" d="M184 -512v2048h154v-2048h-154z" />
<glyph unicode="}" horiz-adv-x="655" d="M66 -276q172 31 172 190q0 68 -19.5 208t-19.5 212q0 172 153 211v8q-154 39 -153 211q0 72 19.5 212t19.5 208q0 160 -172 190q-9 12 -10 23q0 13 14 24q309 0 309 -262q0 -72 -16.5 -216t-16.5 -212q0 -82 32 -115.5t148 -42.5q10 -8 10.5 -24.5t-10.5 -24.5 q-117 -8 -148.5 -41.5t-31.5 -115.5q0 -68 16.5 -212.5t16.5 -215.5q0 -262 -309 -263q-13 11 -14 25q1 11 10 23z" />
<glyph unicode="~" d="M86 229q53 150 111 201q31 35 66.5 44t101.5 9h286q121 0 162 47.5t61 96.5q14 5 27 4q33 0 57 -31q-18 -47 -55 -108.5t-65 -88.5q-47 -47 -150 -47h-274q-121 0 -178 -51q-31 -27 -72 -104q-12 -5 -24 -6l-21 5q-23 9 -33 29z" />
<glyph unicode="&#xa1;" horiz-adv-x="573" d="M156 -469q0 25 12 131l90 696q16 12 31.5 12.5t29.5 -12.5l91 -696q10 -88 10 -131q0 -76 -131 -76q-133 0 -133 76zM156 676q0 57 37.5 94t95 37t94.5 -37t37 -94q0 -53 -37 -90t-94.5 -37t-95 37t-37.5 90z" />
<glyph unicode="&#xa2;" d="M121 627q0 176 128 307t359 143l21 176q14 8 41.5 8.5t40.5 -8.5l-21 -174q74 -2 160 -28q45 -49 45 -117q0 -33 -12.5 -55.5t-24.5 -22.5q-18 0 -39 21q-82 90 -141 108l-76 -643q31 -6 68 -6q123 0 217 106q35 -4 41 -30q-43 -96 -136.5 -143.5t-203.5 -49.5l-27 -211 q-13 -13 -38 -13h-4q-28 1 -40 13l27 213q-176 16 -280.5 123t-104.5 283zM338 684q0 -104 46 -189t138 -128l76 630q-104 -4 -182 -88t-78 -225z" />
<glyph unicode="&#xa3;" d="M-43 8q0 53 102 133q150 121 150 439q0 12 -1 16t-3 6t-12.5 3t-18.5 3h-176q-12 10 -12 39t12 43h174q23 0 28 3t3 16q-2 27 -2 82q0 229 143 374.5t350 145.5q76 0 121 -31q25 -23 25 -68q0 -43 -27 -79.5t-47 -36.5q-27 0 -49 20q-98 80 -180 80q-41 0 -74 -63.5 t-33 -194.5q0 -88 12 -217q2 -20 9.5 -25.5t33.5 -5.5h285q14 -14 14 -40.5t-14 -41.5h-283q-29 0 -37 -5t-8 -23q0 -240 -194 -355l2 -4q36 5 71 5q42 0 80 -7q68 -8 203 -78q115 -59 195 -59q45 0 51 29q1 6 1 13q0 32 -20 99q-10 37 6.5 57.5t45.5 20.5q39 0 68.5 -27.5 t29.5 -85.5q0 -86 -101.5 -178t-226.5 -92q-98 0 -237 88q-158 98 -230 98q-27 0 -44 -25.5t-21 -51.5q-4 -18 -53.5 -37t-71.5 -19q-39 0 -39 37z" />
<glyph unicode="&#xa4;" d="M82 643q0 156 94 270l-92 93q4 31 33.5 59.5t66.5 38.5l84 -105q113 82 256.5 82t255.5 -82l84 105q37 -10 67 -39t34 -59l-93 -93q94 -115 94.5 -270.5t-94.5 -269.5l93 -92q-4 -31 -34 -59.5t-67 -39.5l-84 105q-113 -82 -256 -82t-256 82l-84 -105q-37 10 -66.5 39 t-33.5 60l92 92q-94 114 -94 270zM227 645q0 -133 89.5 -226t208 -93t207.5 94t89 225q0 129 -89 222.5t-208 93.5q-121 0 -209 -93.5t-88 -222.5z" />
<glyph unicode="&#xa5;" d="M-2 1292q125 -6 235 -6q141 0 234 6q12 -4 13 -25.5t-9 -31.5l-57 -18q-29 -6 -29 -27q0 -23 27 -68l96 -172q55 -100 94 -162q12 16 78 144l100 192q23 43 23 76q0 12 -45 23l-64 12q-10 8 -8 28.5t14 28.5q98 -6 191 -6q84 0 160 6q14 -4 14 -24.5t-10 -32.5l-51 -8 q-37 -6 -63 -34t-69 -101l-208 -361h276q14 -20 14 -39.5t-14 -38.5h-305v-153h305q12 -14 12 -39t-12 -39h-305v-148q0 -129 13 -166.5t65 -44.5l78 -10q10 -8 9 -30.5t-14 -28.5q-188 6 -270 6q-57 0 -242 -6q-12 6 -13 28.5t9 30.5l78 10q51 6 64.5 44t13.5 167v148h-307 q-13 19 -13.5 38.5t13.5 39.5h307v153h-307q-10 14 -10 39t10 39h284l-223 371q-47 78 -68.5 98.5t-76.5 28.5l-41 6q-9 7 -9 24q0 28 13 33z" />
<glyph unicode="&#xa6;" horiz-adv-x="522" d="M184 -358v716h154v-716h-154zM184 666v716h154v-716h-154z" />
<glyph unicode="&#xa7;" horiz-adv-x="1036" d="M76 807q0 131 74.5 264t211 223t291.5 90q90 0 131 -34.5t41 -73.5q0 -41 -26.5 -63.5t-63.5 -22.5q-20 0 -59 29q-96 68 -160 67q-43 0 -71.5 -27.5t-28.5 -68.5q0 -61 55 -135t221 -199q268 -203 269 -487q0 -143 -70 -284.5t-207 -240t-307 -98.5q-80 0 -128 33 t-48 86q0 37 25.5 61.5t62.5 24.5q27 0 71 -33q88 -68 162 -68q109 0 109 109q0 139 -273 365q-135 113 -208.5 225.5t-73.5 257.5zM199 930q0 -43 6 -77t28.5 -93.5t84 -131t157.5 -153.5q139 -119 198 -228q53 -99 53 -218q0 -12 -1 -25q123 92 123 258q0 223 -266 440 q-162 133 -216.5 220.5t-54.5 226.5q-112 -86 -112 -219z" />
<glyph unicode="&#xa8;" horiz-adv-x="778" d="M92 1118q0 53 35 89t88 36q47 0 81 -34.5t34 -80.5q0 -55 -33 -89.5t-82 -34.5q-53 0 -87 29.5t-36 84.5zM450 1124q0 49 33 83q35 36 86.5 36t84 -34.5t32.5 -80.5q0 -57 -31.5 -90.5t-85 -33.5t-85.5 29q-34 32 -34 91z" />
<glyph unicode="&#xa9;" horiz-adv-x="1638" d="M102 676q0 297 206 502.5t511 205.5t511 -205.5t206 -502.5t-206 -503t-511 -206t-511 206t-206 503zM229 678q0 -260 171 -441.5t419 -181.5t419 181.5t171 441.5q0 258 -171 438t-419 180t-419 -180t-171 -438zM430 663.5q0 190.5 135 298t324 107.5q87 0 241 -33 q0 -47 15 -190q-20 -20 -47 -2q-39 166 -209 166q-117 0 -202 -86t-85 -242t87 -247t206 -91q63 0 112.5 28.5t70 57.5t44.5 76q10 8 25.5 7t21.5 -13q-12 -113 -53 -172q-20 -4 -41 -13q-92 -31 -184 -30q-186 0 -297 75q-164 113 -164 303.5z" />
<glyph unicode="&#xaa;" horiz-adv-x="724" d="M66 915q0 43 63 99q43 35 116.5 63.5t141.5 28.5q207 0 207 -168q0 -25 -6 -115t-6 -135q0 -113 63 -113q31 0 62 19q12 -2 18 -12q3 -5 3 -11.5t-3 -13.5q-23 -27 -72 -46t-90 -19q-76 0 -117 38q-20 20 -32 21q-6 0 -43 -25q-66 -35 -125 -34q-86 0 -133 44t-47 101 q0 53 24.5 84t95.5 53q164 53 181 60q51 18 51 47l2 30q1 7 0 15q0 40 -20 71q-24 37 -74 37q-76 0 -82 -65q-6 -45 -35 -62q-41 -27 -105 -26q-38 -1 -38 34zM244 670q0 -35 23.5 -61.5t64.5 -26.5q72 0 76 59l4 104q0 33 -15 33q-25 0 -59 -10q-94 -26 -94 -98z" />
<glyph unicode="&#xab;" horiz-adv-x="862" d="M109 387q-14 17 -14.5 34t14.5 34l286 325q29 -4 37 -28l-147 -303q-14 -27 0 -54l147 -307q-8 -23 -37 -29q-182 215 -286 328zM446 387q-14 17 -14 34t14 34l287 325q29 -4 37 -28l-147 -303q-12 -27 0 -54l147 -307q-8 -23 -37 -29z" />
<glyph unicode="&#xac;" d="M129 510v129h789v-471h-154v342h-635z" />
<glyph unicode="&#xad;" horiz-adv-x="655" d="M66 399q0 37 18 68l487 45q18 -18 19 -68q0 -41 -19 -65l-487 -45q-18 18 -18 65z" />
<glyph unicode="&#xae;" horiz-adv-x="679" d="M61 1114q0 113 82 192.5t197 79.5t196.5 -79.5t81.5 -192.5t-81.5 -192.5t-196.5 -79.5t-197 79.5t-82 192.5zM127 1114q0 -92 63.5 -157.5t149.5 -65.5q88 0 150.5 64.5t62.5 158.5t-62.5 159.5t-150.5 65.5q-86 0 -149.5 -65.5t-63.5 -159.5zM211 1243q98 4 129 4 q117 0 117 -73q0 -43 -43 -60q-6 -2 0 -16q41 -74 59 -84q14 -10 21 -13q2 0 2 -7t-2 -9q-12 -2 -33 -2q-53 0 -86 45l-19 30q-12 19 -14 25q-6 12 -20 13q-8 0 -9 -11v-30q0 -18 1 -25.5t6.5 -12.5t19.5 -7l8 -2q4 -2 4 -11.5t-4 -11.5q-12 0 -33.5 1t-36 1t-36 -1 t-31.5 -1q-4 2 -5 11q0 3 -1 6q0 5 2 6l10 2q18 4 22.5 11t4.5 34v121q0 41 -27 43h-10q-1 4 -2 9q1 12 6 15zM313 1135q0 -10 3 -12.5t20 -2.5q39 0 39 43q0 53 -37 54q-25 0 -25 -17v-65z" />
<glyph unicode="&#xaf;" horiz-adv-x="778" d="M131 1116q0 47 14 68h488q14 -20 14 -67.5t-14 -67.5h-488q-14 20 -14 67z" />
<glyph unicode="&#xb0;" horiz-adv-x="819" d="M121 1032q0 123 84 201t204.5 78t204.5 -78t84 -201q0 -127 -83 -201.5t-205.5 -74.5t-205.5 74.5t-83 201.5zM252 1032q0 -84 44 -138t113.5 -54t113.5 54t44 138q0 86 -44 140.5t-113.5 54.5t-113.5 -54.5t-44 -140.5z" />
<glyph unicode="&#xb1;" d="M127 0v129h791v-129h-791zM127 489v129h319v275h154v-275h318v-129h-318v-288h-154v288h-319z" />
<glyph unicode="&#xb2;" horiz-adv-x="778" d="M82 674q74 59 203 188q172 168 172 332q0 66 -38 109t-97 43q-106 0 -175 -127q-16 -6 -31.5 3t-15.5 25q98 203 301 203q125 0 196 -63.5t71 -163.5q0 -74 -49.5 -142.5t-159.5 -158.5l-58 -48q-68 -55 -67 -67q0 -23 41 -23h139q66 0 100.5 12.5t61.5 57.5q29 14 47 -8 q-33 -129 -76 -205q-106 4 -209 4h-209q-88 0 -137 -4q-12 10 -12 23q0 5 2 10z" />
<glyph unicode="&#xb3;" horiz-adv-x="778" d="M72 661q0 27 20.5 51.5t57.5 24.5q12 0 23 -4t18.5 -8t15.5 -14.5t12 -14.5t10 -16l9 -10q25 -33 63 -33q57 0 115.5 62.5t58.5 160.5q0 78 -41 131t-106 53q-72 0 -135 -55q-18 10 -27.5 29.5t-1.5 34.5q4 2 34 13l43 16q13 5 42.5 19.5t45 25l38 26.5t34 31.5t20.5 36 t9 41.5q0 43 -27.5 72.5t-74.5 29.5q-92 0 -162 -111q-14 -4 -26.5 4.5t-14.5 24.5q39 80 113.5 124t164.5 44q100 0 159 -44t59 -110q0 -88 -160 -155q-14 -6 2 -15q6 -4 14 -4q86 -2 149.5 -55t63.5 -147q0 -145 -162 -254q-152 -100 -313 -101q-57 0 -100 22.5t-43 73.5z " />
<glyph unicode="&#xb4;" horiz-adv-x="737" d="M287 954l190 371q33 63 72 64q27 0 84 -33q51 -29 51 -66q0 -8 -5 -18t-10 -16.5t-19.5 -19.5t-18.5 -19l-291 -293q-5 0 -9 -1q-39 0 -44 31z" />
<glyph unicode="&#xb5;" horiz-adv-x="1069" d="M70 799q193 4 284 37q18 -4 21 -19q-6 -37 -6 -174v-315q0 -109 34.5 -171.5t135.5 -62.5q82 0 137 51q25 25 24 115v309q0 94 -14 120t-76 44l-32 10q-10 8 -10.5 29t12.5 27q256 4 321 37q18 -4 21 -19q-6 -59 -7 -174v-342q0 -109 9.5 -164t42.5 -55q45 0 88 12 q12 -8 13 -33v-2q0 -22 -15 -34q-221 -31 -340 -74q-14 2 -19 20q7 41 7 65q0 6 -1 11q-2 23 -20 23q-166 -98 -277 -99q-59 0 -96 25q-25 0 -24 -45v-113q0 -66 43 -152.5t43 -101.5q0 -45 -56.5 -90t-111.5 -45q-47 0 -47 64v1050q0 106 -10.5 135t-49.5 39l-28 8 q-9 7 -10 26q1 24 14 28z" />
<glyph unicode="&#xb6;" horiz-adv-x="1064" d="M133 694q0 211 152.5 321.5t404.5 110.5q211 0 289 -14q15 -7 15 -29q0 -18 -13 -26l-80 -13q-76 -12 -92 -30.5t-16 -87.5v-891q0 -225 -61.5 -340t-225.5 -115q-80 0 -140.5 41t-60.5 125q0 72 62 115h7q41 0 77 -20q39 -22 49 -50q-27 -27 -27 -70q0 -29 19.5 -48 t46.5 -19q53 0 100 56.5t47 199.5v293q0 74 -55 73q-211 0 -354.5 117t-143.5 301z" />
<glyph unicode="&#xb7;" horiz-adv-x="522" d="M127 419.5q0 57.5 39 96.5t96 39t95 -39t38 -96.5t-38 -96t-95 -38.5t-96 38.5t-39 96z" />
<glyph unicode="&#xb8;" horiz-adv-x="778" d="M221 -362q0 25 15.5 41t39.5 16q23 0 60 -33t53.5 -33t31.5 16.5t15 43.5q0 68 -131 123l-6 12l133 176h82l-70 -92q-8 -10 -8 -16.5t5 -10.5t20 -12q106 -57 106 -145q0 -72 -64.5 -118t-152.5 -46q-129 0 -129 78z" />
<glyph unicode="&#xb9;" horiz-adv-x="778" d="M165 1355q0 17 9 23q76 10 177.5 34t125.5 36q5 1 9 1q9 0 12 -7q-4 -90 -4 -215v-398q0 -84 12 -106.5t65 -26.5l50 -4q9 -7 9 -23v-3q-1 -18 -12 -25q-111 4 -219 4q-111 0 -221 -4q-10 6 -11 24.5t9 26.5l41 4q59 6 72.5 27.5t13.5 105.5v381q0 39 -2 56.5t-16.5 35 t-44.5 19.5l-62 6q-13 4 -13 28z" />
<glyph unicode="&#xba;" horiz-adv-x="792" d="M66 784q0 150 99 236t236 86q143 0 234.5 -83t91.5 -222q0 -147 -95 -228t-239 -81q-139 0 -233 77.5t-94 214.5zM264 829q0 -119 37 -195.5t102.5 -76.5t95 57.5t29.5 143.5q0 283 -141 282q-55 0 -89 -54.5t-34 -156.5z" />
<glyph unicode="&#xbb;" horiz-adv-x="862" d="M92 88l148 307q14 27 0 54l-148 303q8 25 37 28l287 -325q14 -16 14 -33.5t-14 -34.5l-287 -328q-29 6 -37 29zM430 88l148 307q12 27 0 54l-148 303q8 25 37 28l287 -325q14 -16 14 -33.5t-14 -34.5l-287 -328q-29 6 -37 29z" />
<glyph unicode="&#xbc;" horiz-adv-x="1761" d="M167 1216q0 17 9 23q76 10 177.5 33.5t125.5 36.5q16 4 21 -6q-4 -90 -4 -216v-397q0 -84 12 -106.5t65 -26.5l50 -4q10 -8 9 -26.5t-11 -24.5q-111 4 -220 4q-111 0 -221 -4q-10 6 -11 24.5t9 26.5l41 4q59 6 72.5 27.5t13.5 105.5v381q0 39 -2 56.5t-16.5 35 t-44.5 19.5l-62 6q-13 4 -13 28zM406 -29l847 1368q5 1 11 1q21 0 44 -13q28 -16 29 -41l-848 -1368h-7q-26 0 -46 13q-22 15 -30 40zM946 272l424 574q20 27 41 26h53q37 0 11 -34l-398 -508q-23 -29 13 -29h176q20 0 24 6t4 31v172q0 33 37 43q106 39 129 39q25 0 25 -21 v-233q0 -25 5 -31t26 -6h94q16 -8 16 -33.5t-16 -34.5h-94q-20 0 -25.5 -6t-5.5 -30v-13q0 -82 12 -102.5t66 -30.5l24 -4q10 -8 9 -26.5t-11 -24.5q-102 4 -194 4q-90 0 -222 -4q-10 6 -11 24.5t9 26.5l41 4q59 6 72.5 27.5t13.5 105.5v13q0 25 -4 30.5t-24 5.5h-305 q-16 13 -16 29q0 5 1 10z" />
<glyph unicode="&#xbd;" horiz-adv-x="1761" d="M126 1216q0 17 9 23q76 10 177.5 33.5t125.5 36.5q16 4 21 -6q-4 -90 -4 -216v-397q0 -84 12 -106.5t65 -26.5l50 -4q10 -8 9 -26.5t-11 -24.5q-111 4 -220 4q-111 0 -221 -4q-10 6 -11 24.5t9 26.5l41 4q59 6 72.5 27.5t13.5 105.5v381q0 39 -2 56.5t-16.5 35 t-44.5 19.5l-62 6q-13 4 -13 28zM354 -29l848 1368q5 1 11 1q21 0 43 -13q28 -16 30 -41l-848 -1368h-7q-26 0 -46 13q-23 15 -31 40zM1004 29q74 59 202 188q172 168 172 332q0 66 -37.5 108.5t-97.5 42.5q-106 0 -174 -127q-16 -6 -31.5 3.5t-15.5 25.5q98 203 301 203 q125 0 195.5 -63.5t70.5 -163.5q0 -74 -49 -142.5t-160 -159.5l-57 -47q-68 -55 -68 -67q0 -23 41 -23h140q66 0 100.5 12.5t60.5 57.5q29 14 48 -8q-33 -129 -76 -205q-106 4 -209 4h-209q-88 0 -137 -4q-12 10 -12 23q0 5 2 10z" />
<glyph unicode="&#xbe;" horiz-adv-x="1761" d="M96 522q0 27 20.5 51.5t57.5 24.5q12 0 23.5 -4t18.5 -8t15.5 -14.5t12.5 -14.5t10 -16l8 -11q25 -33 64 -32q57 0 115.5 62.5t58.5 160.5q0 78 -41 131t-107 53q-72 0 -135 -55q-18 10 -27.5 29.5t-1.5 33.5q4 2 34 14l43 16q13 5 43 19.5t45.5 24.5t38 26.5t33.5 32 t20.5 36t9.5 40.5q0 43 -28 73t-75 30q-92 0 -162 -111q-14 -4 -26 4t-14 25q39 80 113.5 124t164.5 44q100 0 158.5 -44t58.5 -110q0 -88 -160 -156q-14 -6 2 -14q6 -4 15 -4q86 -2 149.5 -55.5t63.5 -147.5q0 -145 -162 -254q-152 -100 -313 -100q-57 0 -100.5 22.5 t-43.5 73.5zM434 -29l848 1368q5 1 11 1q21 0 43 -13q28 -16 30 -41l-848 -1368h-7q-26 0 -46 13q-23 15 -31 40zM977 272l424 574q20 27 41 26h53q37 0 10 -34l-397 -508q-23 -29 12 -29h176q20 0 24.5 6t4.5 31v172q0 33 37 43q106 39 129 39q25 0 25 -21v-233 q0 -25 5 -31t25 -6h94q14 -8 14.5 -33.5t-14.5 -34.5h-94q-20 0 -25 -6t-5 -30v-13q0 -82 12 -102.5t65 -30.5l25 -4q10 -8 9 -26.5t-11 -24.5q-102 4 -195 4q-90 0 -221 -4q-10 6 -11 24.5t9 26.5l41 4q59 6 72.5 27.5t13.5 105.5v13q0 25 -4 30.5t-25 5.5h-305 q-16 13 -16 29z" />
<glyph unicode="&#xbf;" horiz-adv-x="675" d="M92 -117q0 158 131 219l111 54q96 45 96 102q0 53 -18 102q8 14 25.5 18.5t31.5 -5.5q88 -127 88 -226q0 -109 -141 -172l-115 -51q-100 -45 -100 -119q0 -80 74.5 -111.5t213.5 -31.5q29 0 63 -27.5t34 -76.5q0 -45 -32 -74t-83 -29q-154 0 -266.5 140.5t-112.5 287.5z M285 671.5q0 57.5 37.5 96.5t95 39t96.5 -39t39 -96.5t-39 -96t-96.5 -38.5t-95 38.5t-37.5 96z" />
<glyph unicode="&#xc0;" horiz-adv-x="1284" d="M-61 24q0 16 10 29l61 10q45 8 67.5 27t45.5 68q20 43 100 250l281 729q45 119 39 149q31 6 65.5 30.5t55.5 47.5l22 20q23 0 35 -16q16 -45 46 -139l46 -142l295 -858q35 -104 59.5 -129.5t102.5 -40.5l30 -6q12 -10 12.5 -30.5t-9.5 -28.5q-127 6 -267 6q-35 0 -250 -6 q-12 8 -14 29.5t8 29.5l45 6q55 8 66 26q3 5 3 16q0 22 -15 67l-97 278q-12 41 -25.5 48.5t-58.5 7.5h-272q-39 0 -47 -6.5t-23 -49.5l-84 -245q-24 -74 -23 -100q0 -5 1 -9q6 -18 65 -29l60 -10q10 -10 9 -31.5t-13 -27.5q-23 2 -217 6q-96 0 -203 -6q-12 9 -12 30z M307 1632q-1 4 -1 10q0 26 30 78q35 57 67 58q18 0 66 -33l330 -242q1 -4 1 -9q0 -11 -6 -26q-9 -20 -22 -22l-397 137q-54 18 -68 49zM417 601q5 -7 42 -7h213q45 0 53 8q3 3 3 11q0 12 -7 34l-86 246q-53 156 -57 162h-5q-8 -14 -61 -162l-86 -240q-11 -33 -11 -46 q1 -4 2 -6z" />
<glyph unicode="&#xc1;" horiz-adv-x="1284" d="M-61 24q0 16 10 29l61 10q45 8 67.5 27t45.5 68q20 43 100 250l281 729q45 119 39 149q31 6 65.5 30.5t55.5 47.5l22 20q23 0 35 -16q16 -45 46 -139l46 -142l295 -858q35 -104 59.5 -129.5t102.5 -40.5l30 -6q12 -10 12.5 -30.5t-9.5 -28.5q-127 6 -267 6q-35 0 -250 -6 q-12 8 -14 29.5t8 29.5l45 6q55 8 66 26q3 5 3 16q0 22 -15 67l-97 278q-12 41 -25.5 48.5t-58.5 7.5h-272q-39 0 -47 -6.5t-23 -49.5l-84 -245q-24 -74 -23 -100q0 -5 1 -9q6 -18 65 -29l60 -10q10 -10 9 -31.5t-13 -27.5q-23 2 -217 6q-96 0 -203 -6q-12 9 -12 30z M417 601q5 -7 42 -7h213q45 0 53 8t-4 45l-86 246q-53 156 -57 162h-5q-8 -14 -61 -162l-86 -240q-11 -33 -11 -46q1 -4 2 -6zM524 1503l332 242q45 33 64 33q33 0 67 -58q30 -52 30 -78q0 -6 -1 -10q-14 -31 -68 -49l-397 -137q-12 2 -22 21q-6 13 -6 26q0 5 1 10z" />
<glyph unicode="&#xc2;" horiz-adv-x="1284" d="M-61 24q0 16 10 29l61 10q45 8 67.5 27t45.5 68q20 43 100 250l281 729q45 119 39 149q31 6 65.5 30.5t55.5 47.5l22 20q23 0 35 -16q16 -45 46 -139l46 -142l295 -858q35 -104 59.5 -129.5t102.5 -40.5l30 -6q12 -10 12.5 -30.5t-9.5 -28.5q-127 6 -267 6q-35 0 -250 -6 q-12 8 -14 29.5t8 29.5l45 6q55 8 66 26q3 5 3 16q0 22 -15 67l-97 278q-12 41 -25.5 48.5t-58.5 7.5h-272q-39 0 -47 -6.5t-23 -49.5l-84 -245q-24 -74 -23 -100q0 -5 1 -9q6 -18 65 -29l60 -10q10 -10 9 -31.5t-13 -27.5q-23 2 -217 6q-96 0 -203 -6q-12 9 -12 30z M330 1468l276 252q27 26 55 26q23 0 46 -17l276 -261q0 -12 -11 -30.5t-20 -20.5l-260 133q-16 8 -33 8l-36 -10l-256 -131q-12 0 -24.5 18.5t-12.5 32.5zM417 601q5 -7 42 -7h213q45 0 53 8q3 3 3 11q0 12 -7 34l-86 246q-53 156 -57 162h-5q-8 -14 -61 -162l-86 -240 q-11 -33 -11 -46q1 -4 2 -6z" />
<glyph unicode="&#xc3;" horiz-adv-x="1284" d="M-61 24q0 16 10 29l61 10q45 8 67.5 27t45.5 68q20 43 100 250l281 729q45 119 39 149q31 6 65.5 30.5t55.5 47.5l22 20q23 0 35 -16q16 -45 46 -139l46 -142l295 -858q35 -104 59.5 -129.5t102.5 -40.5l30 -6q12 -10 12.5 -30.5t-9.5 -28.5q-127 6 -267 6q-35 0 -250 -6 q-12 8 -14 29.5t8 29.5l45 6q55 8 66 26q3 5 3 16q0 22 -15 67l-97 278q-12 41 -25.5 48.5t-58.5 7.5h-272q-39 0 -47 -6.5t-23 -49.5l-84 -245q-24 -74 -23 -100q0 -5 1 -9q6 -18 65 -29l60 -10q10 -10 9 -31.5t-13 -27.5q-23 2 -217 6q-96 0 -203 -6q-12 9 -12 30z M377 1401q6 37 32.5 102.5t51.5 93.5q51 55 141 56h117q82 0 123 30q31 18 53 66q4 2 11 2q6 0 14 -1q18 -3 24 -9q-14 -51 -42 -108.5t-48 -78.5q-45 -45 -115 -45h-129q-96 0 -127 -36q-29 -18 -61 -84q-37 -4 -45 12zM417 601q5 -7 42 -7h213q45 0 53 8q3 3 3 11 q0 12 -7 34l-86 246q-53 156 -57 162h-5q-8 -14 -61 -162l-86 -240q-11 -33 -11 -46q1 -4 2 -6z" />
<glyph unicode="&#xc4;" horiz-adv-x="1284" d="M-61 24q0 16 10 29l61 10q45 8 67.5 27t45.5 68q20 43 100 250l281 729q45 119 39 149q31 6 65.5 30.5t55.5 47.5l22 20q23 0 35 -16q16 -45 46 -139l46 -142l295 -858q35 -104 59.5 -129.5t102.5 -40.5l30 -6q12 -10 12.5 -30.5t-9.5 -28.5q-127 6 -267 6q-35 0 -250 -6 q-12 8 -14 29.5t8 29.5l45 6q55 8 66 26q3 5 3 16q0 22 -15 67l-97 278q-12 41 -25.5 48.5t-58.5 7.5h-272q-39 0 -47 -6.5t-23 -49.5l-84 -245q-24 -74 -23 -100q0 -5 1 -9q6 -18 65 -29l60 -10q10 -10 9 -31.5t-13 -27.5q-23 2 -217 6q-96 0 -203 -6q-12 9 -12 30z M356 1554q0 51 34 86t85 35q49 0 82 -32.5t33 -77.5q0 -55 -33 -88t-82 -33t-83 28.5t-36 81.5zM417 601q5 -7 42 -7h213q45 0 53 8t-4 45l-86 246q-53 156 -57 162h-5q-8 -14 -61 -162l-86 -240q-11 -33 -11 -46q1 -4 2 -6zM735 1554q0 51 34 86t85 35q47 0 81 -32.5 t34 -77.5q0 -55 -33 -88t-82 -33q-51 0 -84 28.5t-35 81.5z" />
<glyph unicode="&#xc5;" horiz-adv-x="1284" d="M-61 24q0 16 10 29l61 10q45 8 67.5 27t45.5 68q20 43 100 250l281 729q45 119 39 149q31 6 65.5 30.5t55.5 47.5l22 20q23 0 35 -16q16 -45 46 -139l46 -142l295 -858q35 -104 59.5 -129.5t102.5 -40.5l30 -6q12 -10 12.5 -30.5t-9.5 -28.5q-127 6 -267 6q-35 0 -250 -6 q-12 8 -14 29.5t8 29.5l45 6q55 8 66 26q3 5 3 16q0 22 -15 67l-97 278q-12 41 -25.5 48.5t-58.5 7.5h-272q-39 0 -47 -6.5t-23 -49.5l-84 -245q-24 -74 -23 -100q0 -5 1 -9q6 -18 65 -29l60 -10q10 -10 9 -31.5t-13 -27.5q-23 2 -217 6q-96 0 -203 -6q-12 9 -12 30z M417 601q5 -7 42 -7h213q45 0 53 8t-4 45l-86 246q-53 156 -57 162h-5q-8 -14 -61 -162l-86 -240q-11 -33 -11 -46q1 -4 2 -6zM463 1620q0 76 56 133t144.5 57t144.5 -57t56 -133q0 -78 -56 -136.5t-144.5 -58.5t-144.5 58.5t-56 136.5zM567 1620q0 -55 25.5 -90t71 -35 t71 35t25.5 90q0 53 -25.5 87t-71 34t-71 -34t-25.5 -87z" />
<glyph unicode="&#xc6;" horiz-adv-x="1732" d="M-108 25q0 17 10 28l59 10q43 8 69.5 34t67.5 106q465 872 518 981q29 57 29 71q0 16 -37 23l-116 20q-14 10 -13.5 31t15.5 29q117 -6 290 -6h516q236 0 277 6q4 -18 15.5 -132t17.5 -153q-6 -12 -30 -15t-36 7q-25 90 -52.5 131t-76.5 55q-72 18 -164 19h-137 q-66 0 -77 -16.5t-11 -104.5v-348q0 -39 7 -46t42 -7h99q139 0 175.5 13t51.5 77l14 69q12 10 35 10.5t31 -12.5q-6 -166 -6 -205q0 -18 6 -215q-8 -10 -31 -11t-35 9l-14 82q-10 61 -49 75.5t-178 14.5h-99q-35 0 -42 -8t-7 -47v-260q0 -174 35 -213q20 -23 65 -33t166 -12 q129 0 200 22.5t103.5 64.5t73.5 134q14 10 35.5 6t30.5 -18q-10 -66 -38 -161t-48 -136q-135 6 -506 6h-225q-168 0 -308 -6q-12 6 -13 27.5t9 31.5l76 8q55 6 74.5 18.5t30 58.5t10.5 157v291q0 49 -12.5 59t-71.5 10h-193q-47 0 -60.5 -9t-35.5 -54q-158 -319 -215 -453 q-8 -19 -9 -33q0 -30 40 -36l108 -17q10 -12 8 -31.5t-14 -27.5q-111 6 -233 6q-88 0 -201 -6q-16 9 -16 31zM509 759q0 -4 5 -7q6 -4 23 -4h176q59 0 71.5 10t12.5 59v342q0 90 -11 111h-8q-16 -20 -43 -70l-217 -420q-9 -17 -9 -21z" />
<glyph unicode="&#xc7;" horiz-adv-x="1421" d="M86 668q0 344 258 542q229 174 565 174q178 0 355 -45q14 -4 33.5 -8t23.5 -4q27 -301 29 -319q-10 -12 -33 -13.5t-33 9.5q-80 299 -397 299q-215 0 -368.5 -155t-153.5 -450q0 -307 159.5 -478t376.5 -171q297 0 428 305q14 12 33.5 9t28.5 -17q-10 -94 -41 -185 t-58 -126q-10 -2 -71 -19q-133 -45 -297 -47l-54 -71q-12 -16 -9 -23.5t28 -19.5q117 -63 117 -162q0 -80 -72 -131t-168 -51q-68 0 -106.5 22.5t-38.5 63.5q0 27 17 45t44 18t68 -36t59 -36t34.5 17.5t16.5 48.5q0 74 -145 137l-6 12l125 168q-264 8 -457 133 q-291 191 -291 564z" />
<glyph unicode="&#xc8;" horiz-adv-x="1187" d="M44 25q0 19 9 28l76 8q55 6 74.5 18.5t30 58.5t10.5 157v762q0 111 -10.5 157t-30 60t-74.5 20l-33 4q-10 10 -9 32t13 28q117 -6 265 -6h391q236 0 276 6q4 -18 15.5 -132t17.5 -153q-6 -12 -29.5 -15t-36.5 7q-25 90 -52 131t-77 55q-72 18 -163 19h-138 q-66 0 -77 -16.5t-11 -104.5v-346q0 -39 7.5 -47t41.5 -8h99q139 0 176 13t51 77l14 69q12 10 35 10.5t31 -12.5q-6 -166 -6 -205q0 -18 6 -215q-8 -10 -30.5 -11t-35.5 9l-14 82q-10 61 -49 75.5t-178 14.5h-99q-35 0 -42 -8t-7 -47v-260q0 -174 35 -213q20 -23 65.5 -33 t166.5 -12q129 0 199.5 22.5t103 64.5t73.5 134q14 10 36 6t30 -18q-10 -66 -38 -161t-48 -136q-135 6 -506 6h-233q-168 0 -308 -6q-13 6 -13 31zM242 1632q-1 4 -2 10q0 26 30 78q35 57 68 58q18 0 65 -33l330 -242q1 -4 1 -9q0 -11 -6 -26q-9 -20 -21 -22l-398 137 q-53 18 -67 49z" />
<glyph unicode="&#xc9;" horiz-adv-x="1187" d="M44 25q0 19 9 28l76 8q55 6 74.5 18.5t30 58.5t10.5 157v762q0 111 -10.5 157t-30 60t-74.5 20l-33 4q-10 10 -9 32t13 28q117 -6 265 -6h391q236 0 276 6q4 -18 15.5 -132t17.5 -153q-6 -12 -29.5 -15t-36.5 7q-25 90 -52 131t-77 55q-72 18 -163 19h-138 q-66 0 -77 -16.5t-11 -104.5v-346q0 -39 7.5 -47t41.5 -8h99q139 0 176 13t51 77l14 69q12 10 35 10.5t31 -12.5q-6 -166 -6 -205q0 -18 6 -215q-8 -10 -30.5 -11t-35.5 9l-14 82q-10 61 -49 75.5t-178 14.5h-99q-35 0 -42 -8t-7 -47v-260q0 -174 35 -213q20 -23 65.5 -33 t166.5 -12q129 0 199.5 22.5t103 64.5t73.5 134q14 10 36 6t30 -18q-10 -66 -38 -161t-48 -136q-135 6 -506 6h-233q-168 0 -308 -6q-13 6 -13 31zM516 1503l332 242q45 33 63 33q33 0 68 -58q30 -52 30 -78q0 -6 -1 -10q-14 -31 -68 -49l-397 -137q-12 2 -22 21 q-6 13 -6 26q0 5 1 10z" />
<glyph unicode="&#xca;" horiz-adv-x="1187" d="M44 25q0 19 9 28l76 8q55 6 74.5 18.5t30 58.5t10.5 157v762q0 111 -10.5 157t-30 60t-74.5 20l-33 4q-10 10 -9 32t13 28q117 -6 265 -6h391q236 0 276 6q4 -18 15.5 -132t17.5 -153q-6 -12 -29.5 -15t-36.5 7q-25 90 -52 131t-77 55q-72 18 -163 19h-138 q-66 0 -77 -16.5t-11 -104.5v-346q0 -39 7.5 -47t41.5 -8h99q139 0 176 13t51 77l14 69q12 10 35 10.5t31 -12.5q-6 -166 -6 -205q0 -18 6 -215q-8 -10 -30.5 -11t-35.5 9l-14 82q-10 61 -49 75.5t-178 14.5h-99q-35 0 -42 -8t-7 -47v-260q0 -174 35 -213q20 -23 65.5 -33 t166.5 -12q129 0 199.5 22.5t103 64.5t73.5 134q14 10 36 6t30 -18q-10 -66 -38 -161t-48 -136q-135 6 -506 6h-233q-168 0 -308 -6q-13 6 -13 31zM301 1499l281 260q25 23 48.5 23t47.5 -23l276 -260q0 -12 -10 -30.5t-20 -20.5l-258 133q-18 9 -36.5 9t-35.5 -9l-256 -133 q-12 0 -24.5 18.5t-12.5 32.5z" />
<glyph unicode="&#xcb;" horiz-adv-x="1187" d="M44 25q0 19 9 28l76 8q55 6 74.5 18.5t30 58.5t10.5 157v762q0 111 -10.5 157t-30 60t-74.5 20l-33 4q-10 10 -9 32t13 28q117 -6 265 -6h391q236 0 276 6q4 -18 15.5 -132t17.5 -153q-6 -12 -29.5 -15t-36.5 7q-25 90 -52 131t-77 55q-72 18 -163 19h-138 q-66 0 -77 -16.5t-11 -104.5v-346q0 -39 7.5 -47t41.5 -8h99q139 0 176 13t51 77l14 69q12 10 35 10.5t31 -12.5q-6 -166 -6 -205q0 -18 6 -215q-8 -10 -30.5 -11t-35.5 9l-14 82q-10 61 -49 75.5t-178 14.5h-99q-35 0 -42 -8t-7 -47v-260q0 -174 35 -213q20 -23 65.5 -33 t166.5 -12q129 0 199.5 22.5t103 64.5t73.5 134q14 10 36 6t30 -18q-10 -66 -38 -161t-48 -136q-135 6 -506 6h-233q-168 0 -308 -6q-13 6 -13 31zM332 1554q0 51 33.5 86t85.5 35q47 0 80.5 -33.5t33.5 -76.5q0 -53 -32.5 -87t-82 -34t-83 28.5t-35.5 81.5zM711 1554 q0 51 33.5 86t84.5 35q47 0 81 -32.5t34 -77.5q0 -55 -32.5 -88t-82.5 -33q-51 0 -83.5 28.5t-34.5 81.5z" />
<glyph unicode="&#xcc;" horiz-adv-x="724" d="M6 1632q-1 4 -1 10q0 26 30 78q35 57 67 58q18 0 66 -33l330 -242q4 -14 -5.5 -34.5t-21.5 -22.5l-397 137q-54 18 -68 49zM75 25q0 19 9 28l45 6q55 6 74.5 19.5t30 59.5t10.5 157v762q0 111 -10.5 157t-30 59t-74.5 19l-45 6q-9 9 -9 28v4q1 22 13 28q135 -6 277 -6 q137 0 272 6q12 -6 13 -28v-4q0 -19 -9 -28l-45 -6q-55 -6 -74.5 -19t-30 -59.5t-10.5 -156.5v-762q0 -111 10.5 -157t30 -59t74.5 -20l45 -6q9 -9 9 -28v-3q-1 -22 -13 -28q-135 6 -272 6q-141 0 -277 -6q-13 6 -13 31z" />
<glyph unicode="&#xcd;" horiz-adv-x="724" d="M75 25q0 19 9 28l45 6q55 6 74.5 19.5t30 59.5t10.5 157v762q0 111 -10.5 157t-30 59t-74.5 19l-45 6q-9 9 -9 28v4q1 22 13 28q135 -6 277 -6q137 0 272 6q12 -6 13 -27.5t-9 -32.5l-45 -6q-55 -6 -74.5 -19t-30 -59.5t-10.5 -156.5v-762q0 -111 10.5 -157t30 -59 t74.5 -20l45 -6q10 -10 9 -31.5t-13 -27.5q-135 6 -272 6q-141 0 -277 -6q-13 6 -13 31zM244 1503l331 242q45 33 64 33q33 0 68 -58q30 -52 30 -78q0 -6 -2 -10q-14 -31 -67 -49l-398 -137q-12 2 -21 21q-6 13 -7 26z" />
<glyph unicode="&#xce;" horiz-adv-x="724" d="M51 1499l281 260q25 23 48.5 23t47.5 -23l277 -260q0 -12 -10.5 -30.5t-20.5 -20.5l-258 133q-17 9 -36 9q-20 0 -40 -11l-252 -131q-12 0 -24.5 18.5t-12.5 32.5zM75 25q0 19 9 28l45 6q55 6 74.5 19.5t30 59.5t10.5 157v762q0 111 -10.5 157t-30 59t-74.5 19l-45 6 q-9 9 -9 28v4q1 22 13 28q135 -6 277 -6q137 0 272 6q12 -6 13 -28v-4q0 -19 -9 -28l-45 -6q-55 -6 -74.5 -19t-30 -59.5t-10.5 -156.5v-762q0 -111 10.5 -157t30 -59t74.5 -20l45 -6q9 -9 9 -28v-3q-1 -22 -13 -28q-135 6 -272 6q-141 0 -277 -6q-13 6 -13 31z" />
<glyph unicode="&#xcf;" horiz-adv-x="724" d="M75 25q0 19 9 28l45 6q55 6 74.5 19.5t30 59.5t10.5 157v762q0 111 -10.5 157t-30 59t-74.5 19l-45 6q-9 9 -9 28v4q1 22 13 28q135 -6 277 -6q137 0 272 6q12 -6 13 -27.5t-9 -32.5l-45 -6q-55 -6 -74.5 -19t-30 -59.5t-10.5 -156.5v-762q0 -111 10.5 -157t30 -59 t74.5 -20l45 -6q10 -10 9 -31.5t-13 -27.5q-135 6 -272 6q-141 0 -277 -6q-13 6 -13 31zM76 1554q0 51 33.5 86t85.5 35q47 0 80.5 -32.5t33.5 -77.5q0 -55 -32.5 -88t-81.5 -33q-51 0 -84 28.5t-35 81.5zM455 1554q0 51 33.5 86t84.5 35q49 0 82 -32.5t33 -77.5 q0 -55 -32.5 -88t-82 -33t-83 28.5t-35.5 81.5z" />
<glyph unicode="&#xd0;" horiz-adv-x="1617" d="M61 705.5q0 29.5 13 46.5h182v292q0 154 -14.5 191t-83.5 43l-43 4q-10 8 -10.5 28.5t12.5 28.5q221 18 512 19q289 0 483 -70q190 -70 305 -229.5t115 -382.5q0 -180 -92 -339t-275 -251q-195 -98 -508 -98q-68 0 -166 6t-131 6q-125 0 -260 -6q-12 6 -13 27.5t9 31.5 l45 6q55 6 75 19.5t30 59.5t10 157v364h-182q-13 17 -13 46.5zM494 1096v-344h284q12 -16 12.5 -46t-12.5 -47h-284v-284q0 -170 40.5 -237.5t190.5 -67.5q262 0 395 165.5t133 438.5q0 295 -155.5 448.5t-421.5 153.5q-133 0 -166 -29q-16 -14 -16 -151z" />
<glyph unicode="&#xd1;" horiz-adv-x="1597" d="M43 1358q59 -6 242 -6q68 0 141 6q23 -57 134.5 -195.5t195.5 -228.5l205 -221l104 -117l132 -145q52 -55 60 -62q6 6 7 49v400q0 338 -39 403q-25 41 -103 51l-47 6q-14 10 -12 33t16 27q121 -6 236 -6q104 0 215 6q12 -8 14 -29v-5q0 -16 -10 -26l-47 -10 q-74 -16 -88 -47q-29 -63 -29 -403v-490q0 -313 6 -360q-22 -29 -60 -29h-9q-45 57 -240 281l-479 546q-190 219 -234 258q-6 0 -6 -131v-399q0 -338 37 -403q25 -41 104 -52l46 -6q14 -10 12 -32.5t-17 -26.5q-113 6 -233 6q-104 0 -213 -6q-12 8 -14 28.5t10 30.5l45 10 q76 16 90 48q27 63 27 403v485q0 131 -9.5 170t-58.5 82q-29 25 -108 41l-31 6q-10 7 -10 23q0 32 18 37zM543 1401q6 37 32.5 102.5t51.5 93.5q51 55 141 56h117q82 0 123 30q31 18 53 66q4 2 11 2q6 0 13 -1q18 -3 25 -9q-14 -51 -42 -108.5t-48 -78.5q-45 -45 -115 -45 h-129q-96 0 -127 -36q-29 -18 -61 -84q-7 -1 -14 -1q-24 0 -31 13z" />
<glyph unicode="&#xd2;" horiz-adv-x="1622" d="M86 657q0 315 206 521t527 206q338 0 527.5 -207.5t189.5 -504.5q0 -303 -206 -504t-515 -201q-334 0 -531.5 201.5t-197.5 488.5zM365 717q0 -113 25.5 -224.5t77.5 -214t147.5 -166t220.5 -63.5q186 0 303.5 146.5t117.5 439.5q0 121 -27.5 235.5t-81.5 213t-146.5 159 t-208.5 60.5q-176 0 -302 -142.5t-126 -443.5zM444 1632q-1 4 -1 10q0 26 30 78q35 57 68 58q18 0 65 -33l330 -242q1 -4 1 -9q0 -11 -6 -26q-9 -20 -22 -22l-397 137q-54 18 -68 49z" />
<glyph unicode="&#xd3;" horiz-adv-x="1622" d="M86 657q0 315 206 521t527 206q338 0 527.5 -207.5t189.5 -504.5q0 -303 -206 -504t-515 -201q-334 0 -531.5 201.5t-197.5 488.5zM365 717q0 -113 25.5 -224.5t77.5 -214t147.5 -166t220.5 -63.5q186 0 303.5 146.5t117.5 439.5q0 121 -27.5 235.5t-81.5 213t-146.5 159 t-208.5 60.5q-176 0 -302 -142.5t-126 -443.5zM672 1503l332 242q45 33 63 33q33 0 68 -58q30 -52 30 -78q0 -6 -2 -10q-14 -31 -67 -49l-398 -137q-12 2 -21 21q-6 13 -7 26z" />
<glyph unicode="&#xd4;" horiz-adv-x="1622" d="M86 657q0 315 206 521t527 206q338 0 527.5 -207.5t189.5 -504.5q0 -303 -206 -504t-515 -201q-334 0 -531.5 201.5t-197.5 488.5zM365 717q0 -113 25.5 -224.5t77.5 -214t147.5 -166t220.5 -63.5q186 0 303.5 146.5t117.5 439.5q0 121 -27.5 235.5t-81.5 213t-146.5 159 t-208.5 60.5q-176 0 -302 -142.5t-126 -443.5zM508 1499l280 260q24 23 48 23t49 -23l276 -260q0 -12 -10 -30.5t-21 -20.5l-258 131q-18 9 -36 9t-35 -9l-256 -131q-12 0 -24.5 18.5t-12.5 32.5z" />
<glyph unicode="&#xd5;" horiz-adv-x="1622" d="M86 657q0 315 206 521t527 206q338 0 527.5 -207.5t189.5 -504.5q0 -303 -206 -504t-515 -201q-334 0 -531.5 201.5t-197.5 488.5zM365 717q0 -113 25.5 -224.5t77.5 -214t147.5 -166t220.5 -63.5q186 0 303.5 146.5t117.5 439.5q0 121 -27.5 235.5t-81.5 213t-146.5 159 t-208.5 60.5q-176 0 -302 -142.5t-126 -443.5zM555 1411q6 37 32.5 102.5t51.5 94.5q51 55 141 55h117q82 0 123 31q31 18 53 65q4 2 11 3q6 0 14 -2q18 -3 24 -9q-14 -51 -41.5 -108.5t-48.5 -77.5q-45 -45 -114 -45h-130q-96 0 -126 -37q-29 -18 -62 -84q-7 -1 -14 -1 q-24 0 -31 13z" />
<glyph unicode="&#xd6;" horiz-adv-x="1622" d="M86 657q0 315 206 521t527 206q338 0 527.5 -207.5t189.5 -504.5q0 -303 -206 -504t-515 -201q-334 0 -531.5 201.5t-197.5 488.5zM365 717q0 -113 25.5 -224.5t77.5 -214t147.5 -166t220.5 -63.5q186 0 303.5 146.5t117.5 439.5q0 121 -27.5 235.5t-81.5 213t-146.5 159 t-208.5 60.5q-176 0 -302 -142.5t-126 -443.5zM483 1554q0 51 34 86t85 35q49 0 82 -32.5t33 -77.5q0 -55 -33 -88t-82 -33t-83 28.5t-36 81.5zM944 1554q0 51 34 86t85 35q47 0 81 -32.5t34 -77.5q0 -55 -33 -88t-82 -33q-51 0 -84 28.5t-35 81.5z" />
<glyph unicode="&#xd7;" d="M143 125l279 281l-279 280l99 102l280 -280l283 285l98 -101l-280 -284l280 -283l-98 -102l-283 282l-280 -282z" />
<glyph unicode="&#xd8;" horiz-adv-x="1622" d="M86 657q0 315 206 521t527 206q219 0 385 -92l101 133q31 -6 51 -20t18 -37l-94 -127q125 -96 190.5 -245.5t65.5 -323.5q0 -303 -206 -504t-515 -201q-225 0 -397 101l-117 -158q-63 8 -70 59l111 150q-123 96 -189.5 237t-66.5 301zM365 717q0 -248 100 -432l635 866 q-125 152 -307 152q-176 0 -302 -142.5t-126 -443.5zM518 205q125 -156 318 -156q186 0 303.5 146.5t117.5 439.5q0 258 -104 436z" />
<glyph unicode="&#xd9;" horiz-adv-x="1523" d="M86 1358q123 -6 264 -6q139 0 275 6q12 -6 13 -26.5t-9 -31.5l-45 -6q-55 -6 -75 -20t-30 -60.5t-10 -156.5v-469q0 -520 371 -520q379 0 379 514v256q0 340 -39 403q-25 41 -103 53l-41 6q-14 10 -12 32t16 26q104 -6 228 -6q104 0 217 6q12 -8 14 -28v-5q0 -16 -10 -25 l-45 -10q-76 -16 -90 -49q-29 -61 -29 -403v-244q0 -328 -135 -473q-143 -154 -402 -154q-285 0 -421 131q-135 129 -136 439v520q0 111 -10 157t-29.5 58t-74.5 22l-35 6q-9 9 -9 28q0 23 13 30zM487 1632q-1 4 -1 10q0 26 30 78q35 57 68 58q18 0 65 -33l330 -242 q1 -4 1 -9q0 -11 -6 -26q-9 -20 -22 -22l-397 137q-54 18 -68 49z" />
<glyph unicode="&#xda;" horiz-adv-x="1523" d="M86 1358q123 -6 264 -6q139 0 275 6q12 -6 13 -26.5t-9 -31.5l-45 -6q-55 -6 -75 -20t-30 -60.5t-10 -156.5v-469q0 -520 371 -520q379 0 379 514v256q0 340 -39 403q-25 41 -103 53l-41 6q-14 10 -12 32t16 26q104 -6 228 -6q104 0 217 6q12 -8 14 -28v-5q0 -16 -10 -25 l-45 -10q-76 -16 -90 -49q-29 -61 -29 -403v-244q0 -328 -135 -473q-143 -154 -402 -154q-285 0 -421 131q-135 129 -136 439v520q0 111 -10 157t-29.5 58t-74.5 22l-35 6q-9 9 -9 28q0 23 13 30zM684 1503l332 242q45 33 63 33q33 0 68 -58q30 -52 30 -78q0 -6 -1 -10 q-14 -31 -68 -49l-397 -137q-12 2 -22 21q-6 13 -6 26q0 5 1 10z" />
<glyph unicode="&#xdb;" horiz-adv-x="1523" d="M86 1358q123 -6 264 -6q139 0 275 6q12 -6 13 -26.5t-9 -31.5l-45 -6q-55 -6 -75 -20t-30 -60.5t-10 -156.5v-469q0 -520 371 -520q379 0 379 514v256q0 340 -39 403q-25 41 -103 53l-41 6q-14 10 -12 32t16 26q104 -6 228 -6q104 0 217 6q12 -8 14 -28v-5q0 -16 -10 -25 l-45 -10q-76 -16 -90 -49q-29 -61 -29 -403v-244q0 -328 -135 -473q-143 -154 -402 -154q-285 0 -421 131q-135 129 -136 439v520q0 111 -10 157t-29.5 58t-74.5 22l-35 6q-9 9 -9 28q0 23 13 30zM494 1499l280 260q25 23 49 23t47 -23l277 -260q0 -12 -10.5 -30.5 t-20.5 -20.5l-258 141q-17 10 -35 10t-37 -10l-256 -141q-12 0 -24 18.5t-12 32.5z" />
<glyph unicode="&#xdc;" horiz-adv-x="1523" d="M86 1358q123 -6 264 -6q139 0 275 6q12 -6 13 -26.5t-9 -31.5l-45 -6q-55 -6 -75 -20t-30 -60.5t-10 -156.5v-469q0 -520 371 -520q379 0 379 514v256q0 340 -39 403q-25 41 -103 53l-41 6q-14 10 -12 32t16 26q104 -6 228 -6q104 0 217 6q12 -8 14 -28v-5q0 -16 -10 -25 l-45 -10q-76 -16 -90 -49q-29 -61 -29 -403v-244q0 -328 -135 -473q-143 -154 -402 -154q-285 0 -421 131q-135 129 -136 439v520q0 111 -10 157t-29.5 58t-74.5 22l-35 6q-9 9 -9 28q0 23 13 30zM492 1554q0 51 33.5 86t84.5 35q49 0 82 -32.5t33 -77.5q0 -55 -33 -88 t-82 -33t-82.5 28.5t-35.5 81.5zM911 1554q0 51 34 86t85 35q47 0 81 -32.5t34 -77.5q0 -55 -33 -88t-82 -33q-51 0 -84 28.5t-35 81.5z" />
<glyph unicode="&#xdd;" horiz-adv-x="1208" d="M-16 1358q131 -6 258 -6q193 0 262 6q12 -6 14 -27.5t-10 -32.5l-62 -10q-43 -8 -43 -26q0 -25 37 -107q152 -336 238 -491l240 452q55 111 55 137q0 25 -47 31l-62 14q-12 10 -10 31t16 29q135 -6 215 -6q96 0 195 6q14 -8 14 -27.5t-10 -32.5l-59 -12q-66 -12 -103 -53 t-121 -182q-57 -96 -194 -344q-47 -82 -61.5 -134.5t-14.5 -154.5v-123q0 -111 10.5 -157t31 -58t77.5 -19l78 -8q10 -10 9 -31.5t-13 -27.5q-190 6 -310 6q-131 0 -297 -6q-12 6 -13 27.5t9 31.5l66 8q55 6 74.5 19.5t30 58.5t10.5 156v121q0 84 -11.5 127t-54.5 127 l-246 485q-35 70 -61.5 93.5t-91.5 37.5l-54 12q-8 8 -7 23q0 32 16 37zM526 1503l332 242q45 33 64 33q33 0 67 -58q30 -52 30 -78q0 -6 -1 -10q-14 -31 -68 -49l-397 -137q-12 2 -22 21q-6 13 -6 26q0 5 1 10z" />
<glyph unicode="&#xde;" horiz-adv-x="1191" d="M88 1358q135 -6 277 -6q137 0 272 6q12 -6 13 -26.5t-9 -28.5l-45 -9q-76 -12 -95.5 -43.5t-19.5 -171.5h183q217 0 340.5 -97t123.5 -265q0 -172 -131 -266.5t-313 -94.5h-45q-8 8 -9 24.5t7 27.5q119 25 177 106.5t58 196.5q0 127 -69.5 206.5t-206.5 79.5 q-82 0 -98.5 -13t-16.5 -66v-623q0 -111 10.5 -156t30 -58t74.5 -20l70 -8q10 -10 9 -31.5t-13 -27.5q-172 6 -297 6q-141 0 -277 -6q-12 6 -13 28v3q0 19 9 28l45 6q55 6 74.5 19.5t30 59.5t10.5 157v762q0 156 -18.5 189.5t-96.5 47.5l-45 9q-9 7 -9 25q0 23 13 30z" />
<glyph unicode="&#xdf;" horiz-adv-x="1136" d="M48 25q0 19 9 28l31 4q61 8 76.5 43t15.5 144v411q0 43 -5 52.5t-32 9.5h-73q-12 6 -14.5 21.5t7.5 25.5l89 45q29 16 28 39q0 197 66 334q61 123 169.5 202.5t262.5 79.5q168 0 256 -84t88 -202q0 -37 -4 -62.5t-24 -53.5l-25 -36q-6 -8 -44 -41t-44 -39l-37 -35 q-74 -72 -74 -149q0 -35 23.5 -75t49 -65.5t70.5 -64.5q49 -43 79 -75.5t59.5 -90t29.5 -115.5q0 -147 -99 -226t-234 -79q-86 0 -134.5 28t-48.5 101q0 33 15.5 57.5t42.5 24.5q16 0 72.5 -64.5t105.5 -64.5q35 0 68.5 28t33.5 87q0 86 -141 201q-170 141 -170 276 q0 27 7 55.5t15.5 47t27.5 48.5l27 40q7 10 31.5 39.5t26.5 31.5q92 115 92 230q0 111 -54 178t-132 67q-109 0 -173.5 -147.5t-64.5 -388.5v-602q0 -106 16.5 -141t77.5 -46l25 -4q10 -10 9 -31.5t-13 -27.5q-76 6 -227 6q-92 0 -222 -6q-13 6 -13 31z" />
<glyph unicode="&#xe0;" horiz-adv-x="860" d="M66 170q0 63 35.5 109.5t134.5 80.5l225 82q47 16 47 54l2 53v22q0 173 -125 172q-96 0 -109 -90q-6 -53 -38 -73q-57 -37 -132 -37q-39 0 -38 32q0 55 79 132q51 47 146.5 88t169.5 41q254 0 254 -234v-22l-15 -320q-1 -16 0 -30q0 -150 99 -150q14 0 30.5 5t26.5 11 t12 6q8 0 16 -14q5 -9 4 -17q0 -5 -1 -10q-29 -41 -90.5 -65.5t-114.5 -24.5q-96 0 -147 58q-25 25 -33 24.5t-55 -28.5q-84 -53 -175 -54q-98 0 -153 58.5t-55 140.5zM180 1294q0 29 49 64q53 27 74 26q35 0 62 -65l147 -377q-7 -28 -38 -28q-6 0 -13 1l-236 299 q-45 55 -45 80zM285 203q0 -45 30.5 -82t83.5 -37q94 0 99 98l4 148q0 35 -17 35q-27 0 -90 -25q-53 -18 -81.5 -48t-28.5 -89z" />
<glyph unicode="&#xe1;" horiz-adv-x="860" d="M66 170q0 63 35.5 109.5t134.5 80.5l225 82q47 16 47 54l2 53v22q0 173 -125 172q-96 0 -109 -90q-6 -53 -38 -73q-57 -37 -132 -37q-39 0 -38 32q0 55 79 132q51 47 146.5 88t169.5 41q254 0 254 -234v-22l-15 -320q-1 -16 0 -30q0 -150 99 -150q14 0 30.5 5t26.5 11 t12 6q8 0 16 -14q5 -9 4 -17q0 -5 -1 -10q-29 -41 -90.5 -65.5t-114.5 -24.5q-96 0 -147 58q-25 25 -33 24.5t-55 -28.5q-84 -53 -175 -54q-98 0 -153 58.5t-55 140.5zM285 203q0 -45 30.5 -82t83.5 -37q94 0 99 98l4 148q0 35 -17 35q-27 0 -90 -25q-53 -18 -81.5 -48 t-28.5 -89zM350 932l174 373q31 63 64 63q23 0 76 -33q49 -35 49 -65q0 -27 -51 -74l-263 -293h-9q-35 0 -40 29z" />
<glyph unicode="&#xe2;" horiz-adv-x="860" d="M66 170q0 63 35.5 109.5t134.5 80.5l225 82q47 16 47 54l2 53v22q0 173 -125 172q-96 0 -109 -90q-6 -53 -38 -73q-57 -37 -132 -37q-39 0 -38 32q0 55 79 132q51 47 146.5 88t169.5 41q254 0 254 -234v-22l-15 -320q-1 -16 0 -30q0 -150 99 -150q14 0 30.5 5t26.5 11 t12 6q8 0 16 -14q5 -9 4 -17q0 -5 -1 -10q-29 -41 -90.5 -65.5t-114.5 -24.5q-96 0 -147 58q-25 25 -33 24.5t-55 -28.5q-84 -53 -175 -54q-98 0 -153 58.5t-55 140.5zM172 938l211 422q16 27 45 26q31 0 43 -26l205 -410q-4 -37 -51 -37l-152 189q-37 47 -49 47l-53 -59 l-152 -181q-39 -4 -47 29zM285 203q0 -45 30.5 -82t83.5 -37q94 0 99 98l4 148q0 35 -17 35q-27 0 -90 -25q-53 -18 -81.5 -48t-28.5 -89z" />
<glyph unicode="&#xe3;" horiz-adv-x="860" d="M66 170q0 63 35.5 109.5t134.5 80.5l225 82q47 16 47 54l2 53v22q0 173 -125 172q-96 0 -109 -90q-6 -53 -38 -73q-57 -37 -132 -37q-39 0 -38 32q0 55 79 132q51 47 146.5 88t169.5 41q254 0 254 -234v-22l-15 -320q-1 -16 0 -30q0 -150 99 -150q14 0 30.5 5t26.5 11 t12 6q8 0 16 -14q5 -9 4 -17q0 -5 -1 -10q-29 -41 -90.5 -65.5t-114.5 -24.5q-96 0 -147 58q-25 25 -33 24.5t-55 -28.5q-84 -53 -175 -54q-98 0 -153 58.5t-55 140.5zM162 932q8 37 33.5 99.5t50.5 90.5q49 53 133 54h113q84 0 118 26q33 25 49 64q5 3 15 2h10q16 -2 23 -8 q-10 -47 -37 -102.5t-49 -78.5q-41 -41 -109 -41h-125q-84 0 -121 -37q-25 -18 -61 -81q-35 -4 -43 12zM285 203q0 -45 30.5 -82t83.5 -37q94 0 99 98l4 148q0 35 -17 35q-27 0 -90 -25q-53 -18 -81.5 -48t-28.5 -89z" />
<glyph unicode="&#xe4;" horiz-adv-x="860" d="M66 170q0 63 35.5 109.5t134.5 80.5l225 82q47 16 47 54l2 53v22q0 173 -125 172q-96 0 -109 -90q-6 -53 -38 -73q-57 -37 -132 -37q-39 0 -38 32q0 55 79 132q51 47 146.5 88t169.5 41q254 0 254 -234v-22l-15 -320q-1 -16 0 -30q0 -150 99 -150q14 0 30.5 5t26.5 11 t12 6q8 0 16 -14q5 -9 4 -17q0 -5 -1 -10q-29 -41 -90.5 -65.5t-114.5 -24.5q-96 0 -147 58q-25 25 -33 24.5t-55 -28.5q-84 -53 -175 -54q-98 0 -153 58.5t-55 140.5zM121 1108q0 53 34.5 89t88.5 36q47 0 80.5 -35t33.5 -80q0 -55 -32.5 -90t-81.5 -35q-53 0 -87 30 t-36 85zM285 203q0 -45 30.5 -82t83.5 -37q94 0 99 98l4 148q0 35 -17 35q-27 0 -90 -25q-53 -18 -81.5 -48t-28.5 -89zM479 1114q0 49 33 83q35 36 86 36t84 -35t33 -80q0 -57 -32 -91t-85 -34t-85 30q-34 32 -34 91z" />
<glyph unicode="&#xe5;" horiz-adv-x="860" d="M66 170q0 63 35.5 109.5t134.5 80.5l225 82q47 16 47 54l2 53v22q0 173 -125 172q-96 0 -109 -90q-6 -53 -38 -73q-57 -37 -132 -37q-39 0 -38 32q0 55 79 132q51 47 146.5 88t169.5 41q254 0 254 -234v-22l-15 -320q-1 -16 0 -30q0 -150 99 -150q14 0 30.5 5t26.5 11 t12 6q8 0 16 -14q5 -9 4 -17q0 -5 -1 -10q-29 -41 -90.5 -65.5t-114.5 -24.5q-96 0 -147 58q-25 25 -33 24.5t-55 -28.5q-84 -53 -175 -54q-98 0 -153 58.5t-55 140.5zM240 1139q0 76 53 133t137 57t137.5 -57.5t53.5 -132.5q0 -78 -53.5 -136.5t-137.5 -58.5t-137 58.5 t-53 136.5zM285 203q0 -45 30.5 -82t83.5 -37q94 0 99 98l4 148q0 35 -17 35q-27 0 -90 -25q-53 -18 -81.5 -48t-28.5 -89zM340 1139q0 -55 23.5 -90t66.5 -35t66.5 34.5t23.5 90.5q0 53 -24.5 87t-65.5 34t-65.5 -34t-24.5 -87z" />
<glyph unicode="&#xe6;" horiz-adv-x="1259" d="M66 164q0 135 167 192l234 80q25 8 32 16.5t7 26.5v70q0 195 -129 194q-43 0 -74 -22.5t-39 -61.5q-10 -59 -33 -75q-55 -41 -131 -41q-33 0 -32 30q0 57 79 134q47 47 144.5 88t175.5 41q160 0 205 -97q125 96 278 97q127 0 204 -70t77 -160q0 -25 -12.5 -37t-49.5 -22 l-426 -125q-41 -12 -41 -31v-20q0 -111 82 -186.5t189 -75.5q143 0 221 106q16 4 28.5 -5t12.5 -24q-96 -215 -346 -215q-199 0 -301 140l-70 -48q-137 -92 -244 -92q-102 0 -155 57.5t-53 135.5zM281 207q0 -47 30.5 -84t87.5 -37q39 0 73 23.5t34 64.5v150q0 37 -17 36 q-20 0 -94 -26q-57 -20 -85.5 -47t-28.5 -80zM702 512q0 -10 17 -10q13 0 35 6l219 65q68 20 67 48q0 47 -38.5 90t-100.5 43q-86 0 -142.5 -71t-56.5 -159v-12z" />
<glyph unicode="&#xe7;" horiz-adv-x="823" d="M63 377q0 190 134.5 324.5t369.5 134.5q96 0 176 -29q41 -37 41 -105q0 -43 -17 -69.5t-34 -26.5q-20 0 -39 23q-94 125 -186 125q-94 0 -166 -85t-72 -223q0 -131 80 -227t213 -96q90 0 137.5 27.5t83.5 80.5q14 2 27.5 -8t15.5 -28q-70 -160 -239 -205l-62 -82 q-8 -10 -8 -16.5t5 -10.5t20 -12q106 -57 106 -145q0 -72 -64.5 -118t-152.5 -46q-129 0 -129 78q0 25 15.5 41t39.5 16q23 0 60 -33t53 -33t31.5 16.5t15.5 43.5q0 68 -131 123l-6 12l113 149q-10 -2 -27 -2q-170 0 -285 111q-119 115 -119 295z" />
<glyph unicode="&#xe8;" horiz-adv-x="837" d="M63 381q0 184 118 319.5t315 135.5q123 0 215 -75t92 -202q0 -27 -10 -47q-18 -27 -142 -27h-354q-29 0 -36 -4t-7 -22q0 -139 87 -235.5t222 -96.5q133 0 197 102q14 4 28.5 -7t16.5 -25q-49 -115 -145.5 -170.5t-200.5 -55.5q-176 0 -286 116t-110 294zM209 1296 q0 29 51 62q47 29 72 28q37 0 63 -67l148 -375q-7 -30 -39 -29h-12l-236 302q-47 61 -47 79zM270 582q0 -14 29 -15h186q76 0 101 15q20 14 20 43q0 57 -35.5 95t-99.5 38q-90 0 -145.5 -64.5t-55.5 -111.5z" />
<glyph unicode="&#xe9;" horiz-adv-x="837" d="M63 381q0 184 118 319.5t315 135.5q123 0 215 -75t92 -202q0 -27 -10 -47q-18 -27 -142 -27h-354q-29 0 -36 -4t-7 -22q0 -139 87 -235.5t222 -96.5q133 0 197 102q14 4 28.5 -7t16.5 -25q-49 -115 -145.5 -170.5t-200.5 -55.5q-176 0 -286 116t-110 294zM270 582 q0 -14 29 -15h186q76 0 101 15q20 14 20 43q0 57 -35.5 95t-99.5 38q-90 0 -145.5 -64.5t-55.5 -111.5zM397 944l174 371q31 66 64 65q27 0 78 -32q47 -33 47 -66q0 -18 -49 -76l-265 -293h-8q-36 0 -41 31z" />
<glyph unicode="&#xea;" horiz-adv-x="837" d="M63 381q0 184 118 319.5t315 135.5q123 0 215 -75t92 -202q0 -27 -10 -47q-18 -27 -142 -27h-354q-29 0 -36 -4t-7 -22q0 -139 87 -235.5t222 -96.5q133 0 197 102q14 4 28.5 -7t16.5 -25q-49 -115 -145.5 -170.5t-200.5 -55.5q-176 0 -286 116t-110 294zM221 928 l203 401q14 27 43 27q23 0 41 -27l194 -391q-4 -35 -49 -35l-143 178q-37 45 -47 45q-8 0 -53 -55l-144 -172q-39 -4 -45 29zM270 582q0 -14 29 -15h186q76 0 101 15q20 14 20 43q0 57 -35.5 95t-99.5 38q-90 0 -145.5 -64.5t-55.5 -111.5z" />
<glyph unicode="&#xeb;" horiz-adv-x="837" d="M63 381q0 184 118 319.5t315 135.5q123 0 215 -75t92 -202q0 -27 -10 -47q-18 -27 -142 -27h-354q-29 0 -36 -4t-7 -22q0 -139 87 -235.5t222 -96.5q133 0 197 102q14 4 28.5 -7t16.5 -25q-49 -115 -145.5 -170.5t-200.5 -55.5q-176 0 -286 116t-110 294zM162 1108 q0 53 34.5 89t88.5 36q47 0 80.5 -35t33.5 -80q0 -55 -32.5 -90t-81.5 -35q-53 0 -87 30t-36 85zM270 582q0 -14 29 -15h186q76 0 101 15q20 14 20 43q0 57 -35.5 95t-99.5 38q-90 0 -145.5 -64.5t-55.5 -111.5zM528 1114q0 49 33 83q35 36 86 36t84 -35t33 -80 q0 -57 -32 -91t-85 -34t-85 30q-34 32 -34 91z" />
<glyph unicode="&#xec;" horiz-adv-x="548" d="M12 1307q0 29 51 61q47 29 72 29q37 0 64 -68l147 -375q-7 -30 -39 -29q-6 0 -12 1l-236 301q-47 62 -47 80zM56 25q0 19 10 28l36 6q51 8 64.5 39t13.5 146v301q0 76 -7 100.5t-44 46.5l-25 15q-4 6 -4 22t6 25q160 47 267 110q20 -4 28 -16q-6 -102 -6 -250v-354 q0 -115 13.5 -145.5t64.5 -39.5l37 -6q9 -9 9 -28v-3q-1 -22 -13 -28q-113 6 -221 6q-98 0 -215 -6q-14 6 -14 31z" />
<glyph unicode="&#xed;" horiz-adv-x="548" d="M56 25q0 19 10 28l36 6q51 8 64.5 39t13.5 146v301q0 76 -7 100.5t-44 46.5l-25 15q-4 6 -4 22t6 25q160 47 267 110q20 -4 28 -16q-6 -102 -6 -250v-354q0 -115 13.5 -145.5t64.5 -39.5l37 -6q10 -10 9 -31.5t-13 -27.5q-113 6 -221 6q-98 0 -215 -6q-14 6 -14 31z M195 944l174 371q31 66 63 65q27 0 78 -32q47 -33 47 -66q0 -18 -49 -76l-264 -293h-9q-35 0 -40 31z" />
<glyph unicode="&#xee;" horiz-adv-x="548" d="M43 934l203 401q14 27 43 27q23 0 41 -27l194 -391q-4 -35 -49 -35l-143 170q-37 45 -47 45q-8 0 -54 -55l-143 -164q-39 -4 -45 29zM56 25q0 19 10 28l36 6q51 8 64.5 39t13.5 146v301q0 76 -7 100.5t-44 46.5l-25 15q-4 6 -4 22t6 25q160 47 267 110q20 -4 28 -16 q-6 -102 -6 -250v-354q0 -115 13.5 -145.5t64.5 -39.5l37 -6q9 -9 9 -28v-3q-1 -22 -13 -28q-113 6 -221 6q-98 0 -215 -6q-14 6 -14 31z" />
<glyph unicode="&#xef;" horiz-adv-x="548" d="M-10 1108q0 53 34.5 89t88.5 36q47 0 80.5 -35t33.5 -80q0 -55 -32.5 -90t-81.5 -35q-53 0 -87 30t-36 85zM56 25q0 19 10 28l36 6q51 8 64.5 39t13.5 146v301q0 76 -7 100.5t-44 46.5l-25 15q-4 6 -4 22t6 25q160 47 267 110q20 -4 28 -16q-6 -102 -6 -250v-354 q0 -115 13.5 -145.5t64.5 -39.5l37 -6q10 -10 9 -31.5t-13 -27.5q-113 6 -221 6q-98 0 -215 -6q-14 6 -14 31zM348 1114q0 49 33 83q35 36 86 36t84 -35t33 -80q0 -57 -32 -91t-85 -34t-85 30q-34 32 -34 91z" />
<glyph unicode="&#xf0;" horiz-adv-x="1003" d="M63 389q0 188 133.5 317.5t323.5 129.5q86 0 156 -29q-31 168 -127 305l-287 -135q-18 6 -30.5 30.5t-6.5 43.5l275 131q-76 94 -189 159q-100 59 -190 68q-8 8 -6 28.5t12 26.5q162 -4 301 -61q127 -51 223 -148l248 121q18 -8 31.5 -32.5t7.5 -45.5l-225 -108 q113 -133 170 -304t57 -317q0 -598 -467 -598q-176 0 -293 112.5t-117 305.5zM305 418q0 -147 53.5 -256t145.5 -109q102 0 151.5 92.5t49.5 294.5q0 174 -33 236q-41 78 -137 78q-98 0 -164 -93t-66 -243z" />
<glyph unicode="&#xf1;" horiz-adv-x="1091" d="M48 25q0 19 9 28l45 6q51 8 64.5 39t13.5 146v301q0 76 -7 100.5t-44 46.5l-25 15q-4 6 -4 22t6 25q137 39 267 110q18 0 26 -16q-4 -39 -4 -94q0 -16 19 -21q16 8 52 29.5t53.5 30t48 21.5t60 17.5t66.5 4.5q121 0 182.5 -75t61.5 -200v-317q0 -115 13.5 -146.5 t64.5 -38.5l47 -6q9 -9 9 -28v-3q-1 -22 -13 -28q-129 6 -231.5 6t-209.5 -6q-12 6 -13 27.5t9 31.5l31 4q51 8 64.5 40t13.5 147v282q0 186 -164 187q-92 0 -135 -64q-18 -27 -23.5 -49t-5.5 -82v-274q0 -115 13.5 -146.5t64.5 -40.5l31 -4q10 -10 9 -31.5t-13 -27.5 q-106 6 -217 6q-92 0 -222 -6q-13 6 -13 31zM289 942q8 37 33.5 98.5t48.5 87.5q51 55 133 56h110q84 0 119 26q33 20 49 62q5 3 15 3q5 0 10 -1q16 -2 22 -8q-12 -47 -37.5 -102.5t-46.5 -76.5q-41 -41 -110 -40h-123q-82 0 -121 -35q-33 -25 -59 -84q-6 -1 -12 -1 q-24 0 -31 15z" />
<glyph unicode="&#xf2;" horiz-adv-x="1007" d="M63 389q0 201 131.5 324t317.5 123q180 0 306 -115t126 -307q0 -209 -128 -326t-320 -117q-184 0 -308.5 111.5t-124.5 306.5zM242 1296q0 29 51 62q47 29 72 28q37 0 63 -67l147 -375q-7 -30 -39 -29h-12l-235 302q-47 61 -47 79zM305 420q0 -152 55.5 -259.5 t159.5 -107.5q96 0 139 94.5t43 231.5q0 147 -53 261t-157 114q-82 0 -134.5 -85t-52.5 -249z" />
<glyph unicode="&#xf3;" horiz-adv-x="1007" d="M63 389q0 201 131.5 324t317.5 123q180 0 306 -115t126 -307q0 -209 -128 -326t-320 -117q-184 0 -308.5 111.5t-124.5 306.5zM305 420q0 -152 55.5 -259.5t159.5 -107.5q96 0 139 94.5t43 231.5q0 147 -53 261t-157 114q-82 0 -134.5 -85t-52.5 -249zM424 944l174 371 q31 66 64 65q27 0 77 -32q47 -33 47 -66q0 -18 -49 -76l-264 -293h-9q-35 0 -40 31z" />
<glyph unicode="&#xf4;" horiz-adv-x="1007" d="M63 389q0 201 131.5 324t317.5 123q180 0 306 -115t126 -307q0 -209 -128 -326t-320 -117q-184 0 -308.5 111.5t-124.5 306.5zM264 930l203 401q14 27 43 27q23 0 41 -27l194 -391q-4 -35 -49 -35l-143 168q-37 45 -47 45q-2 0 -53 -55l-144 -162q-39 -4 -45 29zM305 420 q0 -152 55.5 -259.5t159.5 -107.5q96 0 139 94.5t43 231.5q0 147 -53 261t-157 114q-82 0 -134.5 -85t-52.5 -249z" />
<glyph unicode="&#xf5;" horiz-adv-x="1007" d="M63 389q0 201 131.5 324t317.5 123q180 0 306 -115t126 -307q0 -209 -128 -326t-320 -117q-184 0 -308.5 111.5t-124.5 306.5zM236 932q8 37 33.5 99.5t49.5 90.5q49 53 134 54h112q84 0 119 26q33 25 49 64q5 3 15 2h10q16 -2 22 -8q-10 -47 -36.5 -102.5t-49.5 -78.5 q-41 -41 -108 -41h-125q-84 0 -121 -37q-25 -18 -61 -81q-35 -4 -43 12zM305 420q0 -152 55.5 -259.5t159.5 -107.5q96 0 139 94.5t43 231.5q0 147 -53 261t-157 114q-82 0 -134.5 -85t-52.5 -249z" />
<glyph unicode="&#xf6;" horiz-adv-x="1007" d="M63 389q0 201 131.5 324t317.5 123q180 0 306 -115t126 -307q0 -209 -128 -326t-320 -117q-184 0 -308.5 111.5t-124.5 306.5zM203 1108q0 53 34.5 89t88.5 36q47 0 80.5 -35t33.5 -80q0 -55 -32.5 -90t-81.5 -35q-53 0 -87 30t-36 85zM305 420q0 -152 55.5 -259.5 t159.5 -107.5q96 0 139 94.5t43 231.5q0 147 -53 261t-157 114q-82 0 -134.5 -85t-52.5 -249zM582 1114q0 49 32 83q35 36 86.5 36t84 -35t32.5 -80q0 -57 -31.5 -91t-85 -34t-85.5 30q-33 32 -33 91z" />
<glyph unicode="&#xf7;" d="M129 356v129h788v-129h-788zM408 692q0 43 32.5 75t77.5 32q43 0 75 -33t32 -74q0 -45 -32 -77.5t-75 -32.5q-47 0 -78.5 32.5t-31.5 77.5zM408 154q0 43 32.5 74.5t77.5 31.5q43 0 75 -32.5t32 -73.5q0 -45 -32 -78t-75 -33q-47 0 -78.5 32t-31.5 79z" />
<glyph unicode="&#xf8;" horiz-adv-x="1015" d="M63 389q0 201 132.5 324t320.5 123q121 0 213 -50l64 93q5 1 9 1l32 -12q20 -14 22 -32l-61 -91q158 -117 157 -327q0 -213 -128 -330t-322 -117q-119 0 -213 47l-76 -108q-4 -1 -7 -1q-15 0 -32 14q-20 17 -18 36l67 98q-160 111 -160 332zM297 420q0 -117 33 -209 l317 457q-55 86 -149 86q-92 0 -146.5 -84t-54.5 -250zM371 135q55 -82 151 -82q106 0 151.5 93.5t45.5 232.5q0 119 -33 209z" />
<glyph unicode="&#xf9;" horiz-adv-x="1064" d="M70 799q193 4 284 37q18 -4 21 -19q-6 -37 -6 -174v-315q0 -109 34.5 -171.5t133.5 -62.5q80 0 135 51q25 25 24 115v309q0 94 -14 120t-76 44l-33 10q-10 8 -10 29t12 27q256 4 322 37q18 -4 21 -19q-6 -59 -7 -174v-342q0 -109 9.5 -163t42.5 -54q37 0 88 14 q13 -6 13 -28v-3q-1 -26 -20 -38q-223 -25 -335 -78q-14 2 -19 20q7 41 7 65q0 6 -1 11q-2 23 -20 23q-166 -98 -279 -99q-133 0 -188 69t-55 204v319q0 106 -10.5 135t-49.5 39l-28 8q-9 7 -10 26q1 24 14 28zM270 1298q0 29 52 62q47 29 71 29q37 0 64 -68l147 -375 q-7 -30 -39 -29h-12l-236 302q-47 61 -47 79z" />
<glyph unicode="&#xfa;" horiz-adv-x="1064" d="M70 799q193 4 284 37q18 -4 21 -19q-6 -37 -6 -174v-315q0 -109 34.5 -171.5t133.5 -62.5q80 0 135 51q25 25 24 115v309q0 94 -14 120t-76 44l-33 10q-10 8 -10 29t12 27q256 4 322 37q18 -4 21 -19q-6 -59 -7 -174v-342q0 -109 9.5 -163t42.5 -54q37 0 88 14 q13 -6 13 -28v-3q-1 -26 -20 -38q-223 -25 -335 -78q-14 2 -19 20q7 41 7 65q0 6 -1 11q-2 23 -20 23q-166 -98 -279 -99q-133 0 -188 69t-55 204v319q0 106 -10.5 135t-49.5 39l-28 8q-9 7 -10 26q1 24 14 28zM442 946l174 371q31 66 64 65q27 0 78 -32q47 -33 47 -66 q0 -18 -49 -76l-264 -293h-9q-36 0 -41 31z" />
<glyph unicode="&#xfb;" horiz-adv-x="1064" d="M70 799q193 4 284 37q18 -4 21 -19q-6 -37 -6 -174v-315q0 -109 34.5 -171.5t133.5 -62.5q80 0 135 51q25 25 24 115v309q0 94 -14 120t-76 44l-33 10q-10 8 -10 29t12 27q256 4 322 37q18 -4 21 -19q-6 -59 -7 -174v-342q0 -109 9.5 -163t42.5 -54q37 0 88 14 q13 -6 13 -28v-3q-1 -26 -20 -38q-223 -25 -335 -78q-14 2 -19 20q7 41 7 65q0 6 -1 11q-2 23 -20 23q-166 -98 -279 -99q-133 0 -188 69t-55 204v319q0 106 -10.5 135t-49.5 39l-28 8q-9 7 -10 26q1 24 14 28zM283 928l202 401q14 27 43 27q23 0 41 -27l195 -391 q-4 -35 -49 -35l-144 178q-37 45 -47 45q-8 0 -53 -55l-143 -172h-9q-31 0 -36 29z" />
<glyph unicode="&#xfc;" horiz-adv-x="1064" d="M70 799q193 4 284 37q18 -4 21 -19q-6 -37 -6 -174v-315q0 -109 34.5 -171.5t133.5 -62.5q80 0 135 51q25 25 24 115v309q0 94 -14 120t-76 44l-33 10q-10 8 -10 29t12 27q256 4 322 37q18 -4 21 -19q-6 -59 -7 -174v-342q0 -109 9.5 -163t42.5 -54q37 0 88 14 q13 -6 13 -28v-3q-1 -26 -20 -38q-223 -25 -335 -78q-14 2 -19 20q7 41 7 65q0 6 -1 11q-2 23 -20 23q-166 -98 -279 -99q-133 0 -188 69t-55 204v319q0 106 -10.5 135t-49.5 39l-28 8q-9 7 -10 26q1 24 14 28zM223 1108q0 53 35 89t88 36q47 0 81 -35t34 -80q0 -55 -33 -90 t-82 -35q-53 0 -87 30t-36 85zM590 1114q0 49 33 83q35 36 86 36t83.5 -35t32.5 -80q0 -57 -31.5 -91t-85 -34t-84.5 30q-34 32 -34 91z" />
<glyph unicode="&#xfd;" horiz-adv-x="917" d="M-6 813q100 -6 227 -6q113 0 217 6q12 -6 13.5 -27.5t-9.5 -31.5l-61 -13q-35 -8 -38 -24v-4q0 -19 24 -80l90 -236q57 -152 69 -155q10 2 66 127l61 137q74 166 74 199q0 27 -39 34l-70 15q-10 12 -9 31.5t14 27.5q111 -6 194 -6q80 0 164 6q14 -4 16 -27q0 -3 1 -6 q0 -18 -11 -26q-96 -25 -117 -45q-43 -43 -125 -207l-104 -209q-252 -504 -338 -692q-49 -111 -156 -111q-55 0 -83.5 30.5t-28.5 78.5q0 88 104 92l45 2q59 4 86 41q100 143 101 256q0 63 -35 151l-166 430q-39 100 -62.5 131t-78.5 43l-41 9q-11 11 -12 29q1 23 18 30z M410 954l174 371q31 66 63 66q27 0 78 -33q47 -33 47 -66q0 -18 -49 -76l-264 -292q-5 0 -9 -1q-35 0 -40 31z" />
<glyph unicode="&#xfe;" horiz-adv-x="1069" d="M23 -497q0 19 10 28l53 6q51 6 64.5 38t13.5 146v1360q0 104 -7 131t-46 52l-23 14q-10 6 -10 24.5t10 22.5q63 18 268 98q3 1 7 1q15 0 22 -17q-6 -123 -6 -297v-336q0 -23 16 -26l26 13l45 22l55.5 24.5t66.5 21t65 7.5q162 0 257.5 -107.5t95.5 -271.5 q0 -215 -139.5 -350.5t-364.5 -135.5q-55 0 -92 9q-31 -6 -31 -58v-201q0 -115 13.5 -145.5t66.5 -36.5l73 -8q10 -10 9.5 -31.5t-13.5 -27.5q-160 6 -262 6q-106 0 -229 -6q-14 6 -14 31zM379 223q0 -78 63 -131q49 -39 113 -39q104 0 161.5 94.5t57.5 241.5 q0 145 -71.5 236.5t-190.5 91.5q-70 0 -111 -41q-23 -25 -22 -139v-314z" />
<glyph unicode="&#xff;" horiz-adv-x="917" d="M-6 813q100 -6 227 -6q113 0 217 6q12 -6 13.5 -27.5t-9.5 -31.5l-61 -13q-35 -8 -38 -24v-4q0 -19 24 -80l90 -236q57 -152 69 -155q10 2 66 127l61 137q74 166 74 199q0 27 -39 34l-70 15q-10 12 -9 31.5t14 27.5q111 -6 194 -6q80 0 164 6q14 -4 16 -27q0 -3 1 -6 q0 -18 -11 -26q-96 -25 -117 -45q-43 -43 -125 -207l-104 -209q-252 -504 -338 -692q-49 -111 -156 -111q-55 0 -83.5 30.5t-28.5 78.5q0 88 104 92l45 2q59 4 86 41q100 143 101 256q0 63 -35 151l-166 430q-39 100 -62.5 131t-78.5 43l-41 9q-11 11 -12 29q1 23 18 30z M205 1108q0 53 34.5 89t88.5 36q47 0 80.5 -35t33.5 -80q0 -55 -32.5 -90t-81.5 -35q-53 0 -87 30t-36 85zM573 1114q0 49 33 83q35 36 86 36t84 -35t33 -80q0 -57 -32 -91t-85 -34t-85 30q-34 32 -34 91z" />
<glyph unicode="&#x152;" horiz-adv-x="2080" d="M86 657q0 301 223 501t621 200q45 0 160.5 -3t179.5 -3h379q236 0 276 6q4 -18 15.5 -132t17.5 -153q-6 -12 -29.5 -15t-36.5 7q-25 90 -52.5 131t-76.5 55q-72 18 -164 19h-137q-66 0 -77 -16.5t-11 -104.5v-348q0 -39 7.5 -46t41.5 -7h99q139 0 176 13t51 77l14 69 q12 10 35 10.5t31 -12.5q-6 -166 -6 -205q0 -18 6 -215q-8 -10 -30.5 -11t-35.5 9l-14 82q-10 61 -49 75.5t-178 14.5h-99q-35 0 -42 -8t-7 -47v-260q0 -174 35 -213q20 -23 65.5 -33t165.5 -12q129 0 200 22.5t103.5 64.5t73.5 134q14 10 36 6t30 -18q-10 -66 -38 -161 t-48 -136q-135 6 -506 6h-213q-84 0 -202 -6t-165 -6q-397 0 -611 185t-214 484zM365 678q0 -256 138 -432t390 -176q111 0 182 39q61 35 62 112v897q0 86 -39 123t-170 37q-281 0 -422 -168t-141 -432z" />
<glyph unicode="&#x153;" horiz-adv-x="1495" d="M63 389q0 201 132.5 324t320.5 123q203 0 307 -148q53 66 138.5 107t179.5 41q129 0 223 -74t94 -203q0 -27 -10 -47q-18 -27 -141 -27h-357q-29 0 -36 -4t-7 -22q0 -147 86 -239.5t232 -92.5q131 0 194 102q14 4 28.5 -7t16.5 -25q-49 -115 -144 -170.5t-198 -55.5 q-195 0 -313 144q-104 -143 -320 -144q-180 0 -303 111.5t-123 306.5zM305 420q0 -154 55.5 -260.5t161.5 -106.5q100 0 144.5 94.5t44.5 231.5q0 150 -53.5 262.5t-159.5 112.5q-86 0 -139.5 -85t-53.5 -249zM926 582q0 -14 28 -15h156q111 0 135 15q20 10 21 36 q0 59 -37 99.5t-103 40.5q-90 0 -145 -64.5t-55 -111.5z" />
<glyph unicode="&#x178;" horiz-adv-x="1208" d="M-16 1358q131 -6 258 -6q193 0 262 6q12 -6 14 -27.5t-10 -32.5l-62 -10q-43 -8 -43 -26q0 -25 37 -107q152 -336 238 -491l240 452q55 111 55 137q0 25 -47 31l-62 14q-12 10 -10 31t16 29q135 -6 215 -6q96 0 195 6q14 -8 14 -27.5t-10 -32.5l-59 -12q-66 -12 -103 -53 t-121 -182q-57 -96 -194 -344q-47 -82 -61.5 -134.5t-14.5 -154.5v-123q0 -111 10.5 -157t31 -58t77.5 -19l78 -8q10 -10 9 -31.5t-13 -27.5q-190 6 -310 6q-131 0 -297 -6q-12 6 -13 27.5t9 31.5l66 8q55 6 74.5 19.5t30 58.5t10.5 156v121q0 84 -11.5 127t-54.5 127 l-246 485q-35 70 -61.5 93.5t-91.5 37.5l-54 12q-8 8 -7 23q0 32 16 37zM358 1554q0 51 34 86t85 35q47 0 81 -32.5t34 -77.5q0 -55 -33 -88t-82 -33q-51 0 -84 28.5t-35 81.5zM737 1554q0 51 34 86t85 35q49 0 82 -32.5t33 -77.5q0 -55 -33 -88t-82 -33t-83 28.5t-36 81.5z " />
<glyph unicode="&#x2c6;" horiz-adv-x="778" d="M137 948l211 422q16 27 45 27t43 -27l205 -409q-4 -37 -51 -37l-152 188q-37 47 -49 47l-53 -59l-152 -180q-39 -5 -47 28z" />
<glyph unicode="&#x2dc;" horiz-adv-x="778" d="M117 942q8 37 33.5 99.5t50.5 91.5q49 53 133 53h112q84 0 119 26q33 25 49 64q5 3 15 3q5 0 10 -1q16 -2 23 -8q-10 -47 -37 -102.5t-50 -77.5q-41 -41 -108 -41h-125q-84 0 -121 -37q-25 -18 -61 -82q-7 -1 -13 -1q-23 0 -30 13z" />
<glyph unicode="&#x2013;" horiz-adv-x="1024" d="M0 358v125h1024v-125h-1024z" />
<glyph unicode="&#x2014;" horiz-adv-x="2048" d="M0 358v125h2048v-125h-2048z" />
<glyph unicode="&#x2018;" horiz-adv-x="507" d="M102 1139q0 111 83 193.5t198 111.5q27 -20 14 -53q-166 -70 -166 -187q0 -47 34 -73.5t77 -32.5q25 -4 44.5 -23.5t19.5 -50.5q0 -35 -28 -65.5t-89 -30.5q-76 0 -131.5 63.5t-55.5 147.5z" />
<glyph unicode="&#x2019;" horiz-adv-x="507" d="M102 1337q0 35 28 66t89 31q76 0 131.5 -63.5t55.5 -147.5q0 -111 -83 -194t-198 -111q-27 20 -14 53q166 70 165 186q0 47 -33.5 73.5t-76.5 33.5q-25 4 -44.5 23t-19.5 50z" />
<glyph unicode="&#x201a;" horiz-adv-x="507" d="M102 129q0 35 28 65.5t89 30.5q76 0 131.5 -63.5t55.5 -147.5q0 -111 -83 -193.5t-198 -111.5q-27 20 -14 53q166 70 165 187q0 47 -33.5 73.5t-76.5 32.5q-25 4 -44.5 23.5t-19.5 50.5z" />
<glyph unicode="&#x201c;" horiz-adv-x="897" d="M102 1139q0 111 83 193.5t198 111.5q27 -20 14 -53q-166 -70 -166 -187q0 -47 34 -73.5t77 -32.5q25 -4 44.5 -23.5t19.5 -50.5q0 -35 -28 -65.5t-89 -30.5q-76 0 -131.5 63.5t-55.5 147.5zM492 1139q0 111 82.5 193.5t197.5 111.5q27 -20 14 -53q-166 -70 -165 -187 q0 -47 33.5 -73.5t76.5 -32.5q25 -4 44.5 -23.5t19.5 -50.5q0 -35 -28 -65.5t-89 -30.5q-76 0 -131 63.5t-55 147.5z" />
<glyph unicode="&#x201d;" horiz-adv-x="897" d="M102 1337q0 35 28 66t89 31q76 0 131.5 -63.5t55.5 -147.5q0 -111 -83 -194t-198 -111q-27 20 -14 53q166 70 165 186q0 47 -33.5 73.5t-76.5 33.5q-25 4 -44.5 23t-19.5 50zM492 1337q0 35 27.5 66t88.5 31q76 0 131.5 -63.5t55.5 -147.5q0 -111 -83 -194t-198 -111 q-27 20 -14 53q166 70 166 186q0 47 -34 73.5t-77 33.5q-25 4 -44 23t-19 50z" />
<glyph unicode="&#x201e;" horiz-adv-x="897" d="M102 129q0 35 28 65.5t89 30.5q76 0 131.5 -63.5t55.5 -147.5q0 -111 -83 -193.5t-198 -111.5q-27 20 -14 53q166 70 165 187q0 47 -33.5 73.5t-76.5 32.5q-25 4 -44.5 23.5t-19.5 50.5zM492 129q0 35 27.5 65.5t88.5 30.5q76 0 131.5 -63.5t55.5 -147.5 q0 -111 -83 -193.5t-198 -111.5q-27 20 -14 53q166 70 166 187q0 47 -34 73.5t-77 32.5q-25 4 -44 23.5t-19 50.5z" />
<glyph unicode="&#x2022;" horiz-adv-x="815" d="M102 688q0 129 89.5 217t216.5 88t216 -88t89 -217t-88 -216t-217 -87t-217.5 87t-88.5 216z" />
<glyph unicode="&#x2026;" horiz-adv-x="2048" d="M207 106.5q0 57.5 39 96.5t96 39t95 -39t38 -96.5t-38 -96.5t-95 -39t-96 39t-39 96.5zM889 106.5q0 57.5 39 96.5t96 39t95 -39t38 -96.5t-38 -96.5t-95 -39t-96 39t-39 96.5zM1571 106.5q0 57.5 39 96.5t96 39t95 -39t38 -96.5t-38 -96.5t-95 -39t-96 39t-39 96.5z" />
<glyph unicode="&#x2039;" horiz-adv-x="524" d="M109 387q-14 17 -14.5 34t14.5 34l286 325q29 -4 37 -28l-147 -303q-14 -27 0 -54l147 -307q-8 -23 -37 -29q-182 215 -286 328z" />
<glyph unicode="&#x203a;" horiz-adv-x="524" d="M92 88l148 307q14 27 0 54l-148 303q8 25 37 28l287 -325q29 -33 0 -68l-287 -328q-29 6 -37 29z" />
<glyph unicode="&#x20ac;" d="M26 553q9 31 21 41h76q-1 12 -1 27q0 32 3 81h-72q-10 10 -1 41t22 41h63q39 242 190.5 383.5t352.5 141.5q64 0 238 -41l49 -13q8 -186 18 -264q-8 -12 -27.5 -13t-27.5 9q-12 47 -23.5 76t-40 75t-79 69.5t-119.5 23.5q-113 0 -191 -111.5t-98 -335.5h541 q6 -8 0.5 -40.5t-21.5 -41.5h-528q-2 -10 -2 -108h510q10 -8 2.5 -41t-23.5 -41h-485q14 -229 91 -348t210 -119q59 0 107 24.5t82 69.5t51.5 76t37.5 76q12 12 28.5 9t25.5 -17q-27 -143 -74 -254q-16 -4 -62 -17q-123 -45 -227 -45q-215 0 -353 144.5t-163 400.5h-100 q-5 5 -6 16q1 10 5 25z" />
<glyph unicode="&#x2122;" horiz-adv-x="1249" d="M61 1237q14 84 27 137q2 8 14.5 8t16.5 -8q12 -16 21.5 -19t37.5 -3h248q35 0 57 22q4 8 15.5 8t13.5 -8q-9 -49 -9 -105q0 -19 1 -38q-2 -12 -18.5 -13t-18.5 9q-8 37 -24.5 54t-51.5 17h-26q-10 0 -12.5 -3t-2.5 -19v-195q0 -49 6 -65.5t29 -20.5l31 -6q6 -4 5 -20.5 t-7 -18.5q-43 2 -140 2q-78 0 -114 -2q-4 4 -4 18.5t4 20.5l30 6q23 4 29 24.5t6 67.5v189q0 16 -3 19t-19 3h-15q-63 0 -88 -67q-4 -10 -20.5 -8t-18.5 14zM554 973q0 11 3 16l12 2q47 8 49 47q16 143 17 217q0 49 -47 56l-15 4q-12 4 -11 20.5t13 18.5q18 0 43 -1t35 -1 q57 0 129 2q0 -23 43 -109l37 -72q14 -31 24.5 -30.5t22.5 24.5l33 72q37 82 45 115q61 -2 94 -2q74 0 97 2q8 -2 9 -19.5t-7 -19.5l-19 -4q-23 -2 -30 -12.5t-7 -34.5q0 -129 6 -209q2 -33 6.5 -43.5t20.5 -14.5l29 -8q10 -2 10 -18.5t-10 -20.5q-27 2 -119 2 q-78 0 -106 -2q-4 4 -5.5 19.5t5.5 19.5l28 8q16 4 20.5 13.5t4.5 33.5l-4 191q0 20 -4 20q-5 1 -37 -81l-37 -87q-41 -92 -55 -137q-13 -5 -25 -4q-14 0 -25 6q-2 8 -45 117l-43 109q-35 84 -45 90q-2 -6 -8 -101v-118q2 -33 9 -44.5t30 -13.5l18 -2q4 -14 0 -39 q-20 2 -92 2q-70 0 -92 -2q-5 2 -5 23z" />
<glyph unicode="&#xe000;" horiz-adv-x="815" d="M0 815h815v-815h-815v815z" />
<glyph unicode="&#xfb01;" horiz-adv-x="1103" d="M46 25q0 19 11 28l45 6q51 8 64.5 39t13.5 146v405q0 43 -5 52.5t-32 9.5h-73q-12 6 -14.5 21.5t7.5 25.5l89 45q29 16 28 45v22q0 182 53 308q119 287 418 286q123 0 207 -55t84 -135q0 -49 -30.5 -78t-75.5 -29q-55 0 -78 41q-92 174 -189 174q-104 0 -139 -119.5 t-35 -394.5v-16q0 -29 9.5 -37t41.5 -8h175q51 0 101 3t86 7t63 8l42 6l17 5q20 0 26 -17q-6 -94 -6 -246v-329q0 -115 13.5 -145.5t64.5 -39.5l37 -6q9 -9 9 -28v-3q-1 -22 -13 -28q-115 6 -221.5 6t-200.5 -6q-14 6 -15 27.5t9 31.5l24 4q51 8 64.5 40t13.5 147v307 q0 117 -14 138.5t-92 21.5h-191q-29 0 -36 -9.5t-7 -54.5v-403q0 -115 13.5 -146.5t66.5 -38.5l51 -6q10 -10 9.5 -31.5t-13.5 -27.5q-96 6 -239 6q-92 0 -222 -6q-15 7 -15 31z" />
<glyph unicode="&#xfb02;" horiz-adv-x="1103" d="M48 25q0 19 9 28l45 6q51 8 64.5 39t13.5 146v405q0 43 -5 52.5t-32 9.5h-73q-12 6 -14.5 21.5t7.5 25.5l89 45q29 16 28 45v37q0 156 51 293q47 127 156 206.5t252 79.5q111 0 203 -53q18 10 46 28l40 25q3 1 6 1q15 0 22 -17q-6 -123 -6 -297v-907q0 -115 13.5 -145.5 t64.5 -39.5l45 -6q9 -9 9 -28v-3q-1 -22 -13 -28q-129 6 -229.5 6t-210.5 -6q-12 6 -13.5 27.5t9.5 31.5l32 6q51 8 64.5 39t13.5 146v413q0 37 -8 45.5t-43 8.5h-246q-29 0 -36 -9.5t-7 -54.5v-403q0 -115 13.5 -146.5t66.5 -38.5l49 -6q10 -10 9 -31.5t-13 -27.5 q-92 6 -237 6q-90 0 -222 -6q-13 6 -13 31zM395 872q0 -45 7.5 -55t37.5 -10h244q35 0 43 7t8 38v389q0 59 -39 100t-98 41q-203 0 -203 -469v-41z" />
<glyph unicode="&#xfb03;" horiz-adv-x="1658" d="M48 25q0 19 9 28l45 6q51 8 64.5 39t13.5 146v405q0 43 -5 52.5t-32 9.5h-73q-12 6 -14.5 21.5t7.5 25.5l89 45q29 16 28 45v16q0 137 45 264q47 129 149.5 208t252.5 79q141 0 241 -82q135 131 338 131q123 0 207 -55t84 -135q0 -49 -30.5 -78t-75.5 -29q-55 0 -78 41 q-92 174 -189 174q-104 0 -139 -119.5t-35 -394.5v-22q0 -25 9.5 -32t41.5 -7h175q51 0 101 3t86 7t63.5 8t43.5 6l15 5q20 0 26 -17q-6 -94 -6 -246v-329q0 -115 13.5 -145.5t64.5 -39.5l37 -6q9 -9 9 -28v-3q-1 -22 -13 -28q-113 6 -221 6q-104 0 -201 -6q-14 6 -15 27.5 t9 31.5l24 4q51 8 64.5 40t13.5 147v301q0 121 -14 143.5t-92 22.5h-191q-29 0 -36 -9.5t-7 -54.5v-403q0 -115 13.5 -145.5t66.5 -37.5l80 -8q10 -10 9 -31.5t-13 -27.5q-135 6 -266 6q-102 0 -209 -6q-12 6 -13.5 27.5t9.5 31.5l30 4q51 8 64.5 40t13.5 147v405 q0 43 -5 52.5t-32 9.5h-260q-31 0 -37 -9.5t-6 -54.5v-403q0 -113 13.5 -142.5t66.5 -40.5l49 -8q10 -10 9 -31.5t-13 -27.5q-92 6 -237 6q-92 0 -222 -6q-13 6 -13 31zM395 905v-47q0 -35 6.5 -43t38.5 -8h267q29 0 28 35v43q0 154 43 291q-16 61 -70.5 109t-117.5 48 q-92 0 -143.5 -90t-51.5 -338z" />
<glyph unicode="&#xfb04;" horiz-adv-x="1658" d="M48 25q0 19 9 28l45 6q51 8 64.5 39t13.5 146v405q0 43 -5 52.5t-32 9.5h-73q-12 6 -14.5 21.5t7.5 25.5l89 45q29 16 28 45v16q0 137 45 264q47 129 149.5 208t252.5 79q139 0 239 -82q135 131 324 131q115 0 207 -53l45 28q29 17 41 25q3 1 6 1q15 0 22 -17 q-6 -123 -6 -297v-907q0 -115 13.5 -145.5t64.5 -39.5l45 -6q9 -9 9 -28v-3q-1 -22 -13 -28q-129 6 -229.5 6t-210.5 -6q-12 6 -13.5 27.5t9.5 31.5l32 6q51 8 64.5 39t13.5 146v413q0 37 -8 45.5t-43 8.5h-246q-29 0 -36 -9.5t-7 -54.5v-403q0 -115 13.5 -146.5t66.5 -38.5 l49 -6q10 -10 9 -31.5t-13 -27.5q-92 6 -237 6q-88 0 -222 -6q-12 6 -13 27.5t9 31.5l45 6q51 8 64.5 39t13.5 146v405q0 43 -5 52.5t-32 9.5h-260q-31 0 -37 -9.5t-6 -54.5v-403q0 -113 13.5 -142.5t66.5 -40.5l49 -8q10 -10 9 -31.5t-13 -27.5q-92 6 -237 6q-92 0 -222 -6 q-13 6 -13 31zM395 905v-47q0 -35 6.5 -43t38.5 -8h267q29 0 28 41v37q0 154 43 291q-16 61 -70.5 109t-117.5 48q-92 0 -143.5 -90t-51.5 -338zM950 872q0 -45 7.5 -55t37.5 -10h244q35 0 43 7t8 38v389q0 59 -39 100t-98 41q-203 0 -203 -469v-41z" />
</font>
</defs>
</svg>
