<?xml version="1.0" standalone="no"?>
<!DOCTYPE svg PUBLIC "-//W3C//DTD SVG 1.1//EN" "http://www.w3.org/Graphics/SVG/1.1/DTD/svg11.dtd" >
<svg xmlns="http://www.w3.org/2000/svg">
<metadata>
This is a custom SVG webfont generated by Font Squirrel.
Copyright   :  1989 1992 1994 1996 1998 1999 2000 2001 Adobe Systems Incorporated All rights reserved Protected by US Patents D327902 D327903
Designer    : Robert Slimbach
Foundry URL : httpwwwadobecomtype
</metadata>
<defs>
<font id="AdobeGaramondProBoldItalic" horiz-adv-x="1064" >
<font-face units-per-em="2048" ascent="1485" descent="-563" />
<missing-glyph horiz-adv-x="491" />
<glyph unicode=" "  horiz-adv-x="491" />
<glyph unicode="&#x09;" horiz-adv-x="491" />
<glyph unicode="&#xa0;" horiz-adv-x="491" />
<glyph unicode="!" horiz-adv-x="505" d="M45 115q0 76 50 134t128 58q61 0 99 -41t38 -110q0 -78 -50 -131.5t-124 -53.5q-61 0 -101 39t-40 105zM236 420l73 575q27 203 37 244q25 84 168 84q68 0 99 -20q25 -16 26 -47q0 -8 -2 -17q-4 -23 -90 -240l-230 -579q-14 -10 -39.5 -10t-41.5 10z" />
<glyph unicode="&#x22;" horiz-adv-x="983" d="M418 827l41 420q10 92 16 117q12 45 41 57.5t94 12.5q76 0 108 -13q23 -9 23 -34q0 -10 -4 -23q-8 -27 -49 -117l-192 -420q-23 -14 -42.5 -14t-35.5 14zM827 827l41 420q10 92 17 117q12 45 40.5 57.5t94.5 12.5q76 0 107 -13q23 -9 23 -34q0 -10 -3 -23 q-8 -27 -49 -117l-193 -420q-23 -14 -42.5 -14t-35.5 14z" />
<glyph unicode="#" d="M119 379l43 133h209l129 299h-201l45 133h213l141 334h131l-143 -334h197l141 334h131l-143 -334h184l-39 -133h-203l-129 -299h181l-43 -133h-193l-160 -373h-125l158 373h-199l-161 -373h-125l161 373h-200zM500 512h198l127 299h-196z" />
<glyph unicode="$" d="M77 306q7 91 30 161q10 12 32.5 12t34.5 -12q12 -133 76.5 -226.5t163.5 -125.5l145 454l-95 65q-28 19 -73 62t-62.5 91.5t-17.5 109.5q0 174 132 279.5t348 105.5l51 160q14 16 48 16t50 -16l-53 -166q80 -12 241 -70q0 -13 1 -25q0 -135 -39 -270q-8 -10 -32 -10 t-36 10q-6 217 -168 265l-131 -404q137 -70 212 -157t75 -224q0 -174 -140.5 -282.5t-375.5 -108.5q-10 0 -19 2l-61 -190q-20 -16 -52 -16.5t-47 16.5l64 198q-115 18 -197 64.5t-100 95.5q-8 28 -8 75q0 27 3 61zM506 96q4 -2 16 -2q98 0 170 58.5t72 152.5q0 78 -31 127 t-90 88zM537 987q0 -98 104 -166l119 367q-109 -2 -166 -62.5t-57 -138.5z" />
<glyph unicode="%" horiz-adv-x="1814" d="M279 788q0 193 128 358t310 165q131 0 199.5 -76t68.5 -211q0 -113 -51 -227.5t-155.5 -197.5t-233.5 -83t-197.5 73.5t-68.5 198.5zM465 715q0 -121 80 -121q72 0 135 117q43 80 84 208t41 203q0 111 -80 111q-70 0 -133 -111q-49 -84 -88 -203.5t-39 -203.5zM475 -33 l1018 1372q5 1 11 1q20 0 41 -11q28 -14 30 -39l-1018 -1372q-9 -2 -17 -2q-19 0 -35 10q-24 14 -30 41zM1073 244q0 193 128 357.5t310 164.5q131 0 200 -76t69 -211q0 -113 -51.5 -227.5t-156 -197.5t-233.5 -83t-197.5 74t-68.5 199zM1260 170q0 -121 79 -121 q72 0 136 117q43 80 83.5 208t40.5 204q0 111 -79 110q-70 0 -134 -110q-49 -84 -87.5 -204t-38.5 -204z" />
<glyph unicode="&#x26;" horiz-adv-x="1683" d="M193 383q0 260 198 453q88 88 179.5 122.5t138.5 34.5q68 0 97.5 -27.5t45.5 -72.5q59 49 125.5 120.5t101.5 123.5q63 96 64 157q0 37 -21 64q-27 31 -26 67q0 59 37.5 95t91.5 36q51 0 90 -40.5t39 -112.5q0 -88 -63.5 -183.5t-215.5 -240.5q-115 -113 -319.5 -282 t-337.5 -269q25 -113 119 -181.5t223 -68.5q252 0 418 254q107 164 106 307v11q-49 57 -131 57q-37 0 -62.5 -23.5t-25.5 -54.5q0 -37 25 -80q20 -35 20 -61q0 -33 -25.5 -58.5t-70.5 -25.5q-43 0 -70 33.5t-27 85.5q0 127 146 245q102 84 203 84q133 0 270 -149 q68 -76 80 -76q35 0 35 45q0 25 -19 68q-10 31 -10 49q0 23 21.5 47.5t58.5 24.5q49 0 82 -38t33 -102q0 -76 -52 -127q-16 -16 -53 -26q-96 -25 -186 -90q-14 -7 -26 -8q-18 0 -32 18q-41 59 -106 110v-112q0 -57 -49 -174t-150 -219q-219 -221 -516 -222 q-227 0 -340.5 121t-113.5 291zM405 522l85 72l95 78q40 33 54 49q29 33 29 80q0 29 -18.5 51t-43 22t-62.5 -26.5t-67 -73.5q-72 -117 -72 -252z" />
<glyph unicode="'" horiz-adv-x="536" d="M403 827l41 420q10 92 17 117q12 45 40.5 57.5t94.5 12.5q76 0 107 -13q23 -9 23 -34q0 -10 -3 -23q-8 -27 -49 -117l-193 -420q-23 -14 -42.5 -14t-35.5 14z" />
<glyph unicode="(" horiz-adv-x="696" d="M203 311q0 240 90 462t252 386q172 172 407 281q20 -2 32 -16q8 -10 8 -20q0 -4 -1 -7q-207 -117 -362 -365q-248 -391 -248 -842q0 -301 117 -483q-4 -37 -45 -41q-117 109 -183.5 286t-66.5 359z" />
<glyph unicode=")" horiz-adv-x="696" d="M-127 -291q207 117 363 365q248 391 247 841q0 301 -116 484q4 37 45 41q117 -109 183.5 -286t66.5 -359q0 -240 -90.5 -462t-252.5 -386q-172 -172 -407 -281q-20 2 -32 16q-8 10 -8 20q0 3 1 7z" />
<glyph unicode="*" horiz-adv-x="819" d="M258 899q-1 5 -1 10q0 12 7 23l266 108l-194 203q0 20 12 37.5t29 22.5l223 -185l88 256q10 4 22 4q6 0 12 -1q19 -3 28 -13l-35 -272l278 75q23 -13 23 -39q0 -14 -6 -30l-265 -107l187 -209q0 -18 -13.5 -33.5t-33.5 -17.5l-211 182l-92 -258q-6 -4 -17 -3q-7 0 -15 1 q-22 4 -30 17l39 270l-283 -70q-14 11 -18 29z" />
<glyph unicode="+" d="M143 362v148h322v326h180v-326h320v-148h-320v-362h-180v362h-322z" />
<glyph unicode="," horiz-adv-x="532" d="M-41 -217q-2 8 -2 14q0 14 8 27q88 25 150.5 83t62.5 122q0 61 -67 100q-41 20 -41 78q0 55 41 96t98 41q68 0 125 -57.5t57 -163.5q0 -127 -111.5 -227.5t-291.5 -143.5q-23 8 -29 31z" />
<glyph unicode="-" horiz-adv-x="655" d="M98 401q0 45 31 84l489 45q29 -33 29 -86q0 -47 -26 -79l-492 -46q-31 31 -31 82z" />
<glyph unicode="." horiz-adv-x="532" d="M66 115q0 76 50 134t128 58q61 0 99 -41t38 -110q0 -78 -50 -131.5t-124 -53.5q-61 0 -101 39t-40 105z" />
<glyph unicode="/" horiz-adv-x="614" d="M-18 -33l630 1417h189l-631 -1417h-188z" />
<glyph unicode="0" d="M137 375q0 182 77 382.5t194 332.5q197 221 411 221q96 0 167 -35t109 -97.5t54 -132t16 -151.5q0 -168 -78.5 -373t-197.5 -346q-176 -205 -410 -205q-342 1 -342 404zM383 227q0 -80 28.5 -120.5t73.5 -40.5q100 0 201 204q92 186 163 415.5t71 365.5q0 35 -2.5 55 t-9.5 51t-26.5 45.5t-52.5 14.5q-43 0 -85 -34t-75.5 -82t-69.5 -123t-59.5 -134.5t-52.5 -141.5q-104 -285 -104 -475z" />
<glyph unicode="1" d="M168 66l72 10q82 12 109.5 43t64.5 147l207 649q37 115 36 148q2 23 -15 35t-50 16l-92 10q-16 8 -14.5 36t18.5 36q156 27 284 59q37 8 84.5 24.5t77 28t31.5 11.5q29 0 33 -29q-41 -98 -86 -237l-250 -787q-26 -86 -26 -126q0 -14 3 -22q12 -32 90 -42l76 -10 q16 -8 12 -37t-22 -35q-154 6 -344 6q-164 0 -305 -6q-14 12 -14 31q0 29 20 41z" />
<glyph unicode="2" d="M-41 41q39 25 83 56.5t74 55.5l110 87l134 104q475 373 476 588q0 221 -215 221q-68 0 -148 -53t-129 -135q-20 -4 -42.5 9t-20.5 32q76 143 203.5 224t279.5 81q162 0 266.5 -89t104.5 -245q0 -66 -28 -130.5t-58.5 -107.5t-101 -103.5t-103.5 -85t-121 -83.5l-41 -29 l-123 -86q-150 -104 -149 -125q0 -23 63 -22h238q100 0 138 18.5t95 89.5q14 12 39 3t31 -31q-29 -80 -77 -171t-81 -120q-23 2 -72 3t-73 1q-49 2 -154 2h-340q-78 0 -250 -6q-14 11 -14 26q0 10 6 21z" />
<glyph unicode="3" d="M-33 29q0 47 35 80.5t84 33.5q16 0 32.5 -5t28 -12t24.5 -19.5t18.5 -19.5l16.5 -20.5t13 -17.5q51 -61 117 -61q156 0 271 135q118 138 118 329q0 97 -51 156q-53 61 -156 62q-92 0 -192 -86q-33 4 -46 41q-5 15 -6 27q0 20 13 36q229 78 356 156q162 98 162 203 q0 61 -42 98t-114 37q-63 0 -135 -47.5t-125 -124.5q-23 -6 -39 7t-20 34q74 123 193.5 191.5t256.5 68.5q123 0 213 -59.5t90 -170.5q0 -164 -307 -272q-27 -8 -10 -18q8 -6 20 -7q102 -8 177 -82.5t75 -203.5q0 -133 -89 -255t-216 -204q-123 -78 -266 -116t-256 -38 q-244 1 -244 144z" />
<glyph unicode="4" d="M74 446l962 967q33 33 68 33h76q29 0 28.5 -14.5t-28.5 -42.5l-873 -857q-12 -10 -15 -17t8 -13t42 -6h246q29 0 37 5t14 25l98 316q6 23 20.5 38t24 21t29.5 17q37 18 104.5 39.5t88.5 21.5q37 0 30 -35l-129 -407q-10 -27 -5 -34t38 -7h135q23 -10 13.5 -56.5 t-37.5 -58.5h-146q-33 0 -42 -8t-19 -41l-29 -84q-23 -74 -23 -112q0 -16 5 -25q14 -31 92 -41l35 -4q16 -8 12 -37t-23 -35q-147 6 -303 6q-166 0 -301 -6q-16 14 -13 37.5t19 34.5l72 8q82 8 108.5 36.5t59.5 137.5l29 92q8 27 2 34t-37 7h-459q-22 13 -22 35q0 13 8 30z " />
<glyph unicode="5" d="M-12 -91q0 25 18 36q90 6 182.5 21.5t191.5 50t175 82.5t125 124t49 168q0 152 -114.5 220.5t-327.5 90.5q-43 4 -43 34q0 16 12 38l217 432q16 33 37.5 44.5t77.5 17.5l561 71q16 0 23 -11q5 -7 5 -15q0 -4 -1 -8q-35 -102 -138 -195l-497 -63q-49 -6 -74 -60l-18 -39 q-8 -15 -8 -26q0 -20 28 -23q106 -12 196.5 -42t170 -81t122.5 -135q39 -77 40 -174q0 -9 -1 -18q-12 -305 -374 -469q-242 -109 -603 -119q-32 9 -32 48z" />
<glyph unicode="6" d="M127 393q0 197 120 413t337 365q156 106 359.5 174t379.5 74q18 -4 22 -31q1 -6 0 -11q0 -19 -10 -27q-178 -31 -312 -96.5t-265 -178.5q-158 -137 -257.5 -349t-99.5 -411q0 -250 142 -249q82 0 142 76.5t84 163.5t24 157q0 190 -113 213q-19 5 -45 5q-20 0 -43 -3 q-12 6 -15.5 25.5t9.5 29.5q104 78 205 78q131 0 210.5 -86t79.5 -227q0 -225 -156.5 -376t-375.5 -151q-207 0 -314.5 114.5t-107.5 307.5z" />
<glyph unicode="7" d="M172 -55l750 966q86 115 86 140q0 20 -58 20h-381q-94 0 -146 -19.5t-95 -90.5q-14 -10 -39 -2t-29 28q80 143 133 301q57 -6 252 -6h434q199 0 244 6q16 -6 16 -22q0 -5 -2 -11q-88 -100 -272 -338l-809 -1044q-8 -2 -16 -2q-22 0 -42 17q-28 24 -26 57z" />
<glyph unicode="8" d="M90 293q0 252 350 391q-125 94 -125 236q0 170 128 280.5t305 110.5q166 0 275.5 -80t109.5 -234q0 -207 -293 -315q176 -123 176 -303q0 -182 -141.5 -293t-370.5 -111q-184 0 -299 82t-115 236zM344 301q0 -100 55.5 -165.5t149.5 -65.5q86 0 145.5 60t59.5 157 q0 80 -41 148.5t-82 103t-109 77.5q-80 -47 -129 -132t-49 -183zM559 1022q0 -94 50 -153.5t147 -118.5q59 25 103 104.5t44 167.5q0 82 -44 138.5t-124 56.5q-76 0 -126 -57.5t-50 -137.5z" />
<glyph unicode="9" d="M-15 -90l-2 12q0 16 11 27q358 84 577 303q141 137 229.5 335.5t88.5 387.5q0 242 -146 242q-104 0 -173.5 -130.5t-69.5 -261.5q0 -160 102 -207q37 -16 111 -18q16 -16 0 -49q-74 -53 -187 -53q-131 0 -212 84t-81 227q0 201 156 351.5t369 150.5q193 0 297 -117 t104 -317q0 -205 -125 -408t-323 -334q-150 -100 -364 -177t-341 -81q-16 8 -21 33z" />
<glyph unicode=":" horiz-adv-x="532" d="M66 115q0 76 50 134t128 58q61 0 99 -41t38 -110q0 -78 -50 -131.5t-124 -53.5q-61 0 -101 39t-40 105zM215 614q0 76 50 134.5t128 58.5q61 0 99 -41t38 -111q0 -78 -50 -131t-124 -53q-61 0 -101 38.5t-40 104.5z" />
<glyph unicode=";" horiz-adv-x="532" d="M-41 -217q-2 8 -2 14q0 14 8 27q88 25 150.5 83t62.5 122q0 61 -67 100q-41 20 -41 78q0 55 41 96t98 41q68 0 125 -57.5t57 -163.5q0 -127 -111.5 -227.5t-291.5 -143.5q-23 8 -29 31zM215 614q0 76 50 134.5t128 58.5q61 0 99 -41t38 -111q0 -78 -50 -131t-124 -53 q-61 0 -101 38.5t-40 104.5z" />
<glyph unicode="&#x3c;" d="M135 362v121l797 365v-170l-586 -252v-4l586 -254v-168z" />
<glyph unicode="=" d="M143 217v148h822v-148h-822zM143 512v147h822v-147h-822z" />
<glyph unicode="&#x3e;" d="M207 0v168l586 254v4l-586 252v170l797 -365v-121z" />
<glyph unicode="?" horiz-adv-x="716" d="M150 115q0 76 50 134t128 58q61 0 99 -41t38 -110q0 -78 -50 -131.5t-124 -53.5q-61 0 -101 39t-40 105zM240 621q0 90 56 147t173 98l152 54q133 47 133 94q0 35 -36 58.5t-91 23.5q-63 0 -105 -9q-74 -12 -76 -12q-35 0 -56 24.5t-21 59.5q0 63 54 113.5t148 50.5 q111 0 203 -103.5t92 -242.5q0 -86 -56 -157.5t-159 -114.5l-155 -64q-72 -29 -103 -56.5t-31 -62.5q0 -55 9 -96q-8 -12 -29 -15q-6 -1 -11 -1q-14 0 -24 6q-67 94 -67 205z" />
<glyph unicode="@" horiz-adv-x="1587" d="M242 362q0 346 241.5 561.5t579.5 215.5q279 0 439.5 -161t160.5 -392q0 -207 -145.5 -339t-397.5 -132q-53 0 -87 11t-42 23.5t-8 22.5q0 14 18 66l43 112l-4 2q-78 -94 -191.5 -165.5t-178.5 -71.5q-43 0 -66.5 26.5t-23.5 63.5q0 39 38.5 129t116.5 190 q82 102 190.5 178t213.5 76q53 0 69 -33l49 93q20 4 33 4q70 0 109 -29q-10 -29 -113.5 -269.5t-118.5 -277.5q-14 -39 -8 -54t37 -15q135 0 246.5 106.5t111.5 278.5q0 207 -141 336t-350 129q-274 0 -450.5 -204t-176.5 -483q0 -72 16.5 -142.5t57.5 -145t103.5 -130 t164 -91t230.5 -35.5q150 0 315 67q14 -6 21.5 -28.5t-3.5 -36.5q-172 -94 -399 -94q-139 0 -262 39.5t-222.5 115.5t-157.5 200.5t-58 282.5zM793 266q0 -29 20 -28q39 0 123 77q59 55 133 170t92 174q-20 51 -61 52q-29 0 -101 -64q-78 -70 -142 -195t-64 -186z" />
<glyph unicode="A" horiz-adv-x="1228" d="M-160 36q0 22 13 32l49 8q78 12 115.5 43t115.5 143l551 811q123 186 131 223q33 2 65.5 12.5t58.5 22.5t46.5 24.5t30.5 20.5l12 8h4q37 0 37 -32q0 -180 -7 -545t-7 -545q0 -117 14 -149.5t84 -40.5l49 -6q11 -7 11 -30q0 -4 -1 -7q-2 -29 -16 -35q-115 6 -289 6 t-270 -6q-18 6 -19.5 33.5t9.5 38.5l47 6q66 8 85 27.5t21 60.5l8 260q2 31 -8 37t-57 6h-244q-49 0 -60 -5t-30 -36l-127 -219q-41 -72 -41 -94q0 -25 51 -33l56 -8q16 -10 12 -38t-23 -36q-154 6 -258 6q-111 0 -196 -6q-23 9 -23 42zM503 581q7 -9 50 -10h186 q37 0 44.5 8.5t9.5 47.5l12 252v188h-4l-119 -190l-168 -261q-13 -19 -13 -29q0 -3 2 -6z" />
<glyph unicode="B" horiz-adv-x="1298" d="M23 63l59 11q70 12 96.5 46t69.5 175l241 772q31 93 32 134q0 5 -1 8q-4 38 -55 48l-59 13q-14 12 -10.5 36.5t22.5 32.5q203 18 403 19q315 0 439 -92q109 -82 108 -219q0 -117 -84 -191t-199 -94q-25 -4 -39 -8t-18 -7.5t-2 -5.5q-2 -4 5 -8t36 -14 q86 -31 139.5 -105.5t53.5 -171.5q0 -164 -110 -276.5t-280 -145.5q-139 -29 -346 -28q-49 0 -131 4t-100 4q-125 0 -281 -6q-12 7 -12 28q1 39 23 41zM496 272q-16 -50 -16 -86q0 -100 120 -100q145 0 255 99.5t110 256.5q0 109 -65.5 169.5t-184.5 60.5q-66 0 -82.5 -9.5 t-30.5 -52.5zM665 771q11 -9 72 -9q156 0 254.5 88t98.5 223q0 84 -54.5 137.5t-152.5 53.5q-53 0 -67.5 -11.5t-31.5 -64.5l-118 -369q-6 -20 -7 -32q1 -12 6 -16z" />
<glyph unicode="C" horiz-adv-x="1347" d="M199 506q2 188 85 359t208 282q266 238 663 237q221 0 410 -75q-41 -94 -101 -318q-10 -16 -40.5 -16t-36.5 16q14 156 -46.5 227.5t-203.5 71.5q-168 0 -315.5 -121.5t-229.5 -305t-82 -374.5q0 -229 93 -328.5t226 -99.5q121 0 219.5 71t211.5 222q16 12 43.5 8 t31.5 -20q-57 -180 -145 -324l-129 -26q-131 -25 -238 -25q-303 0 -464.5 149.5t-159.5 389.5z" />
<glyph unicode="D" horiz-adv-x="1579" d="M23 63l59 11q68 10 94.5 45t69.5 176l241 772q31 93 32 132q0 5 -1 8q-4 36 -55 48l-60 15q-14 12 -10 36.5t23 32.5q199 18 446 19q354 -4 537 -125q223 -152 223 -447q0 -297 -209 -512q-281 -287 -823 -286q-20 0 -162 6q-72 6 -123 6q-139 0 -293 -6q-14 7 -14 29 q1 38 25 40zM500 169q0 -40 34 -63q36 -25 101 -24q215 0 401 156q139 115 209 282.5t70 327.5q0 51 -6 98t-31 108.5t-66 104.5t-116.5 74t-175.5 31q-66 0 -84.5 -14.5t-38.5 -80.5l-269 -852q-28 -88 -28 -148z" />
<glyph unicode="E" horiz-adv-x="1220" d="M4 66l70 10q74 10 101.5 44t70.5 175l239 762q35 106 35 152q0 8 -1 15q-7 42 -77 54l-49 8q-14 10 -10 37t25 35q145 -6 280 -6h455q233 0 278 6q-53 -131 -104 -322q-8 -16 -38 -18t-40 10q3 36 3 65q0 59 -11 93q-25 72 -172 71h-160q-53 0 -67.5 -12t-32.5 -69 l-113 -357q-14 -43 -8 -52t47 -9h135q80 0 114 20.5t73 93.5l26 50q16 14 45 13t33 -15l-76 -218q-4 -10 -61 -217q-12 -12 -42 -13t-36 11l6 52q2 20 2 36q0 43 -15 58q-22 20 -102 20h-135q-41 0 -53 -10t-25 -51l-77 -250q-35 -107 -35 -160q0 -22 6 -35q14 -29 54 -39 t147 -10q104 0 154 10.5t115.5 61.5t147.5 164q16 12 45 9t37 -22q-27 -80 -76 -181t-81 -142q-127 4 -232 4q-86 2 -262 2h-266q-143 0 -297 -6q-14 7 -14 28q0 37 24 44z" />
<glyph unicode="F" horiz-adv-x="1142" d="M2 31.5q0 27.5 16 34.5l64 10q68 10 94.5 45t69.5 174l239 762q35 106 35 152q0 8 -1 15q-7 42 -77 54l-49 8q-14 8 -10 36t25 36q147 -6 280 -6h440q231 0 279 6q-55 -135 -102 -322q-8 -16 -39 -18t-41 10q3 36 2 65q0 59 -10 93q-25 72 -170 71h-152q-51 0 -64.5 -11 t-31.5 -70l-119 -375q-14 -41 -8 -50.5t47 -9.5h160q82 0 114.5 19.5t71.5 93.5l27 49q16 14 44.5 13t32.5 -15l-75 -217q-16 -45 -38 -128t-24 -87q-12 -14 -41.5 -15t-36.5 13l4 49q1 17 2 31q0 47 -16 63q-20 20 -100 21h-160q-39 0 -51 -10.5t-25 -51.5l-86 -274 q-34 -104 -34 -152q0 -10 1 -17q8 -44 84 -52l68 -8q8 -8 4 -36t-18 -36q-172 6 -318 6q-139 0 -293 -6q-14 10 -14 37.5z" />
<glyph unicode="G" horiz-adv-x="1548" d="M209 520q0 182 80 345t207 274q283 246 706 245q227 0 418 -75q-53 -121 -102 -322q-10 -16 -40 -16t-36 16q3 32 3 61q0 111 -50 170q-63 73 -215 72q-176 0 -332 -121.5t-244 -310t-88 -389.5q0 -215 101.5 -311.5t252.5 -96.5q84 0 120 30t63 122l53 176q13 46 13 75 q0 22 -8 33q-17 26 -93 35l-66 11q-18 10 -15 35.5t21 35.5q209 -6 340 -6q156 0 240 6q16 -10 14 -35.5t-16 -35.5l-49 -8q-47 -8 -65.5 -34t-43.5 -110l-45 -155q-23 -81 -23 -113q0 -10 3 -14q6 -10 20 -13q6 -6 0 -25.5t-20 -23.5q-66 -10 -137 -31q-152 -49 -336 -49 q-313 0 -472 149.5t-159 403.5z" />
<glyph unicode="H" horiz-adv-x="1593" d="M33 66l49 8q68 10 94.5 45t69.5 176l239 762q34 104 35 151q0 9 -2 17q-8 43 -84 53l-63 8q-14 14 -9 39t25 33q172 -6 315 -6q137 0 285 6q16 -8 13 -37t-23 -35l-59 -8q-59 -8 -85 -44t-71 -177l-72 -232q-16 -47 -4 -57t96 -10h332q82 0 103.5 11t37.5 62l72 226 q36 105 36 152q0 9 -1 16q-8 43 -84 53l-57 8q-12 8 -7 36t25 36q158 -6 303 -6q137 0 293 6q12 -7 12 -28q0 -4 -1 -9q-3 -29 -21 -35l-60 -10q-66 -10 -92 -45t-69 -174l-238 -762q-34 -104 -34 -150q0 -9 1 -16q8 -41 84 -53l64 -10q10 -8 5 -36t-20 -36q-176 6 -317 6 q-143 0 -285 -6q-16 8 -13 36.5t23 35.5l50 8q70 10 96.5 45t69.5 176l92 301q10 37 -2.5 45t-94.5 8h-327q-86 0 -106.5 -10t-37.5 -59l-92 -285q-35 -103 -35 -151q0 -10 1 -18q9 -44 85 -52l68 -8q8 -8 6 -36t-16 -36q-178 6 -326 6q-145 0 -282 -6q-14 7 -14 28 q0 37 24 44z" />
<glyph unicode="I" horiz-adv-x="749" d="M0 32q4 30 27 34l55 10q68 12 94.5 46t69.5 173l239 762q34 104 35 149q0 9 -2 16q-8 40 -84 54l-57 10q-12 8 -8 36t22 36q172 -6 316 -6q135 0 288 6q14 -7 14 -28q0 -36 -24 -44l-59 -10q-68 -10 -94.5 -45t-69.5 -174l-240 -762q-29 -90 -34 -129t13.5 -59.5 t71.5 -30.5l58 -10q10 -8 5 -36t-20 -36q-162 6 -307 6q-143 0 -297 -6q-13 7 -13 27q0 5 1 11z" />
<glyph unicode="J" horiz-adv-x="753" d="M-270 -324q0 39 41 93q37 45 73 45q45 0 99 -58l16 -16l16 -16q4 -4 13.5 -11.5t16.5 -10.5t15 -3q55 0 113 164l129 395l250 799q34 104 34 150q0 9 -1 17q-8 42 -84 54l-66 10q-14 8 -12 35t23 35q184 -6 323 -6t281 6q14 -7 13 -28q0 -37 -24 -42l-47 -10 q-70 -14 -96.5 -48t-69.5 -173l-262 -840q-68 -217 -149 -352q-168 -276 -475 -277q-170 0 -170 88z" />
<glyph unicode="K" horiz-adv-x="1417" d="M23 66l59 10q68 10 94.5 45t69.5 174l239 762q34 104 35 149q0 9 -2 16q-8 40 -84 54l-55 10q-16 8 -12 36t22 36q168 -6 313 -6q141 0 291 6q16 -8 14.5 -37t-22.5 -35l-59 -8q-68 -10 -93.5 -45t-70.5 -176l-84 -266q-8 -24 -8 -39q0 -21 16 -21q68 0 205 127l250 236 q106 106 123 125q23 23 22.5 37t-35.5 22l-43 10q-14 12 -12 37t25 33q172 -6 272 -6q162 0 250 6q18 -6 19 -34v-3q0 -25 -15 -35q-123 -23 -186 -45q-113 -41 -365 -256l-141 -121q-76 -61 -76 -88q0 -18 20 -76q63 -168 232 -542q33 -72 106 -84l56 -8q12 -12 9 -37 t-16 -35q-141 6 -286 6q-125 0 -273 -6q-18 8 -20 35.5t14 36.5l64 12q48 8 48 40q0 8 -3 17q-2 8 -74 193l-65 161q-41 100 -60.5 130t-50.5 30q-33 0 -48.5 -27.5t-41.5 -111.5l-68 -215q-29 -90 -34 -130q-1 -9 -1 -17q0 -28 15 -45q18 -22 71 -29l54 -8q12 -8 9 -36 t-18 -36q-166 6 -313 6q-139 0 -293 -6q-14 7 -14 28q1 37 25 44z" />
<glyph unicode="L" horiz-adv-x="1191" d="M16 66l68 10q68 10 94.5 45t69.5 174l239 762q34 104 35 150q0 9 -2 17q-8 42 -84 54l-53 8q-16 8 -11 37t25 35q160 -6 312 -6q147 0 278 6q18 -8 16 -37t-22 -35l-53 -10q-68 -12 -94.5 -46t-69.5 -173l-227 -719q-32 -99 -32 -154q0 -23 5 -39q10 -29 49 -40t139 -11 q104 0 154.5 10.5t116 61.5t147.5 164q16 12 45 9t37 -22q-25 -76 -74 -179t-82 -144q-35 2 -113.5 3t-119.5 1q-43 0 -132 1t-130 1h-236q-135 0 -299 -6q-17 8 -17 34q-1 32 21 38z" />
<glyph unicode="M" horiz-adv-x="1810" d="M-45 66l49 8q82 14 119 45q49 47 145 303l238 637q41 105 41 152q0 7 -1 13q-7 44 -81 54l-57 8q-14 8 -9.5 36t25.5 36q170 -6 315 -6q78 0 189 6q-8 -20 -13.5 -47t-7.5 -62t-2 -58.5t3 -67.5l4 -58q1 -14 6 -61l6 -46l16 -167q25 -231 35 -297l174 241l237 334 q115 162 164 289q68 -6 199 -6q135 0 289 6q16 -9 16 -31q0 -4 -1 -7q-3 -28 -23 -34l-58 -8q-49 -6 -73.5 -21.5t-51 -67.5t-55.5 -161l-199 -733q-32 -107 -31 -153q0 -8 1 -13q6 -41 82 -53l57 -10q8 -8 3 -36t-19 -36q-162 6 -312 6q-137 0 -289 -6q-20 8 -18 36.5 t23 35.5l59 10q70 12 98.5 46t71.5 173l180 592l64 219l-4 4q-117 -152 -156 -207l-293 -422q-129 -184 -291 -448q-20 -12 -48 -10t-44 18q1 13 1 31q0 106 -21 387l-23 301q-8 125 -35 350h-4q-49 -123 -121 -324l-104 -297q-109 -311 -111 -356v-5q0 -34 49 -44l99 -18 q8 -14 5 -39t-16 -33q-264 6 -270 6q-10 0 -225 -6q-11 11 -11 34q0 29 15 38z" />
<glyph unicode="N" horiz-adv-x="1478" d="M-16 28.5q0 26.5 18 37.5l47 10q72 16 103.5 43.5t58.5 99.5q45 131 96 295l168 543q35 106 35 153q0 8 -1 15q-7 43 -83 53l-57 8q-14 8 -9 36t23 36q160 -6 258 -6q96 0 164 6q-1 -9 -1 -19q0 -22 6 -50q9 -40 38 -112.5l48 -117.5l69 -156l96 -213q88 -197 129 -274 q16 25 47 127l88 295q61 211 80 292q10 43 10 71q0 22 -6 36q-14 31 -90 41l-62 8q-14 14 -10 38t25 34q162 -6 254 -6q96 0 237 6q11 -8 12 -31q0 -30 -16 -41l-49 -10q-70 -14 -102.5 -42t-59.5 -101q-63 -178 -98 -295l-150 -490q-27 -88 -96 -342q-27 -23 -129 -22 q-2 0 -18 42l-45 115q-29 74 -54 129l-219 498q-123 285 -133 305q-14 -33 -51 -160l-121 -399q-68 -221 -80 -293q-9 -40 -8 -67q0 -24 6 -37q14 -29 88 -41l62 -10q8 -12 7 -37t-17 -35q-166 6 -259 6q-98 0 -235 -6q-14 8 -14 34.5z" />
<glyph unicode="O" horiz-adv-x="1552" d="M203 514q0 195 88 378t239 308q225 184 506 184q80 0 155 -17t150.5 -59t132 -105.5t91 -166t34.5 -229.5q0 -160 -68.5 -325t-182.5 -281q-92 -94 -241 -164t-321 -70q-166 0 -286.5 52.5t-182 139.5t-88 174t-26.5 181zM496 403q0 -154 68.5 -248t193.5 -94 q152 0 280 148q135 156 202 351.5t67 391.5q0 172 -66.5 255t-181.5 83q-106 0 -219 -88q-133 -106 -238.5 -333.5t-105.5 -465.5z" />
<glyph unicode="P" horiz-adv-x="1253" d="M23 63l59 11q68 10 93.5 45t70.5 176l246 772q32 96 32 134q0 3 -1 6q-3 36 -56 48l-66 15q-14 12 -10 36.5t23 32.5q203 18 399 19q270 0 401 -72q170 -94 170 -291q0 -143 -90 -245.5t-216 -145.5t-269 -43q-47 0 -66 2q-25 25 0 58q164 27 257.5 144.5t93.5 285.5 q0 96 -50.5 154.5t-144.5 58.5q-49 0 -62.5 -10.5t-27.5 -53.5l-285 -905q-30 -90 -34 -130q-1 -9 -1 -17q0 -28 15 -45q18 -22 71 -29l64 -11q10 -8 5 -34.5t-19 -34.5q-178 6 -316 6q-139 0 -293 -6q-15 8 -15 34q0 33 22 35z" />
<glyph unicode="Q" horiz-adv-x="1552" d="M203 514q0 195 88 378t239 308q225 184 506 184q80 0 155 -17t150.5 -59t132 -105.5t91 -166t34.5 -229.5q0 -160 -68.5 -325t-182.5 -281q-143 -145 -340 -199q-33 -10 -7 -35q258 -242 443 -291q66 -16 149 -16q49 0 82 16q16 -6 22 -20q3 -8 3 -16q0 -6 -2 -13 q-104 -76 -287 -76q-393 0 -715 365q-59 66 -84 70q-150 31 -246 125t-129.5 194t-33.5 209zM496 403q0 -154 68.5 -248t193.5 -94q152 0 280 148q135 156 202 351.5t67 391.5q0 172 -66.5 255t-181.5 83q-106 0 -219 -88q-133 -106 -238.5 -333.5t-105.5 -465.5z" />
<glyph unicode="R" horiz-adv-x="1282" d="M-2 32.5q0 28.5 18 30.5l64 11q68 10 93.5 45t70.5 176l245 772q25 74 30 108.5t-6 52t-44 25.5l-66 17q-14 12 -10 36.5t23 32.5q217 18 405 19q262 0 400 -66q76 -37 123 -109.5t47 -166.5q0 -139 -97.5 -227.5t-234.5 -122.5q-27 -6 -32 -16.5t-1 -30.5 q80 -442 135 -502q27 -29 123 -49q14 -10 11 -32t-17 -32q-49 -12 -188 -12q-113 0 -162 31q-74 49 -101 186l-57 299q-10 51 -31.5 70.5t-68.5 19.5q-37 0 -49.5 -8t-22.5 -39l-84 -256q-36 -105 -36 -151q0 -9 1 -15q8 -41 86 -55l53 -11q14 -8 10.5 -34.5t-20.5 -34.5 q-150 6 -301 6q-139 0 -293 -6q-16 10 -16 38.5zM659 756q-7 -21 -6 -35q0 -16 9 -22q16 -11 88 -11q141 0 241.5 109.5t100.5 249.5q0 92 -45.5 154.5t-147.5 62.5q-55 0 -70.5 -11.5t-29.5 -56.5z" />
<glyph unicode="S" horiz-adv-x="1081" d="M90 145v26q0 135 39 271q8 12 39 11.5t41 -15.5q8 -129 59 -215q92 -162 267 -162q100 0 171.5 66t71.5 182q0 150 -172 273l-51 36q-223 162 -223 343q0 193 142 310q140 116 352 116q4 0 8 -1q231 -4 374 -110q-51 -113 -90 -272q-12 -18 -40.5 -16.5t-39.5 16.5 q5 31 6 60q0 81 -43 143q-57 85 -180 85q-111 0 -178.5 -68.5t-67.5 -152.5q0 -123 175 -240l63 -43q233 -158 234 -382q0 -195 -143.5 -317t-401.5 -122q-147 0 -260 54t-152 124z" />
<glyph unicode="T" horiz-adv-x="1320" d="M289 66l80 10q68 10 94 44t69 175l285 905q12 39 4 48t-57 9h-84q-111 0 -172 -47q-86 -68 -146 -172q-14 -10 -44.5 -2t-30.5 27q115 238 153 342q12 12 27 12q14 0 31 -10q0 -33 29.5 -44t129.5 -11h766q102 0 144 53q10 7 27 6h10q25 -2 30 -12q-86 -178 -127 -355 q-10 -16 -41.5 -16t-40.5 16q4 43 4 76q0 82 -22 101q-47 37 -147 36h-91q-47 0 -57 -7t-25 -50l-278 -905q-34 -104 -34 -151q0 -9 1 -16q8 -42 84 -52l76 -10q10 -8 6 -36t-18 -36q-195 6 -328 6q-129 0 -313 -6q-15 8 -16 33q0 33 22 39z" />
<glyph unicode="U" horiz-adv-x="1497" d="M272 328q0 90 39 217l158 512q34 104 34 150q0 9 -1 17q-8 42 -84 56l-49 8q-16 8 -10 35t28 35q147 -6 297 -6q139 0 285 6q16 -8 13 -36t-24 -34l-51 -10q-66 -12 -92.5 -47t-69.5 -174l-147 -473q-43 -143 -43 -234q0 -272 264 -272q168 0 269.5 127t168.5 344l91 289 q53 174 79 292q10 43 11 71q0 22 -6 35q-14 30 -91 42l-61 10q-10 12 -8 36t18 34q166 -6 258 -6q96 0 238 6q13 -8 13 -31q0 -28 -17 -39l-49 -12q-72 -18 -104 -45t-58 -98q-41 -104 -101 -295l-94 -301q-49 -156 -99 -256.5t-136 -176.5q-72 -63 -182.5 -100t-229.5 -37 q-457 1 -457 361z" />
<glyph unicode="V" horiz-adv-x="1335" d="M307 1358q117 -6 266 -6q111 0 265 6q16 -8 14 -34t-18 -36l-74 -16q-53 -12 -55 -45q0 -43 14 -215l35 -420q2 -25 6 -69t8 -93t6 -61q86 115 144 200q252 373 389 598q33 51 32.5 72t-55.5 35l-55 14q-14 12 -10 37t24 33q199 -6 277 -6q119 0 204 6q13 -11 13 -30v-6 q-2 -24 -19 -34l-59 -12q-92 -18 -129 -62q-123 -135 -275 -352l-247 -354l-355 -524q-27 -16 -71 -17q-33 0 -60 17q-4 27 -8 136t-12 197l-60 736q-10 135 -28.5 178t-73.5 51l-45 6q-10 11 -10 29q0 31 22 41z" />
<glyph unicode="W" horiz-adv-x="1978" d="M286 1327q5 23 21 31q143 -6 254 -6q139 0 232 6q14 -6 13 -34t-15 -36l-37 -6q-57 -8 -64 -31q-1 -6 -1 -17q0 -38 16 -138l53 -357q37 -238 71 -417q20 31 125 170t133 180l-71 491q-10 74 -25.5 94.5t-62.5 26.5l-29 4q-12 12 -7 38t23 32q135 -6 256 -6q119 0 201 6 q16 -4 17.5 -33t-17.5 -37l-37 -8q-68 -8 -73 -29q-6 -29 0 -63l20 -141l23 -148l116 164q123 174 123 184q0 18 -39 29l-47 12q-14 14 -9 40t26 30q119 -6 217 -6q115 0 188 6q16 -8 15 -34t-15 -38l-61 -12q-55 -10 -86 -32.5t-111 -111.5q-61 -70 -160.5 -194.5 t-132.5 -175.5q35 -248 68 -438l518 749q102 156 108 176q6 18 -30 31l-33 10q-14 14 -9 38t23 32q115 -6 215 -6q109 0 178 6q12 -7 12 -25q0 -30 -18 -45l-63 -14q-70 -16 -96 -47q-74 -78 -177 -226l-207 -288l-300 -419q-133 -189 -211 -310q-27 -16 -72 -17 q-33 0 -53 17q-16 209 -72 530q-297 -406 -379 -541q-27 -16 -72 -16q-25 0 -51 16q-8 94 -57 424l-113 736q-14 90 -29.5 112.5t-64.5 32.5l-47 10q-12 12 -13 29z" />
<glyph unicode="X" horiz-adv-x="1312" d="M-90 66l57 8q51 10 86 26q102 51 199 148q328 328 418 432l-17 53q-66 209 -139 412q-18 51 -41.5 78.5t-37 33t-46.5 13.5l-59 16q-12 18 -7 43t23 29q113 -6 301 -6q184 0 256 6q16 -10 16.5 -36t-16.5 -36l-63 -12q-72 -14 -72 -23v-5q0 -27 16 -79q37 -123 95 -282 q113 113 278 301q41 43 41 61.5t-43 28.5l-45 10q-14 16 -9 40t23 32q123 -6 250 -6q135 0 228 6q16 -6 16 -33t-14 -39l-68 -14q-106 -25 -207 -111q-236 -203 -414 -395q82 -274 181 -555q27 -74 52.5 -99.5t98.5 -37.5l53 -8q12 -12 8.5 -39t-18.5 -33q-98 6 -295 6 q-176 0 -295 -6q-20 8 -20 36.5t20 35.5l62 8q72 10 72 35q0 47 -21 112l-104 330q-119 -121 -326 -375q-41 -47 -41 -65q0 -23 64 -37l40 -8q14 -10 9.5 -38t-23.5 -34q-150 6 -295 6q-141 0 -233 -6q-13 11 -13 32q0 31 19 40z" />
<glyph unicode="Y" horiz-adv-x="1216" d="M242 66l82 12q68 10 93 43t70 174l29 90q25 82 26 166q0 44 -7 90l-84 465q-16 98 -36 133t-77 41l-45 6q-12 14 -8 40t22 32q164 -6 275 -6q127 0 268 6q18 -6 17 -35t-15 -37l-76 -14q-66 -12 -65 -45q0 -31 12 -117q29 -199 68 -436l282 352q150 186 150 215 q0 25 -43 33l-54 12q-16 10 -12 37t23 35q172 -6 256 -6q119 0 196 6q15 -6 16 -31v-3q-1 -28 -18 -38l-51 -8q-55 -8 -89 -30.5t-104 -96.5q-150 -152 -372 -426q-72 -84 -101.5 -138.5t-58.5 -142.5l-47 -149q-29 -90 -34 -130t13.5 -60.5t71.5 -28.5l76 -10q10 -8 6 -36 t-18 -36q-195 6 -332 6q-125 0 -309 -6q-15 7 -15 31q0 34 19 41z" />
<glyph unicode="Z" horiz-adv-x="1316" d="M-25 37q106 86 273 264l821 885q33 37 33 57q0 14 -51 14h-250q-127 0 -197 -47q-86 -57 -174 -186q-20 -10 -48 -3t-30 28q139 311 158 360q8 6 26.5 6t30.5 -4q0 -35 28 -47t130 -12h621q158 0 206 6q15 -5 15 -25q0 -12 -8 -22q-41 -29 -179.5 -164t-244.5 -250 l-330 -356q-371 -401 -371 -420q0 -27 187 -27h174q156 0 227 39q115 63 219 219q12 12 43 8t35 -22q-33 -92 -84 -199.5t-86 -144.5q-172 4 -227 4q-68 2 -205 2h-531q-158 0 -190 -6q-24 6 -24 26q0 8 3 17z" />
<glyph unicode="[" horiz-adv-x="696" d="M90 -311l510 1720q45 2 158 2q162 0 219 -8q8 -10 5 -31.5t-13 -28.5l-148 -22q-41 -6 -57 -21q-43 -43 -123 -311l-260 -880q-82 -276 -70 -312q4 -14 47 -20l123 -23q8 -12 6 -30.5t-12 -28.5q-66 -8 -227 -8q-113 0 -158 2z" />
<glyph unicode="\" horiz-adv-x="819" d="M219 1384h187l391 -1417h-187z" />
<glyph unicode="]" horiz-adv-x="696" d="M-122 -273q3 22 13 27l148 23q41 6 57 20q43 43 123 312l260 880q71 240 71 298q0 9 -1 13q-4 14 -47 21l-123 22q-8 12 -6 31t12 29q66 8 227 8q113 0 158 -2l-510 -1720q-45 -2 -158 -2q-162 0 -219 8q-6 7 -6 21q0 5 1 11z" />
<glyph unicode="^" d="M205 500l342 782h139l340 -782h-182l-228 538l-227 -538h-184z" />
<glyph unicode="_" horiz-adv-x="1024" d="M0 -154h1024v-102h-1024v102z" />
<glyph unicode="`" horiz-adv-x="778" d="M467 1358q45 31 82 31q35 0 53 -60l109 -360q-3 -34 -38 -34q-7 0 -16 1l-221 276q-31 40 -31 72q0 35 62 74z" />
<glyph unicode="a" horiz-adv-x="1034" d="M39 98q0 98 88 262t219 283q197 176 365 176q43 0 90 -47l47 96q20 14 55 15q39 0 76 -13q57 -16 76 -53q-158 -391 -246 -647q-12 -43 4 -43q23 0 85.5 40t107.5 87q16 0 28.5 -12.5t9.5 -32.5q-70 -98 -187.5 -169t-221.5 -71q-37 0 -58.5 25.5t-21.5 54.5q0 27 23 86 l61 158h-8q-98 -131 -229.5 -226.5t-237.5 -95.5q-49 0 -87 39t-38 88zM326 158q4 -33 28 -33q31 0 98.5 65.5t120.5 137.5q51 68 104.5 167t74.5 156q-33 78 -86.5 78t-137.5 -106q-80 -100 -141 -231.5t-61 -215.5v-18z" />
<glyph unicode="b" horiz-adv-x="1048" d="M117 176q0 100 78 313l264 723q11 33 11 54q0 27 -34 49l-47 31q-12 31 10 49q47 20 172 43.5t205 25.5q20 -2 21 -20l-105 -266l-233 -607h4q84 115 187.5 196t201.5 81q109 0 156 -65.5t47 -141.5q0 -215 -162 -399q-231 -270 -543 -271q-111 0 -172 55.5t-61 149.5z M350 147q0 -39 16.5 -62.5t36.5 -23.5q63 0 164 121q104 125 170 262.5t68 204.5q0 37 -17.5 56.5t-39.5 19.5q-43 0 -118 -61.5t-147 -171.5q-133 -202 -133 -345z" />
<glyph unicode="c" horiz-adv-x="776" d="M82 209q0 100 50 225t134 219q174 195 369 195q92 0 150.5 -42t58.5 -116q0 -57 -41 -93t-98 -36q-78 0 -82 76q-6 121 -41 121q-57 0 -127 -129q-100 -188 -101 -373q0 -135 86 -135q90 0 213 131q20 0 32.5 -13.5t10.5 -31.5q-57 -90 -170.5 -163t-236.5 -73 q-100 0 -153.5 63.5t-53.5 174.5z" />
<glyph unicode="d" horiz-adv-x="1081" d="M141 434q70 141 187 244q193 170 393 170q74 0 110 -51l134 399q16 47 15 72v7q-3 24 -30 38l-57 33q-12 31 10 49q47 20 172 42.5t199 26.5q20 -2 20 -20q-35 -92 -94 -266l-297 -891q-31 -88 -35 -131q0 -25 18.5 -25t80 41t106.5 88q34 -4 34 -36q0 -5 -1 -11 q-51 -76 -167 -159t-249 -83q-78 0 -78 86q0 29 41 148l47 135h-4q-47 -72 -87 -122t-102.5 -113.5t-137 -98.5t-154.5 -35q-68 0 -109 55q-39 52 -39 132q0 126 74 276zM301 133q0 -45 31 -45q29 0 118 71.5t154 157.5q121 156 168 301q13 40 13 72q0 14 -3 27 q-8 41 -34 41q-29 0 -76 -35q-94 -70 -197 -217q-72 -102 -123 -216t-51 -157z" />
<glyph unicode="e" horiz-adv-x="821" d="M82 207q0 137 78 283.5t198 238.5q156 119 322 119q88 0 143.5 -47t55.5 -117q0 -219 -516 -352q-10 -31 -11 -99q0 -45 22.5 -78.5t65.5 -33.5q123 0 267 143q16 0 29.5 -13t11.5 -34q-74 -117 -192 -181.5t-255 -64.5q-106 0 -162.5 66t-56.5 170zM379 422 q113 33 194 117q31 31 51.5 82t22.5 90q0 18 -10 32.5t-29 14.5q-41 0 -88 -53q-98 -107 -141 -283z" />
<glyph unicode="f" horiz-adv-x="612" d="M-346 -393q0 49 41 90t84 41q39 0 57 -33q37 -68 71 -106.5t52 -38.5q33 0 78 164l268 989h-192q-5 15 -5 30q0 17 6 34q11 34 29 42h193q68 217 141 348q166 297 443 297q111 0 164 -46t53 -122q-2 -68 -47.5 -109.5t-83.5 -41.5q-41 0 -60 59q-25 90 -53.5 130 t-52.5 40q-45 0 -113 -151q-61 -133 -135 -404h233q12 -20 2 -57t-34 -49h-232l-99 -347q-73 -255 -116 -391q-80 -250 -149 -346q-53 -76 -142.5 -128t-193.5 -52q-86 0 -146.5 41t-60.5 117z" />
<glyph unicode="g" horiz-adv-x="851" d="M-100 -346q0 45 26.5 86t59 67.5t88 52t87.5 37t79 25.5q-80 55 -80 111q0 35 42 82t87 80v4q-78 18 -129 75q-49 55 -49 152q0 65 27.5 133t80.5 134.5t148.5 110.5t214.5 44q45 0 100 -21q14 -4 41 -18t37 -14q35 0 84 16q66 25 100 25q70 0 70 -84q0 -45 -21.5 -64.5 t-46 -19.5t-57.5 12q-37 12 -51 12q-18 0 -15 -22q6 -49 6 -58q0 -172 -127 -292.5t-319 -129.5q-31 -27 -31 -49q0 -35 144 -106l78.5 -39t75.5 -47t78 -62.5t49.5 -70.5t23.5 -90q0 -76 -55.5 -133.5t-141.5 -87t-168 -43t-153 -13.5q-61 0 -122 9.5t-122.5 31t-100 64.5 t-38.5 100zM154 -303q0 -68 68.5 -108t170.5 -40q86 0 141.5 29t55.5 76q0 72 -101 137q-123 78 -159 78q-53 0 -111 -47q-65 -53 -65 -125zM332 340q0 -59 55 -59q66 0 148 151q33 57 61.5 138t28.5 122q0 31 -15.5 48.5t-36.5 17.5q-51 0 -114 -84q-47 -63 -87 -164.5 t-40 -169.5z" />
<glyph unicode="h" horiz-adv-x="1044" d="M45 53l395 1143q18 55 16.5 78.5t-28.5 38.5l-57 33q-12 31 10 49q49 20 174 43.5t201 25.5q16 -2 22 -20l-98 -266l-227 -639h4q80 109 182 188q147 121 266 121q72 0 114 -49t42 -133q0 -117 -61.5 -261.5t-141.5 -254.5q-57 -76 -140 -127.5t-171 -51.5 q-45 0 -78 22.5t-33 61.5t25.5 65.5t48 26.5t41.5 -22q37 -43 49 -43q14 0 39 61q57 135 109.5 292t52.5 227q0 55 -37 55q-33 0 -96.5 -55.5t-141.5 -157.5q-29 -37 -60.5 -88t-56.5 -99l-54 -101q-28 -54 -44 -90l-35 -75l-20 -43q-18 -37 -102 -37q-51 0 -87 19.5 t-22 62.5z" />
<glyph unicode="i" horiz-adv-x="632" d="M104 53q0 27 25 88l213 510q10 29 -4 29q-23 0 -86.5 -43t-95.5 -74q-18 2 -28.5 18.5t-4.5 30.5q80 98 204 167t208 69q35 0 64.5 -28.5t29.5 -61.5q0 -25 -27 -90l-213 -502q-14 -31 8 -31q20 0 86 45t107 84q18 0 30.5 -14t8.5 -35q-68 -90 -191 -167t-239 -77 q-37 0 -66 29.5t-29 52.5zM461 1126q0 70 46 120t116 50q53 0 83.5 -31.5t30.5 -88.5q0 -70 -43 -118t-112 -48q-55 0 -88 32.5t-33 83.5z" />
<glyph unicode="j" horiz-adv-x="614" d="M-332 -403q0 49 35 84.5t80 35.5q33 0 57 -34q84 -133 113 -133.5t61 81.5q41 96 215 660q100 319 103 350q0 31 -19 31q-27 0 -88 -48.5t-96 -82.5q-18 2 -29.5 20.5t-5.5 34.5q78 90 193.5 171t224.5 81q39 0 65.5 -28.5t26.5 -65.5q0 -84 -90 -365q-98 -303 -164 -485 q-104 -287 -252 -387q-102 -68 -227 -68q-78 0 -140.5 41t-62.5 107zM420 1126q0 70 46 120t116 50q53 0 83.5 -31.5t30.5 -88.5q0 -70 -43 -118t-112 -48q-55 0 -88 32.5t-33 83.5z" />
<glyph unicode="k" horiz-adv-x="1009" d="M51 53l387 1143q16 47 16 71q0 28 -32 46l-57 33q-12 31 10 49q49 20 175 42.5t202 26.5q20 -2 20 -20l-98 -266l-203 -578h6q82 102 174 166q117 82 250 82q84 0 129 -44t45 -108q0 -115 -114 -211q-84 -70 -252 -114q-20 -6 -13 -35l7 -36q5 -26 10 -41l10 -38 q6 -23 12 -37t14.5 -27.5t18.5 -20.5t23 -7q45 0 147 107q14 4 27.5 -7.5t17.5 -27.5q-43 -86 -134 -158t-198 -72q-86 0 -125 80q-31 61 -59 191q-12 57 -41 57q-31 0 -45 -15.5t-31 -58.5l-84 -217q-14 -37 -96 -37q-51 0 -92 20q-30 14 -31 42q0 9 4 20zM410 391 q0 -14 32 -14q92 0 217 84q145 100 146 176q0 31 -18.5 48t-47.5 17q-109 0 -286 -229q-43 -53 -43 -82z" />
<glyph unicode="l" horiz-adv-x="563" d="M66 59q0 43 28 123l350 1014q16 47 16 71q0 29 -30 46l-57 33q-12 31 10 49q49 20 175 43.5t202 25.5q20 -2 20 -20q-4 -10 -39 -108l-57 -160l-336 -973q-16 -46 -16 -69q0 -25 18 -25q31 0 95.5 60t117.5 122q16 2 28.5 -11.5t10.5 -33.5q-141 -274 -405 -275 q-131 0 -131 88z" />
<glyph unicode="m" horiz-adv-x="1585" d="M84 614q47 104 146.5 169t240.5 65q68 0 85 -44q8 -19 8 -38q0 -24 -13 -47l-92 -242h4q256 371 457 371q113 0 112 -119q0 -41 -88 -252h6q109 170 228.5 270.5t228.5 100.5q66 0 100.5 -39t34.5 -86q0 -70 -41 -176l-151 -367q-18 -45 8 -45q47 0 182 139q16 4 29.5 -7 t11.5 -31q-53 -94 -173 -179.5t-259 -85.5q-35 0 -61.5 26t-26.5 54q0 37 31 111q127 297 174 428q27 72 26 96q0 29 -28 29q-47 0 -150 -131q-111 -137 -311 -568q-20 -45 -84 -45q-72 0 -112 17.5t-29 48.5q16 51 213 553q29 70 28 96q0 29 -28 29q-57 0 -168 -140 q-119 -150 -297 -567q-16 -37 -80 -37q-70 0 -110 17.5t-30 48.5q4 12 48 134l93 262l62 175q14 43 14 62q0 22 -28 22q-14 0 -28.5 -4t-28.5 -13l-25 -16q-10 -6 -26 -21l-20 -21l-22 -23l-16 -19q-16 -2 -29.5 10.5t-15.5 28.5z" />
<glyph unicode="n" horiz-adv-x="1114" d="M92 604q43 88 159 166t232 78q43 0 62.5 -23.5t17.5 -50t-12 -55.5l-96 -252h8q59 82 100 133t105.5 116.5t133 98.5t140.5 33q63 0 96 -37t33 -82q0 -76 -41 -182l-151 -367q-18 -45 8 -45q23 0 81 46t101 93q16 4 29.5 -7t11.5 -31q-53 -94 -173 -179.5t-257 -85.5 q-35 0 -61.5 26t-26.5 54q0 37 31 111q127 297 174 428q27 72 26 96q0 29 -26 29q-53 0 -156 -131q-121 -154 -317 -576q-18 -37 -99 -37q-51 0 -88 20q-27 14 -26 40q0 10 4 22l196 555q12 32 12 50q0 24 -20 24q-59 0 -174 -111q-33 0 -37 33z" />
<glyph unicode="o" horiz-adv-x="958" d="M159 506q56 127 156 213q150 129 320 129q154 0 227.5 -87t73.5 -212q0 -113 -51 -231.5t-140 -202.5q-150 -143 -348 -144q-147 0 -223 83q-74 81 -74 196q1 124 59 256zM336 145q0 -84 63 -84q68 0 152 138q53 88 104.5 228t51.5 245q0 86 -58 86q-47 0 -110 -78 q-68 -86 -135.5 -244t-67.5 -291z" />
<glyph unicode="p" horiz-adv-x="1040" d="M-227 -500q0 19 12 29l65 10q63 10 90 44t64 141l324 950q-80 -16 -213 -88q-18 2 -26.5 23.5t1.5 35.5q27 31 120 78t152 63l60 154q33 29 98 29q119 0 137 -39l-41 -117q37 6 58 6q180 0 261 -83t81 -218q0 -86 -43 -187.5t-111 -168.5q-186 -190 -422 -191 q-39 0 -84 21q-18 -2 -28 -35l-92 -272q-12 -39 -14.5 -62.5t13 -42t52.5 -22.5l86 -9q18 -8 15 -35q-4 -28 -26 -34h-145q-156 0 -422 -23q-22 10 -22 43zM403 178q-7 -22 -7 -39q0 -27 18 -45q31 -33 63 -33q53 0 121 82q68 80 112 190.5t44 211.5q0 84 -39 126t-96 42 q-8 0 -33 -4z" />
<glyph unicode="q" horiz-adv-x="1040" d="M70 162q0 207 180 428q109 133 238.5 195.5t248.5 62.5q88 0 135 -100q55 84 111 149q15 6 33 6q14 0 31 -4q37 -8 49 -35l-125 -399l-238 -780q-14 -51 -14 -81q0 -19 6 -29q14 -26 76 -30l51 -4q12 -14 10 -35.5t-12 -29.5q-272 -6 -582 -60q-16 12 -16 35t14 33l68 16 q72 18 98.5 49t54.5 123l201 633h-4l-57 -80q-20 -29 -71.5 -85t-95.5 -86.5t-110.5 -56.5t-134.5 -26q-72 0 -108.5 61.5t-36.5 129.5zM319 135q0 -47 35 -47q29 0 103.5 58.5t148.5 156.5q158 209 158 369q0 39 -15.5 65.5t-35.5 26.5q-16 0 -43 -15.5t-78 -71.5 t-107 -147q-84 -137 -125 -245.5t-41 -149.5z" />
<glyph unicode="r" horiz-adv-x="813" d="M96 621q39 78 130 152.5t192 74.5q108 0 107 -97q0 -41 -19 -100l-74 -217h10q106 190 170 273q104 141 201 141q100 0 100 -123q0 -82 -45 -141.5t-90 -59.5q-18 0 -30.5 14.5t-17.5 30t-11 49.5q-8 47 -33 48q-41 0 -141 -179q-27 -47 -50.5 -94t-48.5 -103l-37 -88 l-42 -102q-29 -70 -37 -92q-16 -37 -99 -37q-51 0 -89 20q-27 14 -27 40q0 10 4 22l101 311l91 269q9 27 9 43q0 22 -17 22q-27 0 -77 -36.5t-93 -88.5q-18 2 -30 17q-8 11 -8 22q0 5 1 9z" />
<glyph unicode="s" horiz-adv-x="663" d="M18 129q0 49 30 84t71 35q18 0 63 -45q100 -106 162 -107q27 0 48.5 18.5t21.5 41.5q0 43 -60 104l-67 72q-100 104 -101 207q0 123 115 223q104 86 219 86q84 0 142.5 -47t58.5 -117q0 -53 -32 -79.5t-62 -26.5q-23 0 -47 28q-102 117 -162 117q-20 0 -36.5 -16.5 t-16.5 -36.5q0 -39 53 -92l78 -80q104 -106 104 -209q0 -127 -123 -228q-106 -90 -256 -90q-78 0 -140.5 43t-62.5 115z" />
<glyph unicode="t" horiz-adv-x="657" d="M111 59q0 43 22 111l186 543h-151q-14 12 -8 39.5t24 38.5l178 36l148 197q25 16 70 16q57 0 75 -34l-55 -187h188q17 -17 18 -42q0 -8 -2 -16q-7 -36 -26 -48h-207l-190 -531q-16 -47 12 -47q27 0 90.5 47t126.5 111q45 -2 41 -47q-61 -92 -196.5 -183.5t-249.5 -91.5 q-41 0 -67.5 26.5t-26.5 61.5z" />
<glyph unicode="u" horiz-adv-x="1112" d="M106 604q66 88 190 166t232 78q35 0 64 -27.5t29 -58.5q0 -33 -11 -57l-202 -498q-8 -20 -9 -33q0 -22 25 -22q27 0 78 43q178 152 409 636q37 16 76 17q86 0 144 -45l-234 -604q-7 -22 -7 -36q0 -21 17 -22q23 0 83.5 45t103.5 88q37 -6 37 -47q-49 -86 -180.5 -171 t-250.5 -85q-41 0 -64 31q-13 17 -13 38q0 17 8 36l114 291h-4q-102 -143 -244.5 -269.5t-252.5 -126.5q-51 0 -82 31t-31 76q0 41 31 121l170 428q8 20 6 36.5t-14 16.5q-14 0 -39 -14.5t-45.5 -29.5t-53.5 -43l-45 -38q-37 14 -35 49z" />
<glyph unicode="v" horiz-adv-x="942" d="M96 594q45 90 162 172t240 82q45 0 71.5 -32t26.5 -71q0 -41 -33 -129l-112 -303q-33 -92 -33 -131q0 -20 11 -38.5t36 -18.5q31 0 85 39t105 112q41 59 72 151.5t31 145.5q0 106 -19 150q2 59 36 92t89 33q117 -12 117 -154q0 -117 -106.5 -290t-249.5 -287 q-180 -145 -334 -146q-59 0 -95 48.5t-36 93.5q0 76 30 163l121 332q13 33 14 52q0 20 -18 20q-45 0 -170 -119q-14 0 -26.5 10.5t-14.5 22.5z" />
<glyph unicode="w" horiz-adv-x="1413" d="M96 594q45 90 162 172t238 82q45 0 71.5 -32t26.5 -71q0 -41 -33 -129l-112 -303q-45 -121 -50 -159q0 -29 23 -29q41 0 113 74q109 115 162 223t83 248q16 76 49 117.5t62 51t69.5 9.5t73.5 -24.5t33 -65.5q0 -57 -61 -170q-117 -219 -117 -371q0 -84 55 -84 q37 0 91.5 48t95 122t63.5 165t23 155q0 68 -11 108q4 55 40 86t89 31q119 -12 119 -154q-4 -227 -246 -485q-106 -115 -227 -176.5t-195 -61.5q-49 0 -88 37t-39 90q0 35 37 152h-6q-4 -4 -46 -50t-64 -67q-180 -162 -318 -162q-59 0 -91 41t-32 80q0 59 47 184l125 332 q12 32 12 50q0 22 -18 22q-45 0 -170 -119q-35 0 -39 33z" />
<glyph unicode="x" horiz-adv-x="927" d="M-25 74q0 55 41 116.5t80 61.5q20 0 45 -62q16 -37 43 -36q29 0 144 137l65 78l-61 194q-25 78 -43 78q-37 0 -107 -104q-16 -8 -34.5 0t-20.5 24q27 90 104.5 188.5t178.5 98.5q80 0 120 -133l48 -154l73 88q88 106 148.5 152.5t124.5 46.5q45 0 71.5 -33t26.5 -76 q0 -70 -29.5 -122t-70.5 -52q-31 0 -45 45q-16 51 -50 52q-45 0 -153 -125l-68 -76l51 -162q47 -145 74 -145q35 0 111 127q12 12 33.5 10t29.5 -21q-37 -121 -109.5 -210t-164.5 -89q-106 0 -160 156l-45 137l-117 -141q-127 -152 -239 -152q-41 0 -68 28t-27 75z" />
<glyph unicode="y" horiz-adv-x="870" d="M-176 -406q0 53 35 90q37 38 88 37q49 0 90 -59q49 -70 94 -70q35 0 82 54q63 74 86 192q26 131 26 337q0 41 -1 85q-10 406 -80 406q-29 0 -66 -53.5t-63 -112.5q-14 -12 -38 -6t-30 22q18 53 42 101.5t61.5 105.5t92 91t117.5 34q84 0 131.5 -85t51.5 -286q1 -39 0 -77 q0 -189 -17 -343h6q135 262 187 580q18 104 20 125q10 86 70 86q51 0 89 -23.5t40 -68.5q0 -20 -21.5 -94t-72.5 -197t-115 -238q-240 -430 -389 -585q-182 -193 -358 -193q-61 0 -109 38q-49 39 -49 107z" />
<glyph unicode="z" horiz-adv-x="905" d="M-2 51q0 51 104 142q100 84 269 213l223 172q27 23 -4 34q-141 51 -266 52q-20 0 -35 -11.5t-15 -27.5q0 -18 24 -47t24 -43q0 -25 -23 -44.5t-55 -21.5q-45 -2 -76 26.5t-31 69.5q0 88 111 187q96 82 227 82q68 0 174 -39q78 -27 117 -27q57 0 108 70q37 4 65 -27 t15 -74l-602 -483v-8q80 0 189 -60q137 -74 176 -73q59 0 59 41q0 23 -24.5 74t-24.5 77q0 23 17.5 40t46.5 17q55 0 93 -46t36 -95q-2 -104 -107 -184q-102 -80 -221 -80q-96 0 -217 66q-94 49 -148 49q-72 0 -108 -99q-61 -4 -91 20.5t-30 57.5z" />
<glyph unicode="{" horiz-adv-x="696" d="M199 -72q23 88 84 241t73 193l13 68q6 33 -29 59.5t-113 32.5q-6 12 -3 29.5t12 23.5q63 2 108 17.5t69.5 44.5t36 53.5t21.5 59.5q16 55 43 197.5t49 219.5q25 84 66 138.5t100 79t114.5 31.5t135.5 5q14 -8 12 -29.5t-16 -29.5q-123 -14 -172 -63.5t-74 -133.5 q-18 -59 -38.5 -197.5t-39.5 -203.5q-51 -174 -209 -211l-2 -8q143 -39 90 -213q-20 -66 -83.5 -206t-77.5 -196q-47 -176 112 -200q8 -10 5 -28.5t-13 -25.5q-145 -4 -228 53.5t-46 198.5z" />
<glyph unicode="|" horiz-adv-x="507" d="M225 -512v2048h181v-2048h-181z" />
<glyph unicode="}" horiz-adv-x="696" d="M-117 -264q123 14 172 63t74 133q18 59 38.5 197.5t39.5 204.5q51 174 209 211l2 8q-105 28 -105 129q0 37 15 84q20 66 83.5 206t77.5 195q11 40 11 73q0 109 -123 128q-8 10 -5 28.5t13 24.5q10 0 19 1q132 0 209 -54q57 -40 58 -120q0 -36 -12 -79q-23 -88 -84 -240.5 t-73 -193.5l-13 -67q-6 -33 29 -59.5t113 -33.5q6 -12 3 -29.5t-11 -23.5q-63 -2 -108.5 -17.5t-70 -44t-36 -53t-21.5 -59.5q-16 -55 -43 -197.5t-49 -220.5q-25 -84 -66 -138t-100 -78.5t-115 -31.5q-43 -6 -101 -6h-34q-13 7 -12 25q-1 25 16 35z" />
<glyph unicode="~" d="M135 227q4 39 36 107.5t67 114.5q33 39 73.5 50t110.5 11h260q70 0 106.5 34t67.5 118q16 10 37 10q12 0 25 -3q37 -9 53 -38q-35 -131 -113 -215q-45 -53 -156 -54h-282q-61 0 -101 -39.5t-73 -121.5q-15 -10 -38 -10q-11 0 -25 3q-40 6 -48 33z" />
<glyph unicode="&#xa1;" horiz-adv-x="505" d="M-92 -461q4 23 90 240l229 579q14 10 40 10.5t42 -10.5l-73 -575q-27 -203 -37 -244q-25 -84 -168 -84q-68 0 -100 21q-25 16 -25 47q0 7 2 16zM184 623q0 78 50.5 131t123.5 53q61 0 101.5 -39t40.5 -104q0 -76 -50.5 -134.5t-127.5 -58.5q-61 0 -99.5 41t-38.5 111z " />
<glyph unicode="&#xa2;" d="M229 573q0 233 175.5 370.5t414.5 137.5h19l53 160q14 16 48 16t50 -16l-55 -168q102 -14 174 -47q20 -20 20 -70q0 -43 -26.5 -88t-57.5 -45q-14 0 -24 11q-4 4 -30.5 37.5t-52.5 61.5t-40 32l-201 -603q14 -4 43 -4q133 0 246 95q18 0 29.5 -14.5t9.5 -32.5 q-141 -184 -375 -187l-63 -194q-16 -16 -50 -16.5t-49 16.5l66 198q-164 23 -244 124t-80 226zM496 608q0 -168 112 -217l199 594q-145 -8 -228 -123t-83 -254z" />
<glyph unicode="&#xa3;" d="M-64 8q10 51 127 133q203 143 242 439q2 10 2 14t-2 5t-11 2t-18 3h-165q-10 10 -1 42t31 50h156q20 0 25.5 3t7.5 16q6 31 18 76q55 242 193.5 381t339.5 139q113 0 170 -51q20 -17 20 -48q0 -9 -2 -20q-10 -29 -45 -62.5t-51 -33.5q-20 0 -43 20q-72 84 -144 84 q-94 0 -141 -262q-23 -117 -35 -211q-4 -20 2 -25.5t33 -5.5h250q10 -14 0 -44.5t-31 -47.5h-239q-27 0 -36 -5t-14 -24q-29 -127 -97 -201.5t-179 -131.5l2 -4q7 1 17 0q39 0 116 -13q49 -6 178 -71q102 -51 168 -52q41 0 49 33q3 12 3 30q0 31 -9 79q-1 8 -1 16 q0 30 19 48q24 24 56 24q39 0 65 -37q15 -21 14 -58q0 -26 -7 -61q-18 -80 -112.5 -169t-197.5 -89q-100 0 -233 92q-139 94 -219 94q-59 0 -88 -77q-10 -20 -59.5 -38t-94.5 -18q-31 0 -31 23q0 6 2 14z" />
<glyph unicode="&#xa4;" d="M174 299l94 86q-84 98 -84 256t84 256l-94 86q8 49 48 84t85 39l76 -100q100 74 243.5 73.5t243.5 -73.5l76 100q45 -4 85 -39t48 -84l-94 -86q84 -98 84 -256t-84 -256l94 -86q-8 -49 -48 -84t-85 -39l-76 100q-100 -74 -243.5 -73.5t-243.5 73.5l-76 -100q-45 4 -85 39 t-48 84zM373 641q0 -123 74.5 -202t179 -79t179.5 80t75 201t-75 201t-179.5 80t-179 -79t-74.5 -202z" />
<glyph unicode="&#xa5;" d="M109 410q-5 8 -5.5 19.5t5.5 27.5q10 31 30 45h295l49 155h-295q-10 14 -0.5 46t29.5 47h266l-86 346q-12 55 -32.5 85.5t-65.5 37.5l-43 6q-10 10 -3 35.5t30 31.5q147 -6 284 -6q141 0 185 6q16 -4 17 -29.5t-15 -37.5l-58 -15q-30 -9 -43 -18t-13 -26q0 -27 15 -105 q23 -127 64 -273l190 228q115 145 121 160q4 12 -8 22t-37 16l-43 11q-10 12 -5 35.5t15 31.5q160 -6 215 -6q78 0 156 6q15 -5 15 -26q0 -29 -17 -41l-47 -13q-53 -14 -88 -40.5t-113 -114.5l-278 -307h266q12 -14 2 -45t-31 -48h-297l-49 -155h297q12 -14 2 -45t-31 -47 h-297l-51 -172q-21 -87 -21 -123q0 -9 2 -15q7 -27 50 -32l51 -7q10 -8 2 -33.5t-24 -33.5q-129 6 -260 6q-121 0 -275 -6q-10 10 -3 33.5t22 33.5l51 7q57 6 86.5 38.5t62.5 131.5l56 172h-297z" />
<glyph unicode="&#xa6;" horiz-adv-x="507" d="M225 -358v716h181v-716h-181zM225 666v716h181v-716h-181z" />
<glyph unicode="&#xa7;" horiz-adv-x="1105" d="M96 -55q0 43 23.5 72.5t50.5 29.5q23 0 49.5 -22.5t57 -57.5t51.5 -49q68 -47 123 -47q51 0 90 26.5t39 86.5q0 55 -34 124.5t-65.5 113.5t-107.5 140q-129 166 -129 351q0 164 119.5 323.5t286.5 253.5t313 94q57 0 98 -20.5t59.5 -52t26.5 -55t8 -42.5 q0 -41 -30.5 -74.5t-63.5 -33.5t-60 49q-68 129 -163 129q-43 0 -79 -33q-38 -35 -38 -95q0 -108 156 -286q174 -198 174 -420v-20q-6 -141 -119 -303t-276.5 -271.5t-309.5 -109.5q-121 0 -185.5 60.5t-64.5 138.5zM424 856q0 -10 -1 -20q0 -81 30 -158q33 -86 125 -209 q100 -135 127 -231q15 -50 15 -100q0 -65 -26 -130l4 -2q166 121 166 324q0 193 -137 362q-111 137 -140 237q-14 46 -14 94q0 56 19 116q-63 -27 -113.5 -113t-54.5 -170z" />
<glyph unicode="&#xa8;" horiz-adv-x="778" d="M326 1124q8 55 46 90t93 35q53 0 86 -37q26 -29 26 -72q0 -11 -2 -22q-8 -53 -47 -87t-92 -34q-55 0 -87 35q-25 28 -25 70q0 10 2 22zM705 1124q8 55 47 90t94 35q53 0 85 -37q25 -29 25 -71q0 -11 -2 -23q-10 -53 -47 -87t-92 -34t-87 35q-25 28 -25 70q0 10 2 22z" />
<glyph unicode="&#xa9;" horiz-adv-x="1679" d="M254 676q0 293 210 500.5t507 207.5t507 -207.5t210 -500.5t-210 -501t-507 -208t-507 208t-210 501zM393 678q0 -256 170 -435.5t407.5 -179.5t407.5 179.5t170 435.5t-170 433t-407.5 177t-407.5 -177t-170 -433zM608 674q0 168 116 277.5t312 109.5q51 0 96.5 -6 t91.5 -17.5t50 -11.5q4 -31 18 -211q-8 -10 -27.5 -12t-27.5 6q-53 180 -193 180q-84 0 -150.5 -73.5t-66.5 -231.5q0 -152 68 -229.5t162 -77.5q119 0 211 170q8 10 26.5 8t26.5 -12q-10 -111 -53 -183q-84 -55 -232 -55q-123 0 -212 37t-133 96.5t-63.5 118t-19.5 117.5z " />
<glyph unicode="&#xaa;" horiz-adv-x="831" d="M172 582q0 68 66.5 182.5t167.5 196.5q152 125 288 124q33 0 70 -32l35 67q16 10 41 10q29 0 63 -10q53 -18 64 -37q-119 -270 -183 -444q-10 -29 7 -29q12 0 58 29t81 61q14 0 23.5 -13t4.5 -30q-53 -70 -143 -117.5t-178 -47.5q-31 0 -50.5 18t-19.5 36.5t19 59.5 l39 94h-7q-68 -82 -165 -145t-179 -63q-41 0 -71.5 26.5t-30.5 63.5zM410 639v-12q0 -16 14 -17q18 0 69.5 43t86.5 88q41 49 81.5 117t53.5 100q-20 53 -60 54q-41 0 -94 -64q-59 -70 -105 -162t-46 -147z" />
<glyph unicode="&#xab;" horiz-adv-x="962" d="M147 389q-11 15 -11 30q0 22 26 44l373 354q45 0 51 -35l-226 -325q-18 -29 -10 -58l94 -333q-9 -33 -45 -34q-4 0 -8 1q-166 250 -244 356zM512 389q-11 15 -11 30q0 22 25 44l373 354q45 0 51 -35l-225 -325q-18 -29 -10 -58l94 -333q-9 -33 -45 -34q-4 0 -8 1 q-166 250 -244 356z" />
<glyph unicode="&#xac;" d="M164 512v147h821v-522h-180v375h-641z" />
<glyph unicode="&#xad;" horiz-adv-x="655" d="M98 401q0 45 31 84l489 45q29 -33 29 -86q0 -47 -26 -79l-492 -46q-31 31 -31 82z" />
<glyph unicode="&#xae;" horiz-adv-x="716" d="M358 1100q0 119 86 202.5t207 83.5t207 -83.5t86 -202.5t-86 -203t-207 -84t-207 84t-86 203zM428 1099.5q0 -98.5 65.5 -167t157.5 -68.5t157.5 68.5t65.5 167.5q0 100 -65.5 168.5t-157.5 68.5t-157.5 -69.5t-65.5 -168zM509 979q0 6 3 8l10 2q18 4 22.5 11.5t4.5 35.5 v129q0 43 -27 45h-10q-3 5 -3 12v3q1 8 7 10q102 4 135 4q123 0 123 -76q0 -45 -45 -63q-6 -2 0 -17q37 -72 62 -90q18 -12 22 -12q2 0 2 -7t-2 -9q-12 -2 -35 -2q-57 0 -90 47q-4 6 -35 57q-6 12 -20 12q-10 0 -10 -10v-33q0 -27 4 -36t24 -11l8 -2q4 -2 4.5 -11t-4.5 -11 q-12 0 -35.5 1t-38 1t-37 -1t-32.5 -1q-7 2 -7 14zM623 1190v-68q0 -12 4 -14t20 -2q41 0 41 45q0 57 -39 57q-18 0 -22 -3t-4 -15z" />
<glyph unicode="&#xaf;" horiz-adv-x="778" d="M373 1113q8 52 30 71h457q11 -16 11 -44q0 -14 -3 -30q-8 -49 -32 -74h-457q-9 16 -9 43q0 15 3 34z" />
<glyph unicode="&#xb0;" horiz-adv-x="819" d="M315 1020q0 129 87 210t214 81t214.5 -81t87.5 -210q0 -133 -87.5 -212t-214.5 -79t-214 79t-87 212zM457 1020q0 -88 45 -144.5t114 -56.5q76 0 118 55.5t42 145.5q0 88 -45 144.5t-114.5 56.5t-114.5 -56.5t-45 -144.5z" />
<glyph unicode="&#xb1;" d="M123 0v147h821v-147h-821zM123 547v147h321v305h181v-305h319v-147h-319v-322h-181v322h-321z" />
<glyph unicode="&#xb2;" horiz-adv-x="819" d="M193 682q100 68 241 180l120 97q36 30 83 78t63.5 89t16.5 86q0 51 -30 85t-85 34q-98 0 -178 -121q-18 -4 -32.5 6.5t-18.5 28.5q47 94 138 149.5t191 55.5q109 0 185 -60.5t76 -164.5q0 -66 -45.5 -125.5t-86 -88t-149.5 -91.5q-14 -10 -23 -15l-120 -71 q-25 -14 -22 -26.5t34 -12.5h160q51 0 74.5 10t60.5 53q33 14 49 -16q-49 -143 -111 -201q-111 4 -188 4h-242q-111 0 -155 -4q-12 10 -12 22q0 9 6 19z" />
<glyph unicode="&#xb3;" horiz-adv-x="819" d="M200.5 739.5q24.5 24.5 63.5 24.5q18 0 35.5 -10.5t27 -20.5t21.5 -28.5t14 -20.5q27 -37 72 -37q94 0 157.5 77t63.5 181q0 53 -32.5 91t-85.5 38q-70 0 -129 -51q-29 8 -38.5 34.5t7.5 47.5q150 37 248 98q82 49 82 109q0 33 -25 52t-66 19q-88 0 -167 -86 q-18 -4 -30.5 7.5t-10.5 29.5q125 156 311 156q78 0 139.5 -41t61.5 -117q0 -111 -191 -157q-16 -4 -4 -15q6 -4 14 -4q66 -8 116 -60t50 -132q0 -166 -211 -279q-158 -80 -346 -80q-72 0 -123 28q-49 27 -49 81q0 41 24.5 65.5z" />
<glyph unicode="&#xb4;" horiz-adv-x="778" d="M590 973l211 344q35 57 67 53q29 -2 74 -37q49 -49 47 -76q-4 -35 -49 -69l-303 -252q-43 -4 -47 37z" />
<glyph unicode="&#xb5;" horiz-adv-x="1103" d="M-104 -471l432 1098q8 20 6 36.5t-15 16.5q-14 0 -38.5 -14.5t-45 -29.5t-53.5 -43l-45 -38q-37 14 -35 49q66 88 190 166t232 78q35 0 63.5 -27.5t28.5 -58.5q0 -33 -10 -57l-203 -498q-8 -20 -8 -33q0 -22 25 -22q27 0 78 43q184 166 409 636q37 16 76 17q86 0 143 -45 l-233 -604q-7 -22 -7 -36q0 -21 17 -22q23 0 83.5 45t103.5 88q37 -6 36 -47q-49 -86 -180 -171t-250 -85q-41 0 -64 31q-13 17 -13 38q0 17 8 36l100 256h-4q-90 -121 -228.5 -241t-234.5 -120q-20 0 -45 21q-20 -4 -33 -47l-24 -78q-20 -58 -20 -146v-25q2 -63 2 -91 q0 -18 -1 -21q-16 -49 -76.5 -84t-130.5 -35q-43 0 -43 34q1 13 7 30z" />
<glyph unicode="&#xb6;" horiz-adv-x="1044" d="M164 -274q0 49 26.5 89t67.5 50h7q38 0 66 -20q30 -22 34 -50q-37 -37 -37 -84q-2 -33 17.5 -52t49.5 -19q45 0 94.5 55t90.5 188l88 291q7 20 6 34q0 29 -29 30q-141 0 -266 92t-125 264q0 264 244 405q184 106 512 107q178 0 239 -12q8 -5 8 -18q0 -6 -2 -13 q-6 -23 -22 -33l-74 -12q-84 -14 -103.5 -31.5t-43.5 -99.5l-269 -903q-43 -141 -90 -233.5t-118.5 -141.5t-172.5 -49q-76 0 -137 41t-61 125z" />
<glyph unicode="&#xb7;" horiz-adv-x="532" d="M154 406q0 76 50 134t128 58q61 0 99 -41t38 -111q0 -78 -50 -131t-124 -53q-61 0 -101 39t-40 105z" />
<glyph unicode="&#xb8;" horiz-adv-x="778" d="M59 -420q0 29 18.5 47.5t47.5 18.5t73 -37t64.5 -37t36.5 13.5t16 37.5q0 94 -125 144l-8 18l148 215h108l-78 -107q-12 -16 -9 -23t26 -24q98 -78 98 -168q0 -82 -78 -135t-180 -53q-158 0 -158 90z" />
<glyph unicode="&#xb9;" horiz-adv-x="819" d="M313 696l60 9q43 6 62.5 29.5t47.5 109.5l111 327q17 44 17 70q0 5 -1 9q-4 26 -45 32l-53 8q-10 8 -7 28.5t17 29.5q215 33 367 102q14 0 21 -4q6 -3 6 -9q0 -2 -1 -3q-4 -16 -28.5 -81t-36.5 -100l-135 -409q-22 -65 -23 -95q0 -6 1 -11q5 -28 44 -33l54 -9 q6 -8 3 -28.5t-16 -26.5q-172 4 -246 4q-94 0 -221 -4q-13 5 -12 21q-1 22 14 34z" />
<glyph unicode="&#xba;" horiz-adv-x="778" d="M255 867q42 85 116 145q117 94 252 94q129 0 188 -61.5t59 -151.5q0 -76 -37.5 -158t-103.5 -143q-113 -100 -274 -100q-125 0 -185 60q-57 58 -57 148q0 82 42 167zM410 618q0 -53 49 -53t102 86q41 66 80 162t39 166q0 53 -41 53q-31 0 -74 -45q-53 -59 -104 -169 t-51 -200z" />
<glyph unicode="&#xbb;" horiz-adv-x="962" d="M94 68l225 325q18 29 11 58l-94 333q9 33 44 34q4 0 9 -1q166 -250 243 -356q11 -15 12 -30q0 -22 -26 -44l-373 -354q-45 0 -51 35zM459 68l225 325q18 29 10 58l-94 333q9 33 45 34q4 0 8 -1q166 -250 244 -356q11 -15 11 -30q0 -22 -25 -44l-373 -354q-45 0 -51 35z " />
<glyph unicode="&#xbc;" horiz-adv-x="1720" d="M190 557l60 8q43 6 62.5 29.5t47.5 110.5l111 327q17 44 17 70q0 5 -1 9q-4 26 -45 32l-53 8q-10 8 -7 28.5t17 28.5q215 33 367 103q14 0 21.5 -4t5.5 -13q-4 -16 -29 -80.5t-37 -99.5l-135 -409q-22 -65 -22 -96v-10q5 -28 44 -34l54 -8q6 -8 3 -28.5t-16 -26.5 q-172 4 -245 4q-94 0 -222 -4q-13 5 -12 21q-1 22 14 34zM354 -12l1092 1351q5 0 9 1q73 0 79 -62l-1100 -1360q-7 -1 -14 -1q-23 0 -42 15q-26 21 -24 56zM899 221q-9 6 -9 17q0 12 11 30l615 580q29 25 47 24h59q17 0 17 -9q0 -6 -7 -17q-4 -8 -16 -19l-551 -508 q-14 -18 27 -20h145q20 0 27.5 6t13.5 29l45 153q8 33 51 48q92 35 178 34q23 0 17 -20l-64 -215q-4 -16 -4 -22.5t5 -9.5t20 -3h82q16 -6 10 -37t-27 -41h-90q-20 0 -26.5 -5t-14.5 -32l-8 -28q-14 -45 -14 -67q0 -7 2 -12q6 -19 55 -24l27 -2q10 -8 8 -27.5t-17 -27.5 q-180 4 -219 4q-84 0 -231 -4q-12 6 -9 26.5t15 28.5l41 4q63 6 80.5 21.5t34.5 79.5l8 28q8 27 5 32t-26 5h-313z" />
<glyph unicode="&#xbd;" horiz-adv-x="1720" d="M170 557l59 8q43 6 62.5 29.5t48.5 110.5l111 327q17 44 17 70q0 5 -1 9q-4 26 -45 32l-53 8q-10 8 -7 28.5t17 28.5q215 33 366 103q14 0 21.5 -4t5.5 -13q-4 -16 -28.5 -80.5t-36.5 -99.5l-136 -409q-22 -65 -22 -96q0 -6 1 -10q5 -28 44 -34l53 -8q6 -8 3 -28.5 t-15 -26.5q-172 4 -246 4q-94 0 -221 -4q-13 5 -13 21q0 22 15 34zM338 -12l1092 1351q5 0 9 1q73 0 79 -62l-1100 -1360q-7 -1 -14 -1q-23 0 -43 15q-25 21 -23 56zM924 37q100 68 241 180l120 97q36 30 83 78t63.5 89t16.5 86q0 51 -29.5 85t-85.5 34q-98 0 -178 -121 q-18 -4 -32.5 6.5t-18.5 28.5q47 94 138 149.5t192 55.5q109 0 184.5 -60.5t75.5 -164.5q0 -66 -45 -125.5t-86 -88t-150 -92.5q-14 -10 -22 -14l-121 -72q-25 -14 -22 -26t34 -12h160q51 0 74.5 10t60.5 53q33 14 49 -16q-49 -143 -110 -201q-111 4 -189 4h-242 q-111 0 -155 -4q-12 10 -12 22q0 9 6 19z" />
<glyph unicode="&#xbe;" horiz-adv-x="1720" d="M149.5 600q24.5 25 63.5 25q18 0 35.5 -10.5t27 -20.5t21.5 -28.5t14 -20.5q27 -37 72 -37q94 0 157.5 76.5t63.5 181.5q0 53 -32.5 91t-86.5 38q-70 0 -129 -51q-29 8 -38 34.5t8 47.5q150 37 247 98q82 49 82 109q0 33 -24.5 52t-65.5 19q-88 0 -168 -86 q-18 -4 -30.5 7.5t-10.5 29.5q125 156 312 156q78 0 139 -41t61 -117q0 -111 -190 -158q-16 -4 -4 -14q6 -4 14 -4q66 -8 116 -60.5t50 -132.5q0 -166 -211 -278q-158 -80 -346 -80q-72 0 -123 28q-49 27 -49 80q0 41 24.5 66zM416 -12l1091 1351q5 0 10 1q73 0 78 -62 l-1099 -1360q-7 -1 -14 -1q-23 0 -43 15q-25 21 -23 56zM938 221q-9 6 -9 17q0 12 11 30l614 580q29 25 48 24h59q17 0 17 -9q0 -6 -7 -17q-4 -8 -16 -19l-551 -508q-14 -18 26 -20h146q20 0 27.5 6t13.5 29l45 153q8 33 51 48q92 35 178 34q23 0 17 -20l-64 -215 q-4 -16 -4 -22.5t5 -9.5t20 -3h82q16 -6 10 -37t-27 -41h-90q-20 0 -26.5 -5t-14.5 -32l-8 -28q-14 -45 -14 -67q0 -7 2 -12q6 -19 55 -24l27 -2q10 -8 8 -27.5t-17 -27.5q-180 4 -219 4q-84 0 -231 -4q-12 6 -9 26.5t15 28.5l41 4q63 6 80.5 21.5t34.5 79.5l8 28q8 27 5 32 t-26 5h-313z" />
<glyph unicode="&#xbf;" horiz-adv-x="716" d="M-82 -199q0 86 56.5 158t158.5 115l156 63q72 29 102.5 56.5t30.5 62.5q0 55 -8 96q8 12 28.5 15.5t34.5 -5.5q68 -94 68 -204q0 -90 -56.5 -147.5t-173.5 -98.5l-151 -53q-133 -47 -133 -95q0 -35 35.5 -58t91.5 -23q63 0 104 8q74 12 76 12q35 0 56.5 -24.5t21.5 -59.5 q0 -63 -54.5 -113.5t-148.5 -50.5q-111 0 -203 103.5t-92 242.5zM340 623q0 78 50 131t124 53q61 0 101 -39t40 -104q0 -76 -50 -134.5t-128 -58.5q-61 0 -99 41t-38 111z" />
<glyph unicode="&#xc0;" horiz-adv-x="1228" d="M-160 36q0 22 13 32l49 8q78 12 115.5 43t115.5 143l551 811q123 186 131 223q33 2 65.5 12.5t58.5 22.5t46.5 24.5t30.5 20.5l12 8h4q37 0 37 -32q0 -180 -7 -545t-7 -545q0 -117 14 -149.5t84 -40.5l49 -6q11 -7 11 -30q0 -4 -1 -7q-2 -29 -16 -35q-115 6 -289 6 t-270 -6q-18 6 -19.5 33.5t9.5 38.5l47 6q66 8 85 27.5t21 60.5l8 260q2 31 -8 37t-57 6h-244q-49 0 -60 -5t-30 -36l-127 -219q-41 -72 -41 -94q0 -25 51 -33l56 -8q16 -10 12 -38t-23 -36q-154 6 -258 6q-111 0 -196 -6q-23 9 -23 42zM503 581q7 -9 50 -10h186 q37 0 44.5 8.5t9.5 47.5l12 252v188h-4l-119 -190l-168 -261q-13 -19 -13 -29q0 -3 2 -6zM627 1622q-2 7 -2 16q0 29 22 70q33 61 68 61q27 0 65 -28l322 -236q2 -7 2 -14q0 -23 -25 -45l-389 127q-53 16 -63 49z" />
<glyph unicode="&#xc1;" horiz-adv-x="1228" d="M-160 36q0 22 13 32l49 8q78 12 115.5 43t115.5 143l551 811q123 186 131 223q33 2 65.5 12.5t58.5 22.5t46.5 24.5t30.5 20.5l12 8h4q37 0 37 -32q0 -180 -7 -545t-7 -545q0 -117 14 -149.5t84 -40.5l49 -6q12 -8 10 -37t-16 -35q-115 6 -289 6t-270 -6 q-18 6 -19.5 33.5t9.5 38.5l47 6q66 8 85 27.5t21 60.5l8 260q2 31 -8 37t-57 6h-244q-49 0 -60 -5t-30 -36l-127 -219q-41 -72 -41 -94q0 -25 51 -33l56 -8q16 -10 12 -38t-23 -36q-154 6 -258 6q-111 0 -196 -6q-23 9 -23 42zM503 581q7 -9 50 -10h186q37 0 44.5 8.5 t9.5 47.5l12 252v188h-4l-119 -190l-168 -261q-13 -19 -13 -29q0 -3 2 -6zM844 1495l321 242q43 33 66 32q35 0 67 -61q22 -41 23 -70q0 -8 -2 -16q-10 -33 -64 -49l-389 -127q-25 9 -25 33q1 7 3 16z" />
<glyph unicode="&#xc2;" horiz-adv-x="1228" d="M-160 36q0 22 13 32l49 8q78 12 115.5 43t115.5 143l551 811q123 186 131 223q33 2 65.5 12.5t58.5 22.5t46.5 24.5t30.5 20.5l12 8h4q37 0 37 -32q0 -180 -7 -545t-7 -545q0 -117 14 -149.5t84 -40.5l49 -6q12 -8 10 -37t-16 -35q-115 6 -289 6t-270 -6 q-18 6 -19.5 33.5t9.5 38.5l47 6q66 8 85 27.5t21 60.5l8 260q2 31 -8 37t-57 6h-244q-49 0 -60 -5t-30 -36l-127 -219q-41 -72 -41 -94q0 -25 51 -33l56 -8q16 -10 12 -38t-23 -36q-154 6 -258 6q-111 0 -196 -6q-23 9 -23 42zM503 581q7 -9 50 -10h186q37 0 44.5 8.5 t9.5 47.5l12 252v188h-4l-119 -190l-168 -261q-13 -19 -13 -29q0 -3 2 -6zM647 1462q-4 7 -3 15q0 10 5 20l305 256q27 24 51.5 24t47.5 -24l241 -256q2 -16 -9 -32.5t-25 -18.5l-244 127q-16 9 -34 9t-38 -9l-272 -127q-17 0 -25 16z" />
<glyph unicode="&#xc3;" horiz-adv-x="1228" d="M-160 36q0 22 13 32l49 8q78 12 115.5 43t115.5 143l551 811q123 186 131 223q33 2 65.5 12.5t58.5 22.5t46.5 24.5t30.5 20.5l12 8h4q37 0 37 -32q0 -180 -7 -545t-7 -545q0 -117 14 -149.5t84 -40.5l49 -6q12 -8 10 -37t-16 -35q-115 6 -289 6t-270 -6 q-18 6 -19.5 33.5t9.5 38.5l47 6q66 8 85 27.5t21 60.5l8 260q2 31 -8 37t-57 6h-244q-49 0 -60 -5t-30 -36l-127 -219q-41 -72 -41 -94q0 -25 51 -33l56 -8q16 -10 12 -38t-23 -36q-154 6 -258 6q-111 0 -196 -6q-23 9 -23 42zM503 581q7 -9 50 -10h186q37 0 44.5 8.5 t9.5 47.5l12 252v188h-4l-119 -190l-168 -261q-13 -19 -13 -29q0 -3 2 -6zM684 1430q10 41 40 100t56 88q55 57 144 57h133q61 0 98 18.5t62 78.5q20 4 35 4q28 0 40 -15q-27 -109 -80 -176q-43 -57 -141 -57h-110q-78 0 -120 -23.5t-83 -87.5q-11 -4 -26 -4q-8 0 -16 1 q-26 4 -32 16z" />
<glyph unicode="&#xc4;" horiz-adv-x="1228" d="M-160 36q0 22 13 32l49 8q78 12 115.5 43t115.5 143l551 811q123 186 131 223q33 2 65.5 12.5t58.5 22.5t46.5 24.5t30.5 20.5l12 8h4q37 0 37 -32q0 -180 -7 -545t-7 -545q0 -117 14 -149.5t84 -40.5l49 -6q12 -8 10 -37t-16 -35q-115 6 -289 6t-270 -6 q-18 6 -19.5 33.5t9.5 38.5l47 6q66 8 85 27.5t21 60.5l8 260q2 31 -8 37t-57 6h-244q-49 0 -60 -5t-30 -36l-127 -219q-41 -72 -41 -94q0 -25 51 -33l56 -8q16 -10 12 -38t-23 -36q-154 6 -258 6q-111 0 -196 -6q-23 9 -23 42zM503 581q7 -9 50 -10h186q37 0 44.5 8.5 t9.5 47.5l12 252v188h-4l-119 -190l-168 -261q-13 -19 -13 -29q0 -3 2 -6zM659 1583q8 53 45 88t89 35q55 0 87 -36q25 -28 25 -69q0 -11 -2 -22q-8 -53 -46 -87t-93 -34q-51 0 -82 36q-24 28 -24 67q-1 11 1 22zM1067 1583q8 53 45 88t88 35q55 0 87 -36q25 -28 25 -69 q0 -11 -1 -22q-8 -53 -46 -87t-94 -34q-51 0 -81 36q-24 28 -25 67q0 11 2 22z" />
<glyph unicode="&#xc5;" horiz-adv-x="1228" d="M-160 36q0 22 13 32l49 8q78 12 115.5 43t115.5 143l551 811q123 186 131 223q33 2 65.5 12.5t58.5 22.5t46.5 24.5t30.5 20.5l12 8h4q37 0 37 -32q0 -180 -7 -545t-7 -545q0 -117 14 -149.5t84 -40.5l49 -6q11 -7 11 -30q0 -4 -1 -7q-2 -29 -16 -35q-115 6 -289 6 t-270 -6q-18 6 -19.5 33.5t9.5 38.5l47 6q66 8 85 27.5t21 60.5l8 260q2 31 -8 37t-57 6h-244q-49 0 -60 -5t-30 -36l-127 -219q-41 -72 -41 -94q0 -25 51 -33l56 -8q16 -10 12 -38t-23 -36q-154 6 -258 6q-111 0 -196 -6q-23 9 -23 42zM503 581q7 -9 50 -10h186 q37 0 44.5 8.5t9.5 47.5l12 252v188h-4l-119 -190l-168 -261q-13 -19 -13 -29q0 -3 2 -6zM780 1614q0 80 58.5 140.5t152.5 60.5t152.5 -60.5t58.5 -140.5q0 -82 -58.5 -142.5t-152.5 -60.5t-152.5 60.5t-58.5 142.5zM899 1612q0 -53 24.5 -90t67.5 -37t67.5 37t24.5 90 t-24.5 90t-67.5 39q-43 -2 -67.5 -39t-24.5 -90z" />
<glyph unicode="&#xc6;" horiz-adv-x="1736" d="M-209 29.5q0 23.5 14 36.5l56 10q51 8 97 39.5t132 136.5l717 872q35 43 51.5 66.5t21.5 42t-5.5 27t-36.5 12.5l-84 14q-18 10 -14.5 36t26.5 36q90 -4 162 -4q61 -2 200 -2h531q233 0 278 6q-53 -131 -104 -322q-8 -16 -38 -18t-40 10q3 36 3 65q0 59 -11 93 q-25 72 -172 71h-160q-53 0 -67.5 -12t-32.5 -69l-113 -357q-14 -43 -8 -52t47 -9h135q80 0 114 20.5t73 93.5l26 50q16 14 45 13t33 -15l-76 -218q-4 -10 -61 -217q-12 -12 -42 -13t-36 11l6 52q2 20 2 36q0 43 -15 58q-22 20 -102 20h-135q-41 0 -53 -10t-25 -51l-77 -250 q-35 -107 -35 -159q0 -22 6 -34q14 -29 53 -40t148 -11q104 0 154.5 10.5t116 61.5t146.5 164q16 12 45 9t37 -22q-27 -80 -76 -181t-81 -142q-127 4 -232 4q-86 2 -262 2h-252q-143 0 -297 -6q-16 8 -13 36.5t24 35.5l69 10q74 10 100.5 44t71.5 175l94 295q14 37 8 48 t-40 11h-219q-37 0 -56.5 -13t-58.5 -69l-151 -200q-116 -154 -163 -222q-17 -26 -17 -42q0 -18 24 -21l98 -16q12 -12 10 -37t-20 -35q-133 6 -271 6q-113 0 -211 -6q-12 12 -12 35.5zM696 758h154q45 0 60.5 7t23.5 38l119 375q18 59 18 79h-10q-8 -4 -76 -84l-159 -200 l-142 -182q-17 -18 -17 -26q0 -7 29 -7z" />
<glyph unicode="&#xc7;" horiz-adv-x="1347" d="M284 865q83 171 208 282q266 238 663 237q221 0 410 -75q-41 -94 -101 -318q-10 -16 -40.5 -16t-36.5 16q3 30 2 57q0 113 -49 171q-60 72 -203 71q-168 0 -315.5 -121.5t-229.5 -305t-82 -374.5q0 -229 93 -328.5t226 -99.5q121 0 219.5 71t211.5 222q16 12 43.5 8 t31.5 -20q-57 -180 -145 -324q-4 0 -126 -24.5t-224 -26.5l-56 -74q-12 -16 -9 -23t26 -24q98 -78 98 -168q0 -82 -78 -135t-180 -53q-158 0 -158 90q0 29 18.5 47.5t47.5 18.5t73 -37t64.5 -37t36.5 13.5t16 37.5q0 94 -125 144l-8 18l129 188q-264 20 -401 166 q-135 143 -135 360q0 191 85 366z" />
<glyph unicode="&#xc8;" horiz-adv-x="1220" d="M4 66l70 10q74 10 101.5 44t70.5 175l239 762q35 106 35 152q0 8 -1 15q-7 42 -77 54l-49 8q-14 10 -10 37t25 35q145 -6 280 -6h455q233 0 278 6q-53 -131 -104 -322q-8 -16 -38 -18t-40 10q3 36 3 65q0 59 -11 93q-25 72 -172 71h-160q-53 0 -67.5 -12t-32.5 -69 l-113 -357q-14 -43 -8 -52t47 -9h135q80 0 114 20.5t73 93.5l26 50q16 14 45 13t33 -15l-76 -218q-4 -10 -61 -217q-12 -12 -42 -13t-36 11l6 52q2 20 2 36q0 43 -15 58q-22 20 -102 20h-135q-41 0 -53 -10t-25 -51l-77 -250q-35 -107 -35 -160q0 -22 6 -35q14 -29 54 -39 t147 -10q104 0 154 10.5t115.5 61.5t147.5 164q16 12 45 9t37 -22q-27 -80 -76 -181t-81 -142q-127 4 -232 4q-86 2 -262 2h-266q-143 0 -297 -6q-14 7 -14 28q0 37 24 44zM606 1622q-2 7 -2 16q0 29 23 70q33 61 67 61q27 0 66 -28l321 -236q2 -7 3 -14q0 -23 -25 -45 l-389 127q-54 16 -64 49z" />
<glyph unicode="&#xc9;" horiz-adv-x="1220" d="M4 66l70 10q74 10 101.5 44t70.5 175l239 762q35 106 35 152q0 8 -1 15q-7 42 -77 54l-49 8q-14 10 -10 37t25 35q145 -6 280 -6h455q233 0 278 6q-53 -131 -104 -322q-8 -16 -38 -18t-40 10q3 36 3 65q0 59 -11 93q-25 72 -172 71h-160q-53 0 -67.5 -12t-32.5 -69 l-113 -357q-14 -43 -8 -52t47 -9h135q80 0 114 20.5t73 93.5l26 50q16 14 45 13t33 -15l-76 -218q-4 -10 -61 -217q-12 -12 -42 -13t-36 11l6 52q2 20 2 36q0 43 -15 58q-22 20 -102 20h-135q-41 0 -53 -10t-25 -51l-77 -250q-35 -107 -35 -160q0 -22 6 -35q14 -29 54 -39 t147 -10q104 0 154 10.5t115.5 61.5t147.5 164q16 12 45 9t37 -22q-27 -80 -76 -181t-81 -142q-127 4 -232 4q-86 2 -262 2h-266q-143 0 -297 -6q-14 7 -14 28q0 37 24 44zM840 1495l321 242q43 33 66 32q35 0 67 -61q22 -41 23 -70q0 -8 -2 -16q-10 -33 -64 -49l-389 -127 q-25 9 -25 33q1 7 3 16z" />
<glyph unicode="&#xca;" horiz-adv-x="1220" d="M4 66l70 10q74 10 101.5 44t70.5 175l239 762q35 106 35 152q0 8 -1 15q-7 42 -77 54l-49 8q-14 10 -10 37t25 35q145 -6 280 -6h455q233 0 278 6q-53 -131 -104 -322q-8 -16 -38 -18t-40 10q3 36 3 65q0 59 -11 93q-25 72 -172 71h-160q-53 0 -67.5 -12t-32.5 -69 l-113 -357q-14 -43 -8 -52t47 -9h135q80 0 114 20.5t73 93.5l26 50q16 14 45 13t33 -15l-76 -218q-4 -10 -61 -217q-12 -12 -42 -13t-36 11l6 52q2 20 2 36q0 43 -15 58q-22 20 -102 20h-135q-41 0 -53 -10t-25 -51l-77 -250q-35 -107 -35 -160q0 -22 6 -35q14 -29 54 -39 t147 -10q104 0 154 10.5t115.5 61.5t147.5 164q16 12 45 9t37 -22q-27 -80 -76 -181t-81 -142q-127 4 -232 4q-86 2 -262 2h-266q-143 0 -297 -6q-14 7 -14 28q0 37 24 44zM643 1462q-4 7 -4 15q0 10 6 20l305 256q27 24 51.5 24t47.5 -24l241 -256q2 -16 -9 -32.5 t-26 -18.5l-243 127q-16 9 -34 9t-38 -9l-272 -127q-17 0 -25 16z" />
<glyph unicode="&#xcb;" horiz-adv-x="1220" d="M4 66l70 10q74 10 101.5 44t70.5 175l239 762q35 106 35 152q0 8 -1 15q-7 42 -77 54l-49 8q-14 10 -10 37t25 35q145 -6 280 -6h455q233 0 278 6q-53 -131 -104 -322q-8 -16 -38 -18t-40 10q3 36 3 65q0 59 -11 93q-25 72 -172 71h-160q-53 0 -67.5 -12t-32.5 -69 l-113 -357q-14 -43 -8 -52t47 -9h135q80 0 114 20.5t73 93.5l26 50q16 14 45 13t33 -15l-76 -218q-4 -10 -61 -217q-12 -12 -42 -13t-36 11l6 52q2 20 2 36q0 43 -15 58q-22 20 -102 20h-135q-41 0 -53 -10t-25 -51l-77 -250q-35 -107 -35 -160q0 -22 6 -35q14 -29 54 -39 t147 -10q104 0 154 10.5t115.5 61.5t147.5 164q16 12 45 9t37 -22q-27 -80 -76 -181t-81 -142q-127 4 -232 4q-86 2 -262 2h-266q-143 0 -297 -6q-14 7 -14 28q0 37 24 44zM647 1583q8 53 45 88t88 35q55 0 87 -36q25 -28 26 -69q0 -11 -2 -22q-8 -53 -46 -87t-93 -34 q-51 0 -82 36q-24 28 -25 67q0 11 2 22zM1055 1583q8 53 45 88t88 35q55 0 87 -36q25 -28 25 -69q0 -11 -2 -22q-8 -53 -46 -87t-93 -34q-51 0 -82 36q-24 28 -24 67q0 11 2 22z" />
<glyph unicode="&#xcc;" horiz-adv-x="749" d="M0 32q4 30 27 34l55 10q68 12 94.5 46t69.5 173l239 762q34 104 35 149q0 9 -2 16q-8 40 -84 54l-57 10q-12 8 -8 36t22 36q172 -6 316 -6q135 0 288 6q14 -7 14 -28q0 -36 -24 -44l-59 -10q-68 -10 -94.5 -45t-69.5 -174l-240 -762q-29 -90 -34 -129t13.5 -59.5 t71.5 -30.5l58 -10q10 -8 5 -36t-20 -36q-162 6 -307 6q-143 0 -297 -6q-13 7 -13 27q0 5 1 11zM371 1622q-2 7 -2 16q0 29 22 70q33 61 68 61q27 0 65 -28l322 -236q2 -7 2 -14q0 -23 -25 -45l-389 127q-53 16 -63 49z" />
<glyph unicode="&#xcd;" horiz-adv-x="749" d="M0 32q4 30 27 34l55 10q68 12 94.5 46t69.5 173l239 762q34 104 35 149q0 9 -2 16q-8 40 -84 54l-57 10q-12 8 -8 36t22 36q172 -6 316 -6q135 0 288 6q16 -8 13.5 -37t-23.5 -35l-59 -10q-68 -10 -94.5 -45t-69.5 -174l-240 -762q-29 -90 -34 -129t13.5 -59.5 t71.5 -30.5l58 -10q10 -8 5 -36t-20 -36q-162 6 -307 6q-143 0 -297 -6q-13 7 -13 27q0 5 1 11zM604 1495l322 242q43 33 65 32q35 0 68 -61q22 -41 22 -70q0 -8 -2 -16q-10 -33 -63 -49l-389 -127q-25 9 -25 33q0 7 2 16z" />
<glyph unicode="&#xce;" horiz-adv-x="749" d="M0 32q4 30 27 34l55 10q68 12 94.5 46t69.5 173l239 762q34 104 35 149q0 9 -2 16q-8 40 -84 54l-57 10q-12 8 -8 36t22 36q172 -6 316 -6q135 0 288 6q16 -8 13.5 -37t-23.5 -35l-59 -10q-68 -10 -94.5 -45t-69.5 -174l-240 -762q-29 -90 -34 -129t13.5 -59.5 t71.5 -30.5l58 -10q10 -8 5 -36t-20 -36q-162 6 -307 6q-143 0 -297 -6q-13 7 -13 27q0 5 1 11zM414 1462q-4 7 -4 15q0 10 6 20l305 256q27 24 51.5 24t46.5 -24l242 -256q2 -16 -9.5 -32.5t-25.5 -18.5l-244 127q-16 9 -34 9t-37 -9l-273 -127q-16 0 -24 16z" />
<glyph unicode="&#xcf;" horiz-adv-x="749" d="M0 32q4 30 27 34l55 10q68 12 94.5 46t69.5 173l239 762q34 104 35 149q0 9 -2 16q-8 40 -84 54l-57 10q-12 8 -8 36t22 36q172 -6 316 -6q135 0 288 6q16 -8 13.5 -37t-23.5 -35l-59 -10q-68 -10 -94.5 -45t-69.5 -174l-240 -762q-29 -90 -34 -129t13.5 -59.5 t71.5 -30.5l58 -10q10 -8 5 -36t-20 -36q-162 6 -307 6q-143 0 -297 -6q-13 7 -13 27q0 5 1 11zM412 1583q8 53 45 88t88 35q55 0 87 -36q25 -28 25 -69q0 -11 -2 -22q-8 -53 -46 -87t-93 -34q-51 0 -82 36q-24 28 -24 67q0 11 2 22zM819 1583q8 53 45 88t88 35q55 0 87 -36 q25 -28 26 -69q0 -11 -2 -22q-8 -53 -46 -87t-93 -34q-51 0 -82 36q-24 28 -25 67q0 11 2 22z" />
<glyph unicode="&#xd0;" horiz-adv-x="1591" d="M35 63l59 11q68 10 94.5 45t69.5 176l111 354h-205q-12 18 -4 56t28 53h215l97 309q31 93 31 132q0 5 -1 8q-4 36 -55 48l-59 15q-14 12 -10 36.5t22 32.5q199 18 451 19q354 -4 534 -125q221 -150 221 -447t-209 -512q-281 -287 -823 -286q-20 0 -162 6q-72 6 -123 6 q-139 0 -292 -6q-14 7 -14 29q0 38 24 40zM512 169q0 -40 34 -63q36 -25 101 -24q215 0 402 156q139 115 208.5 282.5t69.5 327.5q0 51 -6 98t-30.5 108.5t-65.5 104.5t-117 74t-176 31q-66 0 -84.5 -14.5t-38.5 -80.5l-129 -411h229q10 -20 4 -58t-28 -51h-240l-104 -332 q-29 -88 -29 -148z" />
<glyph unicode="&#xd1;" horiz-adv-x="1478" d="M-16 28.5q0 26.5 18 37.5l47 10q72 16 103.5 43.5t58.5 99.5q45 131 96 295l168 543q35 106 35 153q0 8 -1 15q-7 43 -83 53l-57 8q-14 8 -9 36t23 36q160 -6 258 -6q96 0 164 6q-1 -9 -1 -19q0 -22 6 -50q9 -40 38 -112.5l48 -117.5l69 -156l96 -213q88 -197 129 -274 q16 25 47 127l88 295q61 211 80 292q10 43 10 71q0 22 -6 36q-14 31 -90 41l-62 8q-14 14 -10 38t25 34q162 -6 254 -6q96 0 237 6q11 -8 12 -31q0 -30 -16 -41l-49 -10q-70 -14 -102.5 -42t-59.5 -101q-63 -178 -98 -295l-150 -490q-27 -88 -96 -342q-27 -23 -129 -22 q-2 0 -18 42l-45 115q-29 74 -54 129l-219 498q-123 285 -133 305q-14 -33 -51 -160l-121 -399q-68 -221 -80 -293q-9 -40 -8 -67q0 -24 6 -37q14 -29 88 -41l62 -10q8 -12 7 -37t-17 -35q-166 6 -259 6q-98 0 -235 -6q-14 8 -14 34.5zM805 1430q10 41 40 100t56 88 q55 57 143 57h134q61 0 98 18.5t61 78.5q20 4 36 4q28 0 40 -15q-27 -109 -80 -176q-43 -57 -141 -57h-111q-78 0 -119.5 -23.5t-82.5 -87.5q-11 -4 -26 -4q-8 0 -16 1q-26 4 -32 16z" />
<glyph unicode="&#xd2;" horiz-adv-x="1552" d="M203 514q0 195 88 378t239 308q225 184 506 184q80 0 155 -17t150.5 -59t132 -105.5t91 -166t34.5 -229.5q0 -160 -68.5 -325t-182.5 -281q-92 -94 -241 -164t-321 -70q-166 0 -286.5 52.5t-182 139.5t-88 174t-26.5 181zM496 403q0 -154 68.5 -248t193.5 -94 q152 0 280 148q135 156 202 351.5t67 391.5q0 172 -66.5 255t-181.5 83q-106 0 -219 -88q-133 -106 -238.5 -333.5t-105.5 -465.5zM772 1622q-2 7 -2 16q0 29 23 70q33 61 67 61q27 0 66 -28l321 -236q2 -7 3 -14q0 -23 -25 -45l-389 127q-54 16 -64 49z" />
<glyph unicode="&#xd3;" horiz-adv-x="1552" d="M203 514q0 195 88 378t239 308q225 184 506 184q80 0 155 -17t150.5 -59t132 -105.5t91 -166t34.5 -229.5q0 -160 -68.5 -325t-182.5 -281q-92 -94 -241 -164t-321 -70q-166 0 -286.5 52.5t-182 139.5t-88 174t-26.5 181zM496 403q0 -154 68.5 -248t193.5 -94 q152 0 280 148q135 156 202 351.5t67 391.5q0 172 -66.5 255t-181.5 83q-106 0 -219 -88q-133 -106 -238.5 -333.5t-105.5 -465.5zM965 1495l321 242q43 33 66 32q35 0 67 -61q22 -41 23 -70q0 -8 -2 -16q-10 -33 -64 -49l-389 -127q-25 9 -25 33q1 7 3 16z" />
<glyph unicode="&#xd4;" horiz-adv-x="1552" d="M203 514q0 195 88 378t239 308q225 184 506 184q80 0 155 -17t150.5 -59t132 -105.5t91 -166t34.5 -229.5q0 -160 -68.5 -325t-182.5 -281q-92 -94 -241 -164t-321 -70q-166 0 -286.5 52.5t-182 139.5t-88 174t-26.5 181zM496 403q0 -154 68.5 -248t193.5 -94 q152 0 280 148q135 156 202 351.5t67 391.5q0 172 -66.5 255t-181.5 83q-106 0 -219 -88q-133 -106 -238.5 -333.5t-105.5 -465.5zM758 1462q-4 7 -4 15q0 10 6 20l305 256q27 24 51.5 24t46.5 -24l242 -256q2 -16 -9.5 -32.5t-25.5 -18.5l-244 127q-16 9 -34 9t-37 -9 l-273 -127q-16 0 -24 16z" />
<glyph unicode="&#xd5;" horiz-adv-x="1552" d="M203 514q0 195 88 378t239 308q225 184 506 184q80 0 155 -17t150.5 -59t132 -105.5t91 -166t34.5 -229.5q0 -160 -68.5 -325t-182.5 -281q-92 -94 -241 -164t-321 -70q-166 0 -286.5 52.5t-182 139.5t-88 174t-26.5 181zM496 403q0 -154 68.5 -248t193.5 -94 q152 0 280 148q135 156 202 351.5t67 391.5q0 172 -66.5 255t-181.5 83q-106 0 -219 -88q-133 -106 -238.5 -333.5t-105.5 -465.5zM801 1430q10 41 39.5 100t56.5 88q55 57 143 57h134q61 0 98 18.5t61 78.5q20 4 36 4q28 0 40 -15q-27 -109 -80 -176q-43 -57 -141 -57h-111 q-78 0 -120 -23.5t-83 -87.5q-11 -4 -25 -4q-8 0 -16 1q-26 4 -32 16z" />
<glyph unicode="&#xd6;" horiz-adv-x="1552" d="M203 514q0 195 88 378t239 308q225 184 506 184q80 0 155 -17t150.5 -59t132 -105.5t91 -166t34.5 -229.5q0 -160 -68.5 -325t-182.5 -281q-92 -94 -241 -164t-321 -70q-166 0 -286.5 52.5t-182 139.5t-88 174t-26.5 181zM496 403q0 -154 68.5 -248t193.5 -94 q152 0 280 148q135 156 202 351.5t67 391.5q0 172 -66.5 255t-181.5 83q-106 0 -219 -88q-133 -106 -238.5 -333.5t-105.5 -465.5zM772 1583q8 53 45 88t88 35q55 0 87 -36q25 -28 25 -69q0 -11 -1 -22q-8 -53 -46 -87t-93 -34q-51 0 -82 36q-24 28 -25 67q0 11 2 22z M1180 1583q8 53 45 88t88 35q55 0 87 -36q25 -28 25 -69q0 -11 -2 -22q-8 -53 -46 -87t-93 -34q-51 0 -82 36q-24 28 -24 67q0 11 2 22z" />
<glyph unicode="&#xd7;" d="M150 119l294 297l-294 297l104 110l299 -299l299 303l106 -108l-299 -301l299 -299l-106 -111l-301 301l-297 -301z" />
<glyph unicode="&#xd8;" horiz-adv-x="1552" d="M203 514q0 195 88 378t239 308q225 184 506 184q180 0 318 -79l104 122q2 0 5 1q22 0 45 -17q26 -18 34 -49l-102 -121q160 -154 159 -430q0 -172 -67.5 -330.5t-183.5 -279.5q-92 -94 -241 -164t-321 -70q-219 0 -358 90l-125 -147q-25 0 -49.5 22.5t-30.5 47.5l123 143 q-143 149 -143 391zM492 403q0 -59 10 -98l753 883q-63 102 -196 102q-111 0 -223 -88q-133 -106 -238.5 -333.5t-105.5 -465.5zM541 188q68 -127 219 -127q160 0 284 146q133 156 200 352.5t67 392.5q0 74 -13 123z" />
<glyph unicode="&#xd9;" horiz-adv-x="1497" d="M272 328q0 90 39 217l158 512q34 104 34 150q0 9 -1 17q-8 42 -84 56l-49 8q-16 8 -10 35t28 35q147 -6 297 -6q139 0 285 6q16 -8 13 -36t-24 -34l-51 -10q-66 -12 -92.5 -47t-69.5 -174l-147 -473q-43 -143 -43 -234q0 -272 264 -272q168 0 269.5 127t168.5 344l91 289 q53 174 79 292q10 43 11 71q0 22 -6 35q-14 30 -91 42l-61 10q-10 12 -8 36t18 34q166 -6 258 -6q96 0 238 6q13 -8 13 -31q0 -28 -17 -39l-49 -12q-72 -18 -104 -45t-58 -98q-41 -104 -101 -295l-94 -301q-49 -156 -99 -256.5t-136 -176.5q-72 -63 -182.5 -100t-229.5 -37 q-457 1 -457 361zM766 1622q-2 7 -2 16q0 29 22 70q33 61 68 61q27 0 66 -28l321 -236q2 -7 3 -14q0 -23 -25 -45l-390 127q-53 16 -63 49z" />
<glyph unicode="&#xda;" horiz-adv-x="1497" d="M272 328q0 90 39 217l158 512q34 104 34 150q0 9 -1 17q-8 42 -84 56l-49 8q-16 8 -10 35t28 35q147 -6 297 -6q139 0 285 6q16 -8 13 -36t-24 -34l-51 -10q-66 -12 -92.5 -47t-69.5 -174l-147 -473q-43 -143 -43 -234q0 -272 264 -272q168 0 269.5 127t168.5 344l91 289 q53 174 79 292q10 43 11 71q0 22 -6 35q-14 30 -91 42l-61 10q-10 12 -8 36t18 34q166 -6 258 -6q96 0 238 6q13 -8 13 -31q0 -28 -17 -39l-49 -12q-72 -18 -104 -45t-58 -98q-41 -104 -101 -295l-94 -301q-49 -156 -99 -256.5t-136 -176.5q-72 -63 -182.5 -100t-229.5 -37 q-457 1 -457 361zM979 1495l321 242q43 33 66 32q35 0 68 -61q22 -41 22 -70q0 -8 -2 -16q-10 -33 -63 -49l-390 -127q-25 9 -24 33q0 7 2 16z" />
<glyph unicode="&#xdb;" horiz-adv-x="1497" d="M272 328q0 90 39 217l158 512q34 104 34 150q0 9 -1 17q-8 42 -84 56l-49 8q-16 8 -10 35t28 35q147 -6 297 -6q139 0 285 6q16 -8 13 -36t-24 -34l-51 -10q-66 -12 -92.5 -47t-69.5 -174l-147 -473q-43 -143 -43 -234q0 -272 264 -272q168 0 269.5 127t168.5 344l91 289 q53 174 79 292q10 43 11 71q0 22 -6 35q-14 30 -91 42l-61 10q-10 12 -8 36t18 34q166 -6 258 -6q96 0 238 6q13 -8 13 -31q0 -28 -17 -39l-49 -12q-72 -18 -104 -45t-58 -98q-41 -104 -101 -295l-94 -301q-49 -156 -99 -256.5t-136 -176.5q-72 -63 -182.5 -100t-229.5 -37 q-457 1 -457 361zM803 1462q-4 7 -4 15q0 10 6 20l305 256q27 24 51.5 24t46.5 -24l242 -256q2 -16 -9 -32.5t-26 -18.5l-244 127q-16 9 -34 9t-37 -9l-273 -127q-16 0 -24 16z" />
<glyph unicode="&#xdc;" horiz-adv-x="1497" d="M272 328q0 90 39 217l158 512q34 104 34 150q0 9 -1 17q-8 42 -84 56l-49 8q-16 8 -10 35t28 35q147 -6 297 -6q139 0 285 6q16 -8 13 -36t-24 -34l-51 -10q-66 -12 -92.5 -47t-69.5 -174l-147 -473q-43 -143 -43 -234q0 -272 264 -272q168 0 269.5 127t168.5 344l91 289 q53 174 79 292q10 43 11 71q0 22 -6 35q-14 30 -91 42l-61 10q-10 12 -8 36t18 34q166 -6 258 -6q96 0 238 6q13 -8 13 -31q0 -28 -17 -39l-49 -12q-72 -18 -104 -45t-58 -98q-41 -104 -101 -295l-94 -301q-49 -156 -99 -256.5t-136 -176.5q-72 -63 -182.5 -100t-229.5 -37 q-457 1 -457 361zM807 1583q8 53 45 88t88 35q55 0 87 -36q25 -28 25 -69q0 -11 -1 -22q-8 -53 -46 -87t-94 -34q-51 0 -82 36q-24 28 -24 67q0 11 2 22zM1214 1583q8 53 45 88t89 35q55 0 87 -36q25 -28 25 -69q0 -11 -2 -22q-8 -53 -46 -87t-93 -34q-51 0 -82 36 q-24 28 -24 67q-1 11 1 22z" />
<glyph unicode="&#xdd;" horiz-adv-x="1216" d="M242 66l82 12q68 10 93 43t70 174l29 90q25 82 26 166q0 44 -7 90l-84 465q-16 98 -36 133t-77 41l-45 6q-12 14 -8 40t22 32q164 -6 275 -6q127 0 268 6q18 -6 17 -35t-15 -37l-76 -14q-66 -12 -65 -45q0 -31 12 -117q29 -199 68 -436l282 352q150 186 150 215 q0 25 -43 33l-54 12q-16 10 -12 37t23 35q172 -6 256 -6q119 0 196 6q15 -6 16 -31v-3q-1 -28 -18 -38l-51 -8q-55 -8 -89 -30.5t-104 -96.5q-150 -152 -372 -426q-72 -84 -101.5 -138.5t-58.5 -142.5l-47 -149q-29 -90 -34 -130t13.5 -60.5t71.5 -28.5l76 -10q10 -8 6 -36 t-18 -36q-195 6 -332 6q-125 0 -309 -6q-15 7 -15 31q0 34 19 41zM838 1495l321 242q43 33 66 32q35 0 67 -61q22 -41 23 -70q0 -8 -2 -16q-10 -33 -64 -49l-389 -127q-25 9 -25 33q1 7 3 16z" />
<glyph unicode="&#xde;" horiz-adv-x="1232" d="M18 66l64 10q68 10 94.5 45t69.5 174l239 762q34 104 35 150q0 9 -2 16q-8 41 -84 55l-49 8q-16 12 -11 39t25 33q160 -6 310 -6q139 0 278 6q16 -8 13 -37t-23 -35l-49 -8q-68 -10 -93.5 -43t-64.5 -158h84q199 0 315 -86q123 -88 123 -254q0 -188 -155.5 -293.5 t-393.5 -105.5q-47 0 -59 2q-12 10 -14 27.5t12 29.5q55 14 102 39q102 55 157.5 148.5t55.5 191.5q0 104 -54 155.5t-136 51.5q-47 0 -59.5 -7t-24.5 -46l-201 -635q-29 -90 -34 -129t13.5 -60.5t71.5 -29.5l68 -10q8 -8 4 -36t-18 -36q-178 6 -318 6q-143 0 -297 -6 q-15 7 -14 31q-1 34 20 41z" />
<glyph unicode="&#xdf;" horiz-adv-x="1077" d="M-315 -395q0 51 35.5 86t82.5 35q31 0 56 -43q74 -133 121 -134q12 0 20 13.5t23.5 64.5t35.5 150l56 272q100 510 194 770q131 365 400 541q162 104 364 104q160 0 242 -61.5t82 -169.5q0 -47 -23.5 -89t-76 -79t-86 -56.5t-105.5 -52t-82 -38.5q-115 -57 -115 -164 q0 -49 66 -203q51 -117 51 -215q0 -156 -145 -277q-106 -88 -215 -88q-76 0 -117 42t-41 91q0 51 39 91q12 12 28.5 13t22.5 -5q86 -104 145 -105q82 0 82 70q0 53 -86 225q-74 147 -73 246q0 106 62.5 178t203.5 150q109 59 155 134t46 142q0 61 -38 96t-81 35 q-121 0 -239 -147.5t-210 -411.5q-70 -199 -165 -616.5t-140 -507.5q-57 -115 -154.5 -178.5t-209.5 -63.5q-82 0 -146.5 41t-64.5 115z" />
<glyph unicode="&#xe0;" horiz-adv-x="1034" d="M39 98q0 98 88 262t219 283q197 176 365 176q43 0 90 -47l47 96q20 14 55 15q39 0 76 -13q57 -16 76 -53q-158 -391 -246 -647q-12 -43 4 -43q23 0 85.5 40t107.5 87q16 0 28.5 -12.5t9.5 -32.5q-70 -98 -187.5 -169t-221.5 -71q-37 0 -58.5 25.5t-21.5 54.5q0 27 23 86 l61 158h-8q-98 -131 -229.5 -226.5t-237.5 -95.5q-49 0 -87 39t-38 88zM326 158q4 -33 28 -33q31 0 98.5 65.5t120.5 137.5q51 68 104.5 167t74.5 156q-33 78 -86.5 78t-137.5 -106q-80 -100 -141 -231.5t-61 -215.5v-18zM596 1346q47 31 82 30.5t53 -59.5l109 -361 q-3 -34 -38 -34q-7 0 -16 2l-221 276q-31 40 -31 72q0 35 62 74z" />
<glyph unicode="&#xe1;" horiz-adv-x="1034" d="M39 98q0 98 88 262t219 283q197 176 365 176q43 0 90 -47l47 96q20 14 55 15q39 0 76 -13q57 -16 76 -53q-158 -391 -246 -647q-12 -43 4 -43q23 0 85.5 40t107.5 87q16 0 28.5 -12.5t9.5 -32.5q-70 -98 -187.5 -169t-221.5 -71q-37 0 -58.5 25.5t-21.5 54.5q0 27 23 86 l61 158h-8q-98 -131 -229.5 -226.5t-237.5 -95.5q-49 0 -87 39t-38 88zM326 158q4 -33 28 -33q31 0 98.5 65.5t120.5 137.5q51 68 104.5 167t74.5 156q-33 78 -86.5 78t-137.5 -106q-80 -100 -141 -231.5t-61 -215.5v-18zM719 963l211 344q32 54 63 53h4q29 -2 74 -37 q47 -47 47 -74q0 -34 -49 -71l-303 -252q-4 0 -8 -1q-35 1 -39 38z" />
<glyph unicode="&#xe2;" horiz-adv-x="1034" d="M39 98q0 98 88 262t219 283q197 176 365 176q43 0 90 -47l47 96q20 14 55 15q39 0 76 -13q57 -16 76 -53q-158 -391 -246 -647q-12 -43 4 -43q23 0 85.5 40t107.5 87q16 0 28.5 -12.5t9.5 -32.5q-70 -98 -187.5 -169t-221.5 -71q-37 0 -58.5 25.5t-21.5 54.5q0 27 23 86 l61 158h-8q-98 -131 -229.5 -226.5t-237.5 -95.5q-49 0 -87 39t-38 88zM326 158q4 -33 28 -33q31 0 98.5 65.5t120.5 137.5q51 68 104.5 167t74.5 156q-33 78 -86.5 78t-137.5 -106q-80 -100 -141 -231.5t-61 -215.5v-18zM537 965l274 387q18 27 47 26q33 0 41 -26l105 -387 q-8 -33 -52 -37l-108 172q-25 37 -37 37q-8 0 -53 -45l-170 -168q-47 0 -47 41z" />
<glyph unicode="&#xe3;" horiz-adv-x="1034" d="M39 98q0 98 88 262t219 283q197 176 365 176q43 0 90 -47l47 96q20 14 55 15q39 0 76 -13q57 -16 76 -53q-158 -391 -246 -647q-12 -43 4 -43q23 0 85.5 40t107.5 87q16 0 28.5 -12.5t9.5 -32.5q-70 -98 -187.5 -169t-221.5 -71q-37 0 -58.5 25.5t-21.5 54.5q0 27 23 86 l61 158h-8q-98 -131 -229.5 -226.5t-237.5 -95.5q-49 0 -87 39t-38 88zM326 158q4 -33 28 -33q31 0 98.5 65.5t120.5 137.5q51 68 104.5 167t74.5 156q-33 78 -86.5 78t-137.5 -106q-80 -100 -141 -231.5t-61 -215.5v-18zM508 956q39 121 84 179q47 57 125 57h114 q68 0 103 18.5t57 77.5q7 2 17 3q8 0 17 -2q22 -3 28 -11q-18 -102 -68 -176q-39 -57 -123 -58h-114q-119 0 -177 -100q-5 -4 -18 -4q-6 0 -14 1q-25 3 -31 15z" />
<glyph unicode="&#xe4;" horiz-adv-x="1034" d="M39 98q0 98 88 262t219 283q197 176 365 176q43 0 90 -47l47 96q20 14 55 15q39 0 76 -13q57 -16 76 -53q-158 -391 -246 -647q-12 -43 4 -43q23 0 85.5 40t107.5 87q16 0 28.5 -12.5t9.5 -32.5q-70 -98 -187.5 -169t-221.5 -71q-37 0 -58.5 25.5t-21.5 54.5q0 27 23 86 l61 158h-8q-98 -131 -229.5 -226.5t-237.5 -95.5q-49 0 -87 39t-38 88zM326 158q4 -33 28 -33q31 0 98.5 65.5t120.5 137.5q51 68 104.5 167t74.5 156q-33 78 -86.5 78t-137.5 -106q-80 -100 -141 -231.5t-61 -215.5v-18zM469 1124q8 55 46 90t93 35q53 0 86 -37 q26 -29 26 -72q0 -11 -1 -22q-8 -53 -47 -87t-92 -34q-55 0 -87 35q-25 28 -26 70q0 10 2 22zM848 1124q8 55 47 90t94 35q53 0 85 -37q25 -29 25 -71q0 -11 -1 -23q-10 -53 -47 -87t-92.5 -34t-87.5 35q-25 28 -25 70q0 10 2 22z" />
<glyph unicode="&#xe5;" horiz-adv-x="1034" d="M39 98q0 98 88 262t219 283q197 176 365 176q43 0 90 -47l47 96q20 14 55 15q39 0 76 -13q57 -16 76 -53q-158 -391 -246 -647q-12 -43 4 -43q23 0 85.5 40t107.5 87q16 0 28.5 -12.5t9.5 -32.5q-70 -98 -187.5 -169t-221.5 -71q-37 0 -58.5 25.5t-21.5 54.5q0 27 23 86 l61 158h-8q-98 -131 -229.5 -226.5t-237.5 -95.5q-49 0 -87 39t-38 88zM326 158q4 -33 28 -33q31 0 98.5 65.5t120.5 137.5q51 68 104.5 167t74.5 156q-33 78 -86.5 78t-137.5 -106q-80 -100 -141 -231.5t-61 -215.5v-18zM586 1139q0 78 54 134t144 56t144.5 -56t54.5 -134 t-54.5 -135.5t-144.5 -57.5t-144 57.5t-54 135.5zM696 1138.5q0 -51.5 23.5 -85t64.5 -33.5t64.5 33.5t23.5 85t-23.5 86.5t-64.5 37q-41 -2 -64.5 -37t-23.5 -86.5z" />
<glyph unicode="&#xe6;" horiz-adv-x="1193" d="M37 121q0 74 47 165t121 165q186 178 512 292q178 104 297 105q106 0 163.5 -53.5t57.5 -139.5q0 -104 -100.5 -189t-354.5 -206q2 -70 37 -108.5t76 -38.5q92 0 190 116q10 2 18 2q36 0 38 -36q-45 -90 -148.5 -157t-224.5 -67q-158 0 -207 154q-80 -61 -187.5 -107.5 t-181.5 -46.5q-66 0 -109.5 39t-43.5 111zM317 174q0 -27 12.5 -42t30.5 -15q61 0 181 86q4 115 33.5 212t105.5 222h-4q-150 -68 -254.5 -221.5t-104.5 -241.5zM776 350q113 82 178.5 174t65.5 168q0 66 -51 66q-68 0 -128.5 -136.5t-64.5 -271.5z" />
<glyph unicode="&#xe7;" horiz-adv-x="776" d="M49 -420q0 29 18.5 47.5t47 18.5t72.5 -37t64.5 -37t37 13.5t16.5 37.5q0 94 -125 144l-8 18l129 188q-4 -2 -12 -2q-100 0 -153.5 63.5t-53.5 174.5q0 100 50 225t134 219q174 195 369 195q92 0 150.5 -42t58.5 -116q0 -57 -41 -93t-98 -36q-78 0 -82 76q-6 121 -41 121 q-57 0 -127 -129q-100 -188 -101 -373q0 -135 86 -135q90 0 213 131q20 0 32.5 -13.5t10.5 -31.5q-41 -63 -115.5 -123.5t-156.5 -87.5l-74 -102q-8 -10 -8 -16.5t5 -13.5t20 -18q98 -78 98 -168q0 -82 -78 -135t-180 -53q-158 0 -158 90z" />
<glyph unicode="&#xe8;" horiz-adv-x="821" d="M82 207q0 137 78 283.5t198 238.5q156 119 322 119q88 0 143.5 -47t55.5 -117q0 -219 -516 -352q-10 -31 -11 -99q0 -45 22.5 -78.5t65.5 -33.5q123 0 267 143q16 0 29.5 -13t11.5 -34q-74 -117 -192 -181.5t-255 -64.5q-106 0 -162.5 66t-56.5 170zM379 422 q113 33 194 117q31 31 51.5 82t22.5 90q0 18 -10 32.5t-29 14.5q-41 0 -88 -53q-98 -107 -141 -283zM489 1346q47 31 82 30.5t54 -59.5l108 -361q-3 -34 -38 -34q-7 0 -15 2l-221 276q-31 40 -31 72q-1 35 61 74z" />
<glyph unicode="&#xe9;" horiz-adv-x="821" d="M82 207q0 137 78 283.5t198 238.5q156 119 322 119q88 0 143.5 -47t55.5 -117q0 -219 -516 -352q-10 -31 -11 -99q0 -45 22.5 -78.5t65.5 -33.5q123 0 267 143q16 0 29.5 -13t11.5 -34q-74 -117 -192 -181.5t-255 -64.5q-106 0 -162.5 66t-56.5 170zM379 422 q113 33 194 117q31 31 51.5 82t22.5 90q0 18 -10 32.5t-29 14.5q-41 0 -88 -53q-98 -107 -141 -283zM580 952l211 344q32 54 63 54h4q29 -2 74 -37q47 -47 47 -74q0 -34 -49 -72l-303 -252h-8q-35 0 -39 37z" />
<glyph unicode="&#xea;" horiz-adv-x="821" d="M82 207q0 137 78 283.5t198 238.5q156 119 322 119q88 0 143.5 -47t55.5 -117q0 -219 -516 -352q-10 -31 -11 -99q0 -45 22.5 -78.5t65.5 -33.5q123 0 267 143q16 0 29.5 -13t11.5 -34q-74 -117 -192 -181.5t-255 -64.5q-106 0 -162.5 66t-56.5 170zM379 422 q113 33 194 117q31 31 51.5 82t22.5 90q0 18 -10 32.5t-29 14.5q-41 0 -88 -53q-98 -107 -141 -283zM430 989l275 387q18 27 47 27q33 0 41 -27l104 -387q-8 -33 -51 -37l-98 178q-23 41 -37 41q-8 0 -54 -45l-180 -178q-47 0 -47 41z" />
<glyph unicode="&#xeb;" horiz-adv-x="821" d="M82 207q0 137 78 283.5t198 238.5q156 119 322 119q88 0 143.5 -47t55.5 -117q0 -219 -516 -352q-10 -31 -11 -99q0 -45 22.5 -78.5t65.5 -33.5q123 0 267 143q16 0 29.5 -13t11.5 -34q-74 -117 -192 -181.5t-255 -64.5q-106 0 -162.5 66t-56.5 170zM348 1124q8 55 46 90 t93 35q53 0 86 -37q26 -29 27 -72q0 -11 -2 -22q-8 -53 -47 -87t-92 -34q-55 0 -87 35q-25 28 -26 70q0 10 2 22zM379 422q113 33 194 117q31 31 51.5 82t22.5 90q0 18 -10 32.5t-29 14.5q-41 0 -88 -53q-98 -107 -141 -283zM727 1124q8 55 47 90t94 35q53 0 85 -37 q25 -29 26 -71q0 -11 -2 -23q-10 -53 -47 -87t-92.5 -34t-86.5 35q-25 28 -26 70q0 10 2 22z" />
<glyph unicode="&#xec;" horiz-adv-x="632" d="M104 53q0 27 25 88l213 510q10 29 -4 29q-23 0 -86.5 -43t-95.5 -74q-18 2 -28.5 18.5t-4.5 30.5q80 98 204 167t208 69q35 0 64.5 -28.5t29.5 -61.5q0 -25 -27 -90l-213 -502q-14 -31 8 -31q20 0 86 45t107 84q18 0 30.5 -14t8.5 -35q-68 -90 -191 -167t-239 -77 q-37 0 -66 29.5t-29 52.5zM389 1358q45 31 82 31q35 0 53 -60l109 -360q-3 -34 -38 -34q-7 0 -15 1l-222 276q-31 40 -30 72q-1 35 61 74z" />
<glyph unicode="&#xed;" horiz-adv-x="632" d="M104 53q0 27 25 88l213 510q10 29 -4 29q-23 0 -86.5 -43t-95.5 -74q-18 2 -28.5 18.5t-4.5 30.5q80 98 204 167t208 69q35 0 64.5 -28.5t29.5 -61.5q0 -25 -27 -90l-213 -502q-14 -31 8 -31q20 0 86 45t107 84q18 0 30.5 -14t8.5 -35q-68 -90 -191 -167t-239 -77 q-37 0 -66 29.5t-29 52.5zM457 958l211 345q32 54 63 53h4q29 -2 74 -37q47 -47 47 -74q0 -34 -49 -71l-303 -252q-4 0 -8 -1q-35 0 -39 37z" />
<glyph unicode="&#xee;" horiz-adv-x="632" d="M104 53q0 27 25 88l213 510q10 29 -4 29q-23 0 -86.5 -43t-95.5 -74q-18 2 -28.5 18.5t-4.5 30.5q80 98 204 167t208 69q35 0 64.5 -28.5t29.5 -61.5q0 -25 -27 -90l-213 -502q-14 -31 8 -31q20 0 86 45t107 84q18 0 30.5 -14t8.5 -35q-68 -90 -191 -167t-239 -77 q-37 0 -66 29.5t-29 52.5zM276 942l275 387q18 27 47 27q33 0 41 -27l104 -387q-8 -33 -51 -37l-102 168q-25 41 -33 41q-12 0 -57 -45l-176 -168q-48 0 -48 41z" />
<glyph unicode="&#xef;" horiz-adv-x="632" d="M104 53q0 27 25 88l213 510q10 29 -4 29q-23 0 -86.5 -43t-95.5 -74q-18 2 -28.5 18.5t-4.5 30.5q80 98 204 167t208 69q35 0 64.5 -28.5t29.5 -61.5q0 -25 -27 -90l-213 -502q-14 -31 8 -31q20 0 86 45t107 84q18 0 30.5 -14t8.5 -35q-68 -90 -191 -167t-239 -77 q-37 0 -66 29.5t-29 52.5zM248 1124q8 55 46 90t93 35q53 0 86 -37q26 -29 26 -72q0 -11 -1 -22q-8 -53 -47 -87t-93 -34q-55 0 -87 35q-25 28 -25 70q0 10 2 22zM627 1124q8 55 47 90t94 35q53 0 85 -37q25 -29 25 -71q0 -11 -1 -23q-10 -53 -47 -87t-92.5 -34t-87.5 35 q-25 28 -25 70q0 10 2 22z" />
<glyph unicode="&#xf0;" horiz-adv-x="954" d="M158 511q55 126 149 210q143 127 291 127h20q49 0 82 -19l2 39q0 118 -45 211l-290 -125q-20 4 -31.5 41t4.5 54l281 120q-49 92 -101 144q-70 66 -170 88q-8 10 -3 33.5t22 29.5q125 -6 215 -53q119 -63 200 -172l269 115q23 -8 30 -46q3 -14 3 -25q0 -19 -9 -28 l-235 -100q106 -184 106 -442q0 -156 -52 -309.5t-148 -262.5q-152 -170 -353 -170q-150 0 -223 85q-72 83 -72 211q1 113 58 244zM336 154q0 -92 72 -93q39 0 71.5 33t75.5 105q47 78 94 220t47 249q0 39 -16 64.5t-47 25.5q-47 0 -111 -78q-59 -76 -122.5 -235.5 t-63.5 -290.5z" />
<glyph unicode="&#xf1;" horiz-adv-x="1114" d="M92 604q43 88 159 166t232 78q43 0 62.5 -23.5t17.5 -50t-12 -55.5l-96 -252h8q59 82 100 133t105.5 116.5t133 98.5t140.5 33q63 0 96 -37t33 -82q0 -76 -41 -182l-151 -367q-18 -45 8 -45q23 0 81 46t101 93q16 4 29.5 -7t11.5 -31q-53 -94 -173 -179.5t-257 -85.5 q-35 0 -61.5 26t-26.5 54q0 37 31 111q127 297 174 428q27 72 26 96q0 29 -26 29q-53 0 -156 -131q-121 -154 -317 -576q-18 -37 -99 -37q-51 0 -88 20q-27 14 -26 40q0 10 4 22l196 555q12 32 12 50q0 24 -20 24q-59 0 -174 -111q-33 0 -37 33zM502 967q39 121 84 178 q47 57 125 57h114q68 0 103 18.5t57 77.5q7 2 17 3q8 0 17 -2q22 -3 28 -11q-18 -102 -68 -176q-39 -57 -123 -57h-115q-119 0 -176 -101q-5 -4 -18 -4q-6 0 -15 1q-24 4 -30 16z" />
<glyph unicode="&#xf2;" horiz-adv-x="958" d="M159 506q56 127 156 213q150 129 320 129q154 0 227.5 -87t73.5 -212q0 -113 -51 -231.5t-140 -202.5q-150 -143 -348 -144q-147 0 -223 83q-74 81 -74 196q1 124 59 256zM336 145q0 -84 63 -84q68 0 152 138q53 88 104.5 228t51.5 245q0 86 -58 86q-47 0 -110 -78 q-68 -86 -135.5 -244t-67.5 -291zM549 1343q45 31 82 31q35 0 53 -59l109 -361q-3 -34 -39 -34q-7 0 -15 2l-221 276q-31 40 -31 72t62 73z" />
<glyph unicode="&#xf3;" horiz-adv-x="958" d="M159 506q56 127 156 213q150 129 320 129q154 0 227.5 -87t73.5 -212q0 -113 -51 -231.5t-140 -202.5q-150 -143 -348 -144q-147 0 -223 83q-74 81 -74 196q1 124 59 256zM336 145q0 -84 63 -84q68 0 152 138q53 88 104.5 228t51.5 245q0 86 -58 86q-47 0 -110 -78 q-68 -86 -135.5 -244t-67.5 -291zM602 967l211 344q32 54 63 53h5q29 -2 73 -37q47 -47 48 -74q0 -34 -50 -71l-303 -252q-4 0 -7 -1q-36 1 -40 38z" />
<glyph unicode="&#xf4;" horiz-adv-x="958" d="M159 506q56 127 156 213q150 129 320 129q154 0 227.5 -87t73.5 -212q0 -113 -51 -231.5t-140 -202.5q-150 -143 -348 -144q-147 0 -223 83q-74 81 -74 196q1 124 59 256zM336 145q0 -84 63 -84q68 0 152 138q53 88 104.5 228t51.5 245q0 86 -58 86q-47 0 -110 -78 q-68 -86 -135.5 -244t-67.5 -291zM444 969l275 387q18 27 47 26q33 0 41 -26l104 -387q-8 -33 -51 -37l-102 168q-25 41 -33 41q-12 0 -57 -45l-176 -168q-48 0 -48 41z" />
<glyph unicode="&#xf5;" horiz-adv-x="958" d="M159 506q56 127 156 213q150 129 320 129q154 0 227.5 -87t73.5 -212q0 -113 -51 -231.5t-140 -202.5q-150 -143 -348 -144q-147 0 -223 83q-74 81 -74 196q1 124 59 256zM336 145q0 -84 63 -84q68 0 152 138q53 88 104.5 228t51.5 245q0 86 -58 86q-47 0 -110 -78 q-68 -86 -135.5 -244t-67.5 -291zM453 965q39 121 84 178q47 57 125 57h114q68 0 102.5 18.5t57.5 77.5q7 2 17 3q8 0 17 -2q22 -3 27 -11q-18 -102 -67 -176q-39 -57 -123 -57h-115q-119 0 -176 -101q-5 -4 -18 -4q-6 0 -15 1q-24 4 -30 16z" />
<glyph unicode="&#xf6;" horiz-adv-x="958" d="M159 506q56 127 156 213q150 129 320 129q154 0 227.5 -87t73.5 -212q0 -113 -51 -231.5t-140 -202.5q-150 -143 -348 -144q-147 0 -223 83q-74 81 -74 196q1 124 59 256zM336 145q0 -84 63 -84q68 0 152 138q53 88 104.5 228t51.5 245q0 86 -58 86q-47 0 -110 -78 q-68 -86 -135.5 -244t-67.5 -291zM410 1124q8 55 46 90t93 35q53 0 86 -37q26 -29 26 -72q0 -11 -2 -22q-8 -53 -47 -87t-92 -34q-55 0 -87 35q-25 28 -25 70q0 10 2 22zM788 1124q8 55 47.5 90t94.5 35q53 0 85 -37q25 -29 25 -71q0 -11 -2 -23q-10 -53 -47 -87t-92 -34 t-87 35q-25 28 -25 70q-1 10 1 22z" />
<glyph unicode="&#xf7;" d="M143 362v148h822v-148h-822zM430 145.5q0 51.5 37 87t88 35.5q47 0 84 -35.5t37 -87t-36 -88.5t-85 -37q-51 0 -88 37t-37 88.5zM430 729q0 51 37 87t88 36q47 0 84 -37t37 -86q0 -51 -36 -88t-85 -37q-51 0 -88 36t-37 89z" />
<glyph unicode="&#xf8;" horiz-adv-x="958" d="M102 272q2 111 57.5 236t155.5 211q150 129 322 129q76 0 133 -25l61 82q6 1 13 1q42 0 51 -40l-61 -82q102 -76 102 -239q0 -109 -53.5 -226.5t-141.5 -203.5q-150 -143 -338 -144q-78 0 -145 25l-78 -105h-5q-16 0 -30 11q-16 12 -18 37l72 96q-96 83 -97 226v11z M315 201l4 -4l386 536q-20 25 -62 25q-61 0 -133 -80q-66 -72 -128.5 -212t-66.5 -265zM336 92q20 -31 61 -31q90 0 183 138q49 74 96 199.5t47 226.5l-4 4z" />
<glyph unicode="&#xf9;" horiz-adv-x="1112" d="M106 604q66 88 190 166t232 78q35 0 64 -27.5t29 -58.5q0 -33 -11 -57l-202 -498q-8 -20 -9 -33q0 -22 25 -22q27 0 78 43q178 152 409 636q37 16 76 17q86 0 144 -45l-234 -604q-7 -22 -7 -36q0 -21 17 -22q23 0 83.5 45t103.5 88q37 -6 37 -47q-49 -86 -180.5 -171 t-250.5 -85q-41 0 -64 31q-13 17 -13 38q0 17 8 36l114 291h-4q-102 -143 -244.5 -269.5t-252.5 -126.5q-51 0 -82 31t-31 76q0 41 31 121l170 428q8 20 6 36.5t-14 16.5q-14 0 -39 -14.5t-45.5 -29.5t-53.5 -43l-45 -38q-37 14 -35 49zM608 1358q47 31 82 31t53 -60 l109 -360q-3 -34 -38 -34q-7 0 -15 1l-221 276q-31 40 -31 72q-1 35 61 74z" />
<glyph unicode="&#xfa;" horiz-adv-x="1112" d="M106 604q66 88 190 166t232 78q35 0 64 -27.5t29 -58.5q0 -33 -11 -57l-202 -498q-8 -20 -9 -33q0 -22 25 -22q27 0 78 43q178 152 409 636q37 16 76 17q86 0 144 -45l-234 -604q-7 -22 -7 -36q0 -21 17 -22q23 0 83.5 45t103.5 88q37 -6 37 -47q-49 -86 -180.5 -171 t-250.5 -85q-41 0 -64 31q-13 17 -13 38q0 17 8 36l114 291h-4q-102 -143 -244.5 -269.5t-252.5 -126.5q-51 0 -82 31t-31 76q0 41 31 121l170 428q8 20 6 36.5t-14 16.5q-14 0 -39 -14.5t-45.5 -29.5t-53.5 -43l-45 -38q-37 14 -35 49zM680 969l211 344q32 54 63 53h4 q29 -2 74 -37q47 -47 47 -73q0 -34 -49 -72l-303 -252q-4 0 -7 -1q-36 1 -40 38z" />
<glyph unicode="&#xfb;" horiz-adv-x="1112" d="M106 604q66 88 190 166t232 78q35 0 64 -27.5t29 -58.5q0 -33 -11 -57l-202 -498q-8 -20 -9 -33q0 -22 25 -22q27 0 78 43q178 152 409 636q37 16 76 17q86 0 144 -45l-234 -604q-7 -22 -7 -36q0 -21 17 -22q23 0 83.5 45t103.5 88q37 -6 37 -47q-49 -86 -180.5 -171 t-250.5 -85q-41 0 -64 31q-13 17 -13 38q0 17 8 36l114 291h-4q-102 -143 -244.5 -269.5t-252.5 -126.5q-51 0 -82 31t-31 76q0 41 31 121l170 428q8 20 6 36.5t-14 16.5q-14 0 -39 -14.5t-45.5 -29.5t-53.5 -43l-45 -38q-37 14 -35 49zM537 969l274 387q18 27 47 26 q33 0 41 -26l105 -387q-8 -33 -52 -37l-102 168q-25 41 -33 41q-12 0 -57 -45l-176 -168q-47 0 -47 41z" />
<glyph unicode="&#xfc;" horiz-adv-x="1112" d="M106 604q66 88 190 166t232 78q35 0 64 -27.5t29 -58.5q0 -33 -11 -57l-202 -498q-8 -20 -9 -33q0 -22 25 -22q27 0 78 43q178 152 409 636q37 16 76 17q86 0 144 -45l-234 -604q-7 -22 -7 -36q0 -21 17 -22q23 0 83.5 45t103.5 88q37 -6 37 -47q-49 -86 -180.5 -171 t-250.5 -85q-41 0 -64 31q-13 17 -13 38q0 17 8 36l114 291h-4q-102 -143 -244.5 -269.5t-252.5 -126.5q-51 0 -82 31t-31 76q0 41 31 121l170 428q8 20 6 36.5t-14 16.5q-14 0 -39 -14.5t-45.5 -29.5t-53.5 -43l-45 -38q-37 14 -35 49zM469 1124q8 55 46 90t93 35 q53 0 86 -37q26 -29 26 -72q0 -11 -1 -22q-8 -53 -47 -87t-92 -34q-55 0 -87 35q-25 28 -26 70q0 10 2 22zM848 1124q8 55 47 90t94 35q53 0 85 -37q25 -29 25 -71q0 -11 -1 -23q-10 -53 -47 -87t-92.5 -34t-87.5 35q-25 28 -25 70q0 10 2 22z" />
<glyph unicode="&#xfd;" horiz-adv-x="870" d="M-176 -406q0 53 35 90q37 38 88 37q49 0 90 -59q49 -70 94 -70q35 0 82 54q63 74 86 192q26 131 26 337q0 41 -1 85q-10 406 -80 406q-29 0 -66 -53.5t-63 -112.5q-14 -12 -38 -6t-30 22q18 53 42 101.5t61.5 105.5t92 91t117.5 34q84 0 131.5 -85t51.5 -286q1 -39 0 -77 q0 -189 -17 -343h6q135 262 187 580q18 104 20 125q10 86 70 86q51 0 89 -23.5t40 -68.5q0 -20 -21.5 -94t-72.5 -197t-115 -238q-240 -430 -389 -585q-182 -193 -358 -193q-61 0 -109 38q-49 39 -49 107zM535 954l210 344q32 54 64 54h4q29 -2 74 -37q47 -47 47 -74 q0 -34 -49 -72l-303 -251q-4 0 -8 -1q-35 0 -39 37z" />
<glyph unicode="&#xfe;" horiz-adv-x="1040" d="M-227 -500q0 19 12 29l66 10q63 10 89.5 44t63.5 141l324 950q-80 -16 -213 -88q-18 2 -26.5 23.5t1.5 35.5q27 31 120 78q92 47 152 63l113 326q16 47 16 72q-1 4 -1 7q-3 24 -29 38l-58 33q-12 31 11 49q49 20 175 43.5t202 25.5q20 -2 20 -20q-12 -39 -27 -79l-34 -95 l-35 -94l-99 -279q37 6 58 6q180 0 261 -83t81 -218q0 -86 -43 -187.5t-111 -168.5q-186 -190 -422 -191q-39 0 -84 21q-18 -2 -28 -35l-92 -272q-12 -39 -14.5 -62.5t13 -42t52.5 -22.5l86 -9q18 -8 15 -35.5t-25 -33.5h-146q-156 0 -422 -23q-22 10 -22 43zM403 178 q-7 -22 -7 -39q0 -27 18 -45q31 -33 63 -33q53 0 121 82q68 80 112 190.5t44 211.5q0 84 -39 126t-96 42q-8 0 -33 -4z" />
<glyph unicode="&#xff;" horiz-adv-x="870" d="M-176 -406q0 53 35 90q37 38 88 37q49 0 90 -59q49 -70 94 -70q35 0 82 54q63 74 86 192q26 131 26 337q0 41 -1 85q-10 406 -80 406q-29 0 -66 -53.5t-63 -112.5q-14 -12 -38 -6t-30 22q18 53 42 101.5t61.5 105.5t92 91t117.5 34q84 0 131.5 -85t51.5 -286q1 -39 0 -77 q0 -189 -17 -343h6q135 262 187 580q18 104 20 125q10 86 70 86q51 0 89 -23.5t40 -68.5q0 -20 -21.5 -94t-72.5 -197t-115 -238q-240 -430 -389 -585q-182 -193 -358 -193q-61 0 -109 38q-49 39 -49 107zM322 1126q8 55 46 90t93 35q53 0 86 -37q26 -29 26 -72 q0 -11 -2 -22q-8 -53 -47 -87t-92 -34q-55 0 -87 35q-25 28 -25 70q0 10 2 22zM700 1126q8 55 47 90t95 35q53 0 85 -37q25 -29 25 -71q0 -11 -2 -23q-10 -53 -47 -87t-92 -34t-87 35q-25 28 -25 70q-1 10 1 22z" />
<glyph unicode="&#x152;" horiz-adv-x="2088" d="M211 535q0 377 303 616q266 213 692 213q143 0 248 -6q12 0 83 -3t108 -3h366q233 0 279 6q-53 -131 -105 -322q-8 -16 -37.5 -18t-40.5 10q3 36 3 65q0 59 -11 93q-25 72 -172 71h-160q-53 0 -67 -12t-33 -69l-113 -357q-14 -43 -8 -52t47 -9h136q80 0 113.5 20.5 t72.5 93.5l27 50q16 14 44.5 13t32.5 -15q-12 -33 -75 -218q-4 -10 -62 -217q-12 -12 -42 -13t-36 11l6 52q2 20 3 36q0 43 -16 58q-22 20 -101 20h-135q-41 0 -53.5 -10t-24.5 -51l-78 -250q-33 -104 -33 -159q0 -20 4 -34q10 -27 52 -39t149 -12q104 0 154.5 10.5 t116 61.5t147.5 164q16 12 44.5 9t37.5 -22q-27 -80 -76 -181t-82 -142q-127 4 -231 4q-86 2 -263 2h-174q-92 0 -180 -6q-20 0 -55 -2t-64.5 -3t-54.5 -1q-156 0 -277.5 34.5t-197.5 89t-124 128t-67.5 145.5t-19.5 150zM510 485q0 -190 96 -296.5t285 -106.5q84 0 134 35 t79 131l276 893q8 27 8 47q0 43 -34 61q-39 20 -121 21q-166 0 -306.5 -76t-229.5 -192.5t-138 -253t-49 -263.5z" />
<glyph unicode="&#x153;" horiz-adv-x="1335" d="M160 507q55 124 157 212q150 129 322 129q80 0 139.5 -40t77.5 -114q8 10 35 33q152 121 303 121q88 0 143.5 -47t55.5 -117q0 -217 -514 -352q-10 -31 -11 -99q0 -45 22.5 -78.5t63.5 -33.5q123 0 267 143q16 0 29.5 -13t11.5 -34q-74 -115 -187.5 -180.5t-232.5 -65.5 q-135 0 -172 138q-137 -137 -295 -138q-129 0 -202 84q-71 82 -71 210q1 113 58 242zM338 145q0 -84 63 -84q66 0 150 138q53 88 104.5 228t51.5 245q0 86 -54 86q-49 0 -112 -78q-68 -86 -135.5 -244t-67.5 -291zM895 422q106 23 192 117q31 31 51.5 82t22.5 90 q0 18 -10 32.5t-27 14.5q-43 0 -90 -53q-51 -55 -89 -137.5t-50 -145.5z" />
<glyph unicode="&#x178;" horiz-adv-x="1216" d="M242 66l82 12q68 10 93 43t70 174l29 90q25 82 26 166q0 44 -7 90l-84 465q-16 98 -36 133t-77 41l-45 6q-12 14 -8 40t22 32q164 -6 275 -6q127 0 268 6q18 -6 17 -35t-15 -37l-76 -14q-66 -12 -65 -45q0 -31 12 -117q29 -199 68 -436l282 352q150 186 150 215 q0 25 -43 33l-54 12q-16 10 -12 37t23 35q172 -6 256 -6q119 0 196 6q15 -6 16 -31v-3q-1 -28 -18 -38l-51 -8q-55 -8 -89 -30.5t-104 -96.5q-150 -152 -372 -426q-72 -84 -101.5 -138.5t-58.5 -142.5l-47 -149q-29 -90 -34 -130t13.5 -60.5t71.5 -28.5l76 -10q10 -8 6 -36 t-18 -36q-195 6 -332 6q-125 0 -309 -6q-15 7 -15 31q0 34 19 41zM645 1583q8 53 45 88t88 35q55 0 87 -36q25 -28 26 -69q0 -11 -2 -22q-8 -53 -46 -87t-93 -34q-51 0 -82 36q-24 28 -25 67q0 11 2 22zM1053 1583q8 53 45 88t88 35q55 0 87 -36q25 -28 25 -69q0 -11 -2 -22 q-8 -53 -46 -87t-93 -34q-51 0 -82 36q-24 28 -24 67q0 11 2 22z" />
<glyph unicode="&#x2c6;" horiz-adv-x="778" d="M451 969l274 387q18 27 47 26q33 0 41 -26l105 -387q-8 -33 -52 -37l-106 166q-25 41 -39 41q-8 0 -53 -45l-170 -166q-47 0 -47 41z" />
<glyph unicode="&#x2dc;" horiz-adv-x="778" d="M399 977q39 121 84 178q47 57 125 57h115q68 0 102.5 18.5t57.5 78.5q7 2 17 2q8 0 16 -1q22 -3 28 -12q-18 -102 -67 -176q-39 -57 -123 -57h-115q-119 0 -176 -100q-5 -4 -18 -4q-6 0 -15 1q-25 3 -31 15z" />
<glyph unicode="&#x2013;" horiz-adv-x="1024" d="M8 354l37 142h1024l-37 -142h-1024z" />
<glyph unicode="&#x2014;" horiz-adv-x="2048" d="M8 354l37 142h2048l-37 -142h-2048z" />
<glyph unicode="&#x2018;" horiz-adv-x="536" d="M348 1090q0 123 106.5 218t280.5 138q20 -8 27 -30q2 -7 2 -14q0 -14 -8 -26q-84 -25 -144.5 -81t-60.5 -115.5t65 -96.5q39 -18 39 -75q0 -51 -38.5 -91t-94.5 -40q-66 0 -120 55.5t-54 157.5z" />
<glyph unicode="&#x2019;" horiz-adv-x="536" d="M303 894q-2 7 -2 14q0 14 8 26q84 25 144.5 81t60.5 115.5t-65 96.5q-39 18 -39 76q0 51 38.5 91t94.5 40q66 0 120 -55.5t54 -157.5q0 -123 -106.5 -218.5t-280.5 -138.5q-21 8 -27 30z" />
<glyph unicode="&#x201a;" horiz-adv-x="536" d="M-29 -212q-2 7 -2 14q0 14 8 26q84 25 144.5 81t60.5 115.5t-65 96.5q-39 18 -39 76q0 51 39 91t94 40q66 0 120 -55.5t54 -157.5q0 -123 -106.5 -218.5t-280.5 -138.5q-21 8 -27 30z" />
<glyph unicode="&#x201c;" horiz-adv-x="983" d="M350 1090q0 123 106.5 218t280.5 138q20 -8 26.5 -29.5t-5.5 -40.5q-84 -25 -144.5 -81t-60.5 -115.5t65 -96.5q39 -18 39 -75q0 -51 -38.5 -91t-94.5 -40q-66 0 -120 55.5t-54 157.5zM793 1090q0 123 106.5 218t280.5 138q20 -8 26 -30q2 -7 2 -14q0 -14 -8 -26 q-84 -25 -144.5 -81t-60.5 -115.5t66 -96.5q39 -18 39 -75q0 -51 -39 -91t-94 -40q-66 0 -120 55.5t-54 157.5z" />
<glyph unicode="&#x201d;" horiz-adv-x="983" d="M301 894q-2 7 -2 14q0 14 8 26q84 25 144.5 81t60.5 115.5t-66 96.5q-39 18 -38 76q0 51 38.5 91t94.5 40q66 0 120 -55.5t54 -157.5q0 -123 -106.5 -218.5t-280.5 -138.5q-21 8 -27 30zM743 894q-2 7 -2 14q0 14 9 26q84 25 144 81t60 115.5t-65 96.5q-39 18 -39 76 q0 51 39 91t94 40q66 0 120 -55.5t54 -157.5q0 -123 -106.5 -218.5t-280.5 -138.5q-21 8 -27 30z" />
<glyph unicode="&#x201e;" horiz-adv-x="983" d="M-27 -212q-2 7 -2 14q0 14 9 26q84 25 144 81t60 115.5t-65 96.5q-39 18 -39 76q0 51 39 91t94 40q66 0 120 -55.5t54 -157.5q0 -123 -106.5 -218.5t-280.5 -138.5q-21 8 -27 30zM416 -212q-2 7 -2 14q0 14 8 26q84 25 144.5 81t60.5 115.5t-66 96.5q-39 18 -39 76 q0 51 39 91t94 40q66 0 120 -55.5t54 -157.5q0 -123 -106.5 -218.5t-280.5 -138.5q-20 8 -26 30z" />
<glyph unicode="&#x2022;" horiz-adv-x="847" d="M242 688q0 133 92 226.5t225 93.5t226.5 -93.5t93.5 -226.5q0 -135 -93.5 -228t-226.5 -93q-131 0 -224 93t-93 228z" />
<glyph unicode="&#x2026;" horiz-adv-x="2048" d="M119 115q0 76 50 134t128 58q61 0 99 -41t38 -110q0 -78 -50 -131.5t-124 -53.5q-61 0 -101 39t-40 105zM801 115q0 76 50 134t128 58q61 0 99 -41t38 -110q0 -78 -50 -131.5t-124 -53.5q-61 0 -101 39t-40 105zM1483 115q0 76 50 134t128 58q61 0 99 -41t38 -110 q0 -78 -50 -131.5t-124 -53.5q-61 0 -101 39t-40 105z" />
<glyph unicode="&#x2039;" horiz-adv-x="598" d="M147 389q-11 15 -11 30q0 22 26 44l373 354q45 0 51 -35l-226 -325q-18 -29 -10 -58l94 -333q-9 -33 -45 -34q-4 0 -8 1q-166 250 -244 356z" />
<glyph unicode="&#x203a;" horiz-adv-x="598" d="M94 68l225 325q18 29 11 58l-94 333q10 37 53 33q166 -250 243 -356q29 -37 -14 -74l-373 -354q-45 0 -51 35z" />
<glyph unicode="&#x20ac;" d="M162 502q-6 17 -6 32q0 36 34 60h93q4 41 20 108h-100q-6 17 -6 32q0 37 36 61h97q90 244 285.5 382t402.5 138q156 0 270 -58q-53 -133 -92 -301q-8 -16 -35.5 -16t-34.5 16q6 40 7 76q0 69 -24 118q-36 75 -114 75q-111 0 -222 -127t-161 -303h459q10 -14 2 -42 t-33 -51h-452q-12 -49 -19 -108h394q6 -13 6 -26q0 -32 -35 -66h-373q-10 -92 -10 -146q0 -156 46 -225.5t112 -69.5q78 0 143.5 58.5t144.5 197.5q16 12 40 4t28 -24q-61 -186 -115 -279q-141 -47 -280 -47q-193 0 -294.5 141.5t-101.5 379.5v10h-112z" />
<glyph unicode="&#x2122;" horiz-adv-x="1454" d="M389 1231q16 104 29 145q4 8 16 8t15 -8q14 -16 23 -20t40 -4h260q37 0 62 24q4 8 15 8t15 -8q-11 -49 -11 -113q0 -18 1 -38q-2 -14 -19.5 -14.5t-19.5 10.5q-8 39 -25.5 57t-54.5 18h-26q-12 0 -14.5 -3t-2.5 -21v-205q0 -51 6.5 -68.5t30.5 -21.5l33 -6q6 -4 5 -21.5 t-7 -19.5q-45 2 -148 2q-82 0 -118 -2q-6 2 -6.5 17.5t4.5 23.5l32 6q23 4 30 25.5t7 70.5v199q0 18 -3 21t-19 3h-17q-66 0 -92 -71q-4 -10 -21.5 -8t-19.5 14zM908 954q0 11 3 17l13 2q49 8 51 49q18 170 18 229q0 51 -49 58l-16 4q-12 4 -11 21.5t13 19.5q18 0 44.5 -1 t37.5 -1q61 0 135 2q0 -25 47 -115l39 -76q16 -31 24 -30q10 0 25 24l35 76q31 66 47 121q63 -2 98 -2q78 0 103 2q8 -2 9 -20.5t-7 -20.5l-21 -4q-25 -4 -32 -14.5t-7 -34.5q0 -135 6 -222q2 -35 7.5 -45t21.5 -14l31 -8q8 -4 8 -20.5t-8 -20.5q-29 2 -125 2q-82 0 -113 -2 q-4 4 -5 20.5t5 20.5l31 8q16 4 20.5 13t4.5 36l-4 201q0 20 -5 22q-2 0 -39 -88l-38 -90q-47 -111 -58 -143q-15 -5 -27 -5q-14 0 -24 7q-4 14 -47 123l-47 112q-41 92 -47 97q-2 -6 -8 -107v-125q2 -35 9 -46t31 -13l19 -2q4 -4 4 -18.5t-4 -22.5q-20 2 -96 2 q-74 0 -97 -2q-5 2 -5 24z" />
<glyph unicode="&#xe000;" horiz-adv-x="850" d="M0 850h850v-850h-850v850z" />
<glyph unicode="&#xfb01;" horiz-adv-x="1138" d="M-336 -393q0 49 36 85t79 36t57 -43q35 -63 70 -99.5t53 -36.5q29 0 78 175l266 989h-194q-3 14 -4 27q0 19 7 38q11 33 29 41h193q70 211 149 346q86 141 209 220t269 79q129 0 209.5 -61.5t80.5 -140.5q-2 -72 -47 -109t-102 -37q-51 0 -73.5 23.5t-22.5 54.5 q-2 180 -95 180q-78 0 -159 -143q-72 -123 -160 -412h143q68 0 197 15q100 14 129 14q31 0 47 -24.5t16 -53.5q0 -39 -26 -100l-199 -504q-14 -31 8 -31q20 0 86 45t107 84q18 0 30.5 -14t8.5 -35q-68 -90 -190 -167t-236 -77q-37 0 -68 30t-31 52q0 27 25 88l188 484 q11 34 12 53q0 12 -4 18q-11 16 -53 17h-221l-105 -357q-73 -250 -116 -381q-84 -252 -145 -344q-51 -76 -139.5 -129t-184.5 -53q-80 0 -143.5 41t-63.5 117z" />
<glyph unicode="&#xfb02;" horiz-adv-x="1140" d="M-336 -393q0 49 36 85t79 36t57 -43q35 -63 70 -99.5t53 -36.5q29 0 78 175l268 989h-192q-5 15 -5 30q0 17 6 34q11 34 29 42h193q61 203 141 336q188 309 488 309q129 0 200 -61q111 51 172 61q20 -2 21 -20q-8 -20 -41 -112l-55 -154l-338 -975q-16 -46 -16 -69 q0 -25 18 -25q31 0 95 60t118 122q16 2 28.5 -11.5t10.5 -33.5q-141 -274 -404 -275q-133 0 -133 88q0 43 29 123l184 531h-293q-37 -117 -108.5 -364t-112.5 -374q-84 -252 -145 -344q-51 -76 -139.5 -129t-184.5 -53q-80 0 -143.5 41t-63.5 117zM590 819h301l131 379 q14 39 14 72q0 30 -12 54q-25 50 -84 50q-100 0 -195 -157q-87 -146 -155 -398z" />
<glyph unicode="&#xfb03;" horiz-adv-x="1695" d="M-336 -393q0 49 36 85t79 36t57 -43q35 -63 70 -99.5t53 -36.5q29 0 78 175l266 989h-199q-4 14 -3 29q0 17 4 35q9 34 24 42h205q53 182 131 314q166 283 455 282q88 0 139 -36t69 -87q160 172 390 172q129 0 209.5 -61.5t80.5 -140.5q-2 -72 -47 -109t-102 -37 q-51 0 -73.5 23.5t-22.5 54.5q-2 180 -95 180q-78 0 -159 -143q-72 -123 -160 -412h143q84 0 197 14.5t129 14.5q31 0 47 -24.5t16 -53.5q0 -39 -26 -100l-199 -504q-14 -31 8 -31q20 0 86 45t107 84q18 0 30.5 -14t8.5 -35q-68 -90 -190 -167t-236 -77q-37 0 -68 30t-31 52 q0 27 25 88l188 484q11 34 12 53q0 12 -4 18q-11 16 -53 17h-221q-31 -94 -99.5 -331t-109.5 -366q-84 -252 -145 -344q-51 -76 -138 -129t-182 -53q-72 0 -130 41t-58 111q0 43 29.5 76.5t72.5 33.5q39 0 58 -39q29 -55 61.5 -89t50.5 -34q29 0 78 174l258 949h-303 l-105 -357q-73 -250 -116 -381q-84 -252 -145 -344q-51 -76 -139.5 -129t-184.5 -53q-80 0 -143.5 41t-63.5 117zM588 819h305q84 242 141 338q-10 74 -45 121t-94 47q-109 0 -186 -158q-62 -119 -121 -348z" />
<glyph unicode="&#xfb04;" horiz-adv-x="1697" d="M-336 -393q0 49 36 85t79 36t57 -43q35 -63 70 -99.5t53 -36.5q29 0 78 175l266 989h-199q-4 14 -3 29q0 17 4 35q9 34 24 42h205q53 182 131 314q166 283 444 282q92 0 149.5 -37t72.5 -82q63 70 161.5 119t212.5 49q145 0 217 -61q111 51 172 61q20 -2 21 -20 q-8 -20 -41 -112l-55 -154l-338 -975q-16 -46 -16 -69q0 -25 18 -25q31 0 95 60t118 122q16 2 28.5 -11.5t10.5 -33.5q-141 -274 -404 -275q-133 0 -133 88q0 43 29 123l184 531h-293q-31 -94 -99.5 -331t-109.5 -366q-84 -252 -145 -344q-51 -76 -138 -129t-182 -53 q-72 0 -130 41t-58 111q0 43 29.5 76.5t72.5 33.5q39 0 58 -39q29 -55 61.5 -89t50.5 -34q29 0 78 174l258 949h-303l-105 -357q-73 -250 -116 -381q-84 -252 -145 -344q-51 -76 -139.5 -129t-184.5 -53q-80 0 -143.5 41t-63.5 117zM588 819h305q70 215 139 338 q-12 72 -49 120t-94 48q-100 0 -180 -158q-62 -119 -121 -348zM1147 819h301l131 379q14 39 14 72q0 30 -12 54q-25 50 -84 50q-47 0 -100.5 -40t-96.5 -115q-85 -154 -153 -400z" />
</font>
</defs>
</svg>
